%TF.GenerationSoftware,KiCad,Pcbnew,(5.1.5)-3*%
%TF.CreationDate,2021-01-24T13:48:15-06:00*%
%TF.ProjectId,dragon64,64726167-6f6e-4363-942e-6b696361645f,rev?*%
%TF.SameCoordinates,Original*%
%TF.FileFunction,Profile,NP*%
%FSLAX46Y46*%
G04 Gerber Fmt 4.6, Leading zero omitted, Abs format (unit mm)*
G04 Created by KiCad (PCBNEW (5.1.5)-3) date 2021-01-24 13:48:15*
%MOMM*%
%LPD*%
G04 APERTURE LIST*
%TA.AperFunction,Profile*%
%ADD10C,0.050000*%
%TD*%
G04 APERTURE END LIST*
D10*
X222474000Y11922000D02*
X243496000Y11922000D01*
X243750000Y12176000D02*
G75*
G02X243496000Y11922000I-254000J0D01*
G01*
X222474000Y11922000D02*
G75*
G02X222220000Y12176000I0J254000D01*
G01*
X243750000Y29614000D02*
G75*
G02X244004000Y29868000I254000J0D01*
G01*
X243750000Y29614000D02*
X243750000Y12176000D01*
X244004000Y29868000D02*
X316440000Y29868000D01*
X222220000Y29640000D02*
X222220000Y12176000D01*
X221970000Y29896072D02*
G75*
G02X222220000Y29640000I0J-250072D01*
G01*
X332858000Y12176000D02*
G75*
G02X333154000Y11877993I0J-296007D01*
G01*
X316948000Y12176000D02*
G75*
G02X316694000Y12430000I0J254000D01*
G01*
X316948000Y12176000D02*
X332858000Y12176000D01*
X316694000Y29614000D02*
X316694000Y12430000D01*
X332100000Y-199400000D02*
X332950000Y-199400000D01*
X333150000Y-199200000D02*
X333154000Y-199100000D01*
X333154000Y-194500000D02*
X333154000Y-199100000D01*
X252700000Y-199400000D02*
X332100000Y-199400000D01*
X333154000Y11877993D02*
X333154000Y-194500000D01*
X0Y29646000D02*
X0Y346000D01*
X0Y-254000D02*
X0Y346000D01*
X316440000Y29868000D02*
G75*
G02X316694000Y29614000I0J-254000D01*
G01*
X0Y29646000D02*
G75*
G02X254000Y29900000I254000J0D01*
G01*
X254000Y-199390000D02*
G75*
G02X0Y-199136000I0J254000D01*
G01*
X333150000Y-199200000D02*
G75*
G02X332950000Y-199400000I-200000J0D01*
G01*
X252700000Y-199400000D02*
X254000Y-199390000D01*
X0Y-199136000D02*
X0Y-254000D01*
X254000Y29900000D02*
X221970000Y29896072D01*
M02*
