%TF.GenerationSoftware,KiCad,Pcbnew,(5.1.5)-3*%
%TF.CreationDate,2021-02-03T14:57:43-06:00*%
%TF.ProjectId,dragon64,64726167-6f6e-4363-942e-6b696361645f,rev?*%
%TF.SameCoordinates,Original*%
%TF.FileFunction,Soldermask,Top*%
%TF.FilePolarity,Negative*%
%FSLAX46Y46*%
G04 Gerber Fmt 4.6, Leading zero omitted, Abs format (unit mm)*
G04 Created by KiCad (PCBNEW (5.1.5)-3) date 2021-02-03 14:57:43*
%MOMM*%
%LPD*%
G04 APERTURE LIST*
%ADD10C,3.200000*%
%ADD11C,5.000000*%
%ADD12C,1.700000*%
%ADD13C,0.100000*%
%ADD14O,1.600000X1.600000*%
%ADD15C,1.600000*%
%ADD16O,1.700000X1.700000*%
%ADD17R,1.700000X1.700000*%
%ADD18O,3.300000X2.700000*%
%ADD19C,1.200000*%
%ADD20R,1.200000X1.200000*%
%ADD21C,1.440000*%
%ADD22R,1.600000X1.600000*%
%ADD23C,1.500000*%
%ADD24R,13.500000X11.000000*%
%ADD25C,1.300000*%
%ADD26R,2.286000X2.286000*%
%ADD27C,2.286000*%
%ADD28C,2.000000*%
%ADD29C,8.000000*%
%ADD30O,1.600000X2.300000*%
%ADD31C,2.700000*%
%ADD32R,20.500000X20.000000*%
%ADD33O,1.200000X1.200000*%
%ADD34O,1.200000X1.600000*%
G04 APERTURE END LIST*
D10*
%TO.C,H8*%
X327000000Y6000000D03*
%TD*%
%TO.C,H7*%
X235000000Y-90000000D03*
%TD*%
%TO.C,H6*%
X327000000Y-195000000D03*
%TD*%
%TO.C,H5*%
X4000000Y27000000D03*
%TD*%
%TO.C,H4*%
X327000000Y-90000000D03*
%TD*%
%TO.C,H3*%
X215000000Y27000000D03*
%TD*%
%TO.C,H2*%
X4000000Y-195000000D03*
%TD*%
%TO.C,H1*%
X4000000Y-90000000D03*
%TD*%
D11*
%TO.C,PL9*%
X312932500Y25616000D03*
X247527500Y25616000D03*
D12*
X304360000Y16980000D03*
X301820000Y16980000D03*
X299280000Y16980000D03*
X296740000Y16980000D03*
X294200000Y16980000D03*
X291660000Y16980000D03*
X289120000Y16980000D03*
X286580000Y16980000D03*
X284040000Y16980000D03*
X281500000Y16980000D03*
X278960000Y16980000D03*
X276420000Y16980000D03*
X273880000Y16980000D03*
X271340000Y16980000D03*
X268800000Y16980000D03*
X266260000Y16980000D03*
X263720000Y16980000D03*
X261180000Y16980000D03*
X258640000Y16980000D03*
X256100000Y16980000D03*
X304360000Y11900000D03*
X301820000Y11900000D03*
X299280000Y11900000D03*
X296740000Y11900000D03*
X294200000Y11900000D03*
X291660000Y11900000D03*
X289120000Y11900000D03*
X286580000Y11900000D03*
X284040000Y11900000D03*
X281500000Y11900000D03*
X278960000Y11900000D03*
X276420000Y11900000D03*
X273880000Y11900000D03*
X271340000Y11900000D03*
X268800000Y11900000D03*
X266260000Y11900000D03*
X263720000Y11900000D03*
X261180000Y11900000D03*
X258640000Y11900000D03*
D13*
G36*
X256724504Y12748796D02*
G01*
X256748773Y12745196D01*
X256772571Y12739235D01*
X256795671Y12730970D01*
X256817849Y12720480D01*
X256838893Y12707867D01*
X256858598Y12693253D01*
X256876777Y12676777D01*
X256893253Y12658598D01*
X256907867Y12638893D01*
X256920480Y12617849D01*
X256930970Y12595671D01*
X256939235Y12572571D01*
X256945196Y12548773D01*
X256948796Y12524504D01*
X256950000Y12500000D01*
X256950000Y11300000D01*
X256948796Y11275496D01*
X256945196Y11251227D01*
X256939235Y11227429D01*
X256930970Y11204329D01*
X256920480Y11182151D01*
X256907867Y11161107D01*
X256893253Y11141402D01*
X256876777Y11123223D01*
X256858598Y11106747D01*
X256838893Y11092133D01*
X256817849Y11079520D01*
X256795671Y11069030D01*
X256772571Y11060765D01*
X256748773Y11054804D01*
X256724504Y11051204D01*
X256700000Y11050000D01*
X255500000Y11050000D01*
X255475496Y11051204D01*
X255451227Y11054804D01*
X255427429Y11060765D01*
X255404329Y11069030D01*
X255382151Y11079520D01*
X255361107Y11092133D01*
X255341402Y11106747D01*
X255323223Y11123223D01*
X255306747Y11141402D01*
X255292133Y11161107D01*
X255279520Y11182151D01*
X255269030Y11204329D01*
X255260765Y11227429D01*
X255254804Y11251227D01*
X255251204Y11275496D01*
X255250000Y11300000D01*
X255250000Y12500000D01*
X255251204Y12524504D01*
X255254804Y12548773D01*
X255260765Y12572571D01*
X255269030Y12595671D01*
X255279520Y12617849D01*
X255292133Y12638893D01*
X255306747Y12658598D01*
X255323223Y12676777D01*
X255341402Y12693253D01*
X255361107Y12707867D01*
X255382151Y12720480D01*
X255404329Y12730970D01*
X255427429Y12739235D01*
X255451227Y12745196D01*
X255475496Y12748796D01*
X255500000Y12750000D01*
X256700000Y12750000D01*
X256724504Y12748796D01*
G37*
%TD*%
D14*
%TO.C,R85*%
X2600000Y-3100000D03*
D15*
X2600000Y-15292000D03*
%TD*%
D16*
%TO.C,PL6*%
X7080000Y-5500000D03*
X9620000Y-5500000D03*
X12160000Y-5500000D03*
X14700000Y-5500000D03*
X17240000Y-5500000D03*
X19780000Y-5500000D03*
X22320000Y-5500000D03*
X24860000Y-5500000D03*
D17*
X27400000Y-5500000D03*
%TD*%
D18*
%TO.C,J1*%
X324140000Y-41320000D03*
X324140000Y-45520000D03*
X324140000Y-49720000D03*
X324140000Y-53920000D03*
X324140000Y-58120000D03*
X324140000Y-62320000D03*
X324140000Y-66520000D03*
X324140000Y-70720000D03*
X324140000Y-74920000D03*
X324140000Y-79120000D03*
X318640000Y-41320000D03*
X318640000Y-45520000D03*
X318640000Y-49720000D03*
X318640000Y-53920000D03*
X318640000Y-58120000D03*
X318640000Y-62320000D03*
X318640000Y-66520000D03*
X318640000Y-70720000D03*
X318640000Y-74920000D03*
D13*
G36*
X320064503Y-77771204D02*
G01*
X320088772Y-77774804D01*
X320112570Y-77780765D01*
X320135670Y-77789030D01*
X320157849Y-77799520D01*
X320178892Y-77812133D01*
X320198598Y-77826748D01*
X320216776Y-77843224D01*
X320233252Y-77861402D01*
X320247867Y-77881108D01*
X320260480Y-77902151D01*
X320270970Y-77924330D01*
X320279235Y-77947430D01*
X320285196Y-77971228D01*
X320288796Y-77995497D01*
X320290000Y-78020001D01*
X320290000Y-80219999D01*
X320288796Y-80244503D01*
X320285196Y-80268772D01*
X320279235Y-80292570D01*
X320270970Y-80315670D01*
X320260480Y-80337849D01*
X320247867Y-80358892D01*
X320233252Y-80378598D01*
X320216776Y-80396776D01*
X320198598Y-80413252D01*
X320178892Y-80427867D01*
X320157849Y-80440480D01*
X320135670Y-80450970D01*
X320112570Y-80459235D01*
X320088772Y-80465196D01*
X320064503Y-80468796D01*
X320039999Y-80470000D01*
X317240001Y-80470000D01*
X317215497Y-80468796D01*
X317191228Y-80465196D01*
X317167430Y-80459235D01*
X317144330Y-80450970D01*
X317122151Y-80440480D01*
X317101108Y-80427867D01*
X317081402Y-80413252D01*
X317063224Y-80396776D01*
X317046748Y-80378598D01*
X317032133Y-80358892D01*
X317019520Y-80337849D01*
X317009030Y-80315670D01*
X317000765Y-80292570D01*
X316994804Y-80268772D01*
X316991204Y-80244503D01*
X316990000Y-80219999D01*
X316990000Y-78020001D01*
X316991204Y-77995497D01*
X316994804Y-77971228D01*
X317000765Y-77947430D01*
X317009030Y-77924330D01*
X317019520Y-77902151D01*
X317032133Y-77881108D01*
X317046748Y-77861402D01*
X317063224Y-77843224D01*
X317081402Y-77826748D01*
X317101108Y-77812133D01*
X317122151Y-77799520D01*
X317144330Y-77789030D01*
X317167430Y-77780765D01*
X317191228Y-77774804D01*
X317215497Y-77771204D01*
X317240001Y-77770000D01*
X320039999Y-77770000D01*
X320064503Y-77771204D01*
G37*
%TD*%
D19*
%TO.C,C33*%
X134600000Y-40900000D03*
D20*
X136600000Y-40900000D03*
%TD*%
D19*
%TO.C,C64*%
X230000000Y-107900000D03*
D20*
X232000000Y-107900000D03*
%TD*%
D19*
%TO.C,C63*%
X234800000Y-23400000D03*
D20*
X232800000Y-23400000D03*
%TD*%
D19*
%TO.C,C58*%
X186600000Y-187000000D03*
D20*
X188600000Y-187000000D03*
%TD*%
D19*
%TO.C,C55*%
X187500000Y-93100000D03*
D20*
X189500000Y-93100000D03*
%TD*%
D19*
%TO.C,C44*%
X155300000Y-40800000D03*
D20*
X157300000Y-40800000D03*
%TD*%
D19*
%TO.C,C26*%
X103100000Y-67900000D03*
D20*
X101100000Y-67900000D03*
%TD*%
D19*
%TO.C,C25*%
X113800000Y-30000000D03*
D20*
X111800000Y-30000000D03*
%TD*%
D19*
%TO.C,C24*%
X113600000Y-17200000D03*
D20*
X111600000Y-17200000D03*
%TD*%
D19*
%TO.C,C23*%
X76500000Y-51400000D03*
D20*
X78500000Y-51400000D03*
%TD*%
D19*
%TO.C,C20*%
X71300000Y-18600000D03*
D20*
X73300000Y-18600000D03*
%TD*%
D19*
%TO.C,C19*%
X73600000Y-179500000D03*
D20*
X75600000Y-179500000D03*
%TD*%
D21*
%TO.C,VR1*%
X164500000Y-21600000D03*
X161960000Y-24140000D03*
X159420000Y-21600000D03*
%TD*%
D14*
%TO.C,IC3*%
X50620000Y-64000000D03*
X43000000Y-79240000D03*
X50620000Y-66540000D03*
X43000000Y-76700000D03*
X50620000Y-69080000D03*
X43000000Y-74160000D03*
X50620000Y-71620000D03*
X43000000Y-71620000D03*
X50620000Y-74160000D03*
X43000000Y-69080000D03*
X50620000Y-76700000D03*
X43000000Y-66540000D03*
X50620000Y-79240000D03*
D22*
X43000000Y-64000000D03*
%TD*%
D14*
%TO.C,IC29*%
X180086000Y-52578000D03*
X172466000Y-70358000D03*
X180086000Y-55118000D03*
X172466000Y-67818000D03*
X180086000Y-57658000D03*
X172466000Y-65278000D03*
X180086000Y-60198000D03*
X172466000Y-62738000D03*
X180086000Y-62738000D03*
X172466000Y-60198000D03*
X180086000Y-65278000D03*
X172466000Y-57658000D03*
X180086000Y-67818000D03*
X172466000Y-55118000D03*
X180086000Y-70358000D03*
D22*
X172466000Y-52578000D03*
%TD*%
D14*
%TO.C,IC9*%
X114300000Y-55118000D03*
X106680000Y-70358000D03*
X114300000Y-57658000D03*
X106680000Y-67818000D03*
X114300000Y-60198000D03*
X106680000Y-65278000D03*
X114300000Y-62738000D03*
X106680000Y-62738000D03*
X114300000Y-65278000D03*
X106680000Y-60198000D03*
X114300000Y-67818000D03*
X106680000Y-57658000D03*
X114300000Y-70358000D03*
D22*
X106680000Y-55118000D03*
%TD*%
D11*
%TO.C,PL7*%
X312832500Y-3584000D03*
X247427500Y-3584000D03*
D12*
X304260000Y-12220000D03*
X301720000Y-12220000D03*
X299180000Y-12220000D03*
X296640000Y-12220000D03*
X294100000Y-12220000D03*
X291560000Y-12220000D03*
X289020000Y-12220000D03*
X286480000Y-12220000D03*
X283940000Y-12220000D03*
X281400000Y-12220000D03*
X278860000Y-12220000D03*
X276320000Y-12220000D03*
X273780000Y-12220000D03*
X271240000Y-12220000D03*
X268700000Y-12220000D03*
X266160000Y-12220000D03*
X263620000Y-12220000D03*
X261080000Y-12220000D03*
X258540000Y-12220000D03*
X256000000Y-12220000D03*
X304260000Y-17300000D03*
X301720000Y-17300000D03*
X299180000Y-17300000D03*
X296640000Y-17300000D03*
X294100000Y-17300000D03*
X291560000Y-17300000D03*
X289020000Y-17300000D03*
X286480000Y-17300000D03*
X283940000Y-17300000D03*
X281400000Y-17300000D03*
X278860000Y-17300000D03*
X276320000Y-17300000D03*
X273780000Y-17300000D03*
X271240000Y-17300000D03*
X268700000Y-17300000D03*
X266160000Y-17300000D03*
X263620000Y-17300000D03*
X261080000Y-17300000D03*
X258540000Y-17300000D03*
D13*
G36*
X256624504Y-16451204D02*
G01*
X256648773Y-16454804D01*
X256672571Y-16460765D01*
X256695671Y-16469030D01*
X256717849Y-16479520D01*
X256738893Y-16492133D01*
X256758598Y-16506747D01*
X256776777Y-16523223D01*
X256793253Y-16541402D01*
X256807867Y-16561107D01*
X256820480Y-16582151D01*
X256830970Y-16604329D01*
X256839235Y-16627429D01*
X256845196Y-16651227D01*
X256848796Y-16675496D01*
X256850000Y-16700000D01*
X256850000Y-17900000D01*
X256848796Y-17924504D01*
X256845196Y-17948773D01*
X256839235Y-17972571D01*
X256830970Y-17995671D01*
X256820480Y-18017849D01*
X256807867Y-18038893D01*
X256793253Y-18058598D01*
X256776777Y-18076777D01*
X256758598Y-18093253D01*
X256738893Y-18107867D01*
X256717849Y-18120480D01*
X256695671Y-18130970D01*
X256672571Y-18139235D01*
X256648773Y-18145196D01*
X256624504Y-18148796D01*
X256600000Y-18150000D01*
X255400000Y-18150000D01*
X255375496Y-18148796D01*
X255351227Y-18145196D01*
X255327429Y-18139235D01*
X255304329Y-18130970D01*
X255282151Y-18120480D01*
X255261107Y-18107867D01*
X255241402Y-18093253D01*
X255223223Y-18076777D01*
X255206747Y-18058598D01*
X255192133Y-18038893D01*
X255179520Y-18017849D01*
X255169030Y-17995671D01*
X255160765Y-17972571D01*
X255154804Y-17948773D01*
X255151204Y-17924504D01*
X255150000Y-17900000D01*
X255150000Y-16700000D01*
X255151204Y-16675496D01*
X255154804Y-16651227D01*
X255160765Y-16627429D01*
X255169030Y-16604329D01*
X255179520Y-16582151D01*
X255192133Y-16561107D01*
X255206747Y-16541402D01*
X255223223Y-16523223D01*
X255241402Y-16506747D01*
X255261107Y-16492133D01*
X255282151Y-16479520D01*
X255304329Y-16469030D01*
X255327429Y-16460765D01*
X255351227Y-16454804D01*
X255375496Y-16451204D01*
X255400000Y-16450000D01*
X256600000Y-16450000D01*
X256624504Y-16451204D01*
G37*
%TD*%
D14*
%TO.C,IC39*%
X221996000Y-113030000D03*
X206756000Y-161290000D03*
X221996000Y-115570000D03*
X206756000Y-158750000D03*
X221996000Y-118110000D03*
X206756000Y-156210000D03*
X221996000Y-120650000D03*
X206756000Y-153670000D03*
X221996000Y-123190000D03*
X206756000Y-151130000D03*
X221996000Y-125730000D03*
X206756000Y-148590000D03*
X221996000Y-128270000D03*
X206756000Y-146050000D03*
X221996000Y-130810000D03*
X206756000Y-143510000D03*
X221996000Y-133350000D03*
X206756000Y-140970000D03*
X221996000Y-135890000D03*
X206756000Y-138430000D03*
X221996000Y-138430000D03*
X206756000Y-135890000D03*
X221996000Y-140970000D03*
X206756000Y-133350000D03*
X221996000Y-143510000D03*
X206756000Y-130810000D03*
X221996000Y-146050000D03*
X206756000Y-128270000D03*
X221996000Y-148590000D03*
X206756000Y-125730000D03*
X221996000Y-151130000D03*
X206756000Y-123190000D03*
X221996000Y-153670000D03*
X206756000Y-120650000D03*
X221996000Y-156210000D03*
X206756000Y-118110000D03*
X221996000Y-158750000D03*
X206756000Y-115570000D03*
X221996000Y-161290000D03*
D22*
X206756000Y-113030000D03*
%TD*%
D14*
%TO.C,R84*%
X231267000Y-135636000D03*
D15*
X231267000Y-147828000D03*
%TD*%
D14*
%TO.C,IC37*%
X221996000Y-10668000D03*
X206756000Y-43688000D03*
X221996000Y-13208000D03*
X206756000Y-41148000D03*
X221996000Y-15748000D03*
X206756000Y-38608000D03*
X221996000Y-18288000D03*
X206756000Y-36068000D03*
X221996000Y-20828000D03*
X206756000Y-33528000D03*
X221996000Y-23368000D03*
X206756000Y-30988000D03*
X221996000Y-25908000D03*
X206756000Y-28448000D03*
X221996000Y-28448000D03*
X206756000Y-25908000D03*
X221996000Y-30988000D03*
X206756000Y-23368000D03*
X221996000Y-33528000D03*
X206756000Y-20828000D03*
X221996000Y-36068000D03*
X206756000Y-18288000D03*
X221996000Y-38608000D03*
X206756000Y-15748000D03*
X221996000Y-41148000D03*
X206756000Y-13208000D03*
X221996000Y-43688000D03*
D22*
X206756000Y-10668000D03*
%TD*%
D14*
%TO.C,IC38*%
X221996000Y-52578000D03*
X206756000Y-100838000D03*
X221996000Y-55118000D03*
X206756000Y-98298000D03*
X221996000Y-57658000D03*
X206756000Y-95758000D03*
X221996000Y-60198000D03*
X206756000Y-93218000D03*
X221996000Y-62738000D03*
X206756000Y-90678000D03*
X221996000Y-65278000D03*
X206756000Y-88138000D03*
X221996000Y-67818000D03*
X206756000Y-85598000D03*
X221996000Y-70358000D03*
X206756000Y-83058000D03*
X221996000Y-72898000D03*
X206756000Y-80518000D03*
X221996000Y-75438000D03*
X206756000Y-77978000D03*
X221996000Y-77978000D03*
X206756000Y-75438000D03*
X221996000Y-80518000D03*
X206756000Y-72898000D03*
X221996000Y-83058000D03*
X206756000Y-70358000D03*
X221996000Y-85598000D03*
X206756000Y-67818000D03*
X221996000Y-88138000D03*
X206756000Y-65278000D03*
X221996000Y-90678000D03*
X206756000Y-62738000D03*
X221996000Y-93218000D03*
X206756000Y-60198000D03*
X221996000Y-95758000D03*
X206756000Y-57658000D03*
X221996000Y-98298000D03*
X206756000Y-55118000D03*
X221996000Y-100838000D03*
D22*
X206756000Y-52578000D03*
%TD*%
D14*
%TO.C,IC34*%
X198120000Y-10668000D03*
X182880000Y-43688000D03*
X198120000Y-13208000D03*
X182880000Y-41148000D03*
X198120000Y-15748000D03*
X182880000Y-38608000D03*
X198120000Y-18288000D03*
X182880000Y-36068000D03*
X198120000Y-20828000D03*
X182880000Y-33528000D03*
X198120000Y-23368000D03*
X182880000Y-30988000D03*
X198120000Y-25908000D03*
X182880000Y-28448000D03*
X198120000Y-28448000D03*
X182880000Y-25908000D03*
X198120000Y-30988000D03*
X182880000Y-23368000D03*
X198120000Y-33528000D03*
X182880000Y-20828000D03*
X198120000Y-36068000D03*
X182880000Y-18288000D03*
X198120000Y-38608000D03*
X182880000Y-15748000D03*
X198120000Y-41148000D03*
X182880000Y-13208000D03*
X198120000Y-43688000D03*
D22*
X182880000Y-10668000D03*
%TD*%
D15*
%TO.C,C59*%
X216836000Y-5334000D03*
X211836000Y-5334000D03*
%TD*%
D23*
%TO.C,XL3*%
X233680000Y-144600000D03*
X233680000Y-139700000D03*
D24*
X242930000Y-142150000D03*
D20*
X242930000Y-148050000D03*
X242930000Y-136250000D03*
%TD*%
D25*
%TO.C,REG1*%
X112776000Y-24892000D03*
X112776000Y-22352000D03*
X111506000Y-23622000D03*
%TD*%
D26*
%TO.C,PL8*%
X98390000Y25710000D03*
X93390000Y25710000D03*
D27*
X103390000Y10810000D03*
X88390000Y10810000D03*
X95890000Y15810000D03*
X88390000Y15810000D03*
X103390000Y15810000D03*
X90890000Y13310000D03*
X100890000Y13310000D03*
D26*
X90890000Y25710000D03*
X100890000Y25710000D03*
%TD*%
D23*
%TO.C,XL2*%
X138176000Y-15568000D03*
X138176000Y-10668000D03*
D24*
X147426000Y-13118000D03*
D20*
X147426000Y-19018000D03*
X147426000Y-7218000D03*
%TD*%
D14*
%TO.C,IC26*%
X164846000Y-143510000D03*
X157226000Y-161290000D03*
X164846000Y-146050000D03*
X157226000Y-158750000D03*
X164846000Y-148590000D03*
X157226000Y-156210000D03*
X164846000Y-151130000D03*
X157226000Y-153670000D03*
X164846000Y-153670000D03*
X157226000Y-151130000D03*
X164846000Y-156210000D03*
X157226000Y-148590000D03*
X164846000Y-158750000D03*
X157226000Y-146050000D03*
X164846000Y-161290000D03*
D22*
X157226000Y-143510000D03*
%TD*%
D15*
%TO.C,C38*%
X128016000Y-112014000D03*
X133016000Y-112014000D03*
%TD*%
D28*
%TO.C,C32*%
X128306100Y-39624000D03*
X124714000Y-36031900D03*
X121121900Y-39624000D03*
%TD*%
D13*
%TO.C,PL2*%
G36*
X48159504Y13542796D02*
G01*
X48183773Y13539196D01*
X48207571Y13533235D01*
X48230671Y13524970D01*
X48252849Y13514480D01*
X48273893Y13501867D01*
X48293598Y13487253D01*
X48311777Y13470777D01*
X48328253Y13452598D01*
X48342867Y13432893D01*
X48355480Y13411849D01*
X48365970Y13389671D01*
X48374235Y13366571D01*
X48380196Y13342773D01*
X48383796Y13318504D01*
X48385000Y13294000D01*
X48385000Y12094000D01*
X48383796Y12069496D01*
X48380196Y12045227D01*
X48374235Y12021429D01*
X48365970Y11998329D01*
X48355480Y11976151D01*
X48342867Y11955107D01*
X48328253Y11935402D01*
X48311777Y11917223D01*
X48293598Y11900747D01*
X48273893Y11886133D01*
X48252849Y11873520D01*
X48230671Y11863030D01*
X48207571Y11854765D01*
X48183773Y11848804D01*
X48159504Y11845204D01*
X48135000Y11844000D01*
X46935000Y11844000D01*
X46910496Y11845204D01*
X46886227Y11848804D01*
X46862429Y11854765D01*
X46839329Y11863030D01*
X46817151Y11873520D01*
X46796107Y11886133D01*
X46776402Y11900747D01*
X46758223Y11917223D01*
X46741747Y11935402D01*
X46727133Y11955107D01*
X46714520Y11976151D01*
X46704030Y11998329D01*
X46695765Y12021429D01*
X46689804Y12045227D01*
X46686204Y12069496D01*
X46685000Y12094000D01*
X46685000Y13294000D01*
X46686204Y13318504D01*
X46689804Y13342773D01*
X46695765Y13366571D01*
X46704030Y13389671D01*
X46714520Y13411849D01*
X46727133Y13432893D01*
X46741747Y13452598D01*
X46758223Y13470777D01*
X46776402Y13487253D01*
X46796107Y13501867D01*
X46817151Y13514480D01*
X46839329Y13524970D01*
X46862429Y13533235D01*
X46886227Y13539196D01*
X46910496Y13542796D01*
X46935000Y13544000D01*
X48135000Y13544000D01*
X48159504Y13542796D01*
G37*
D12*
X50075000Y12694000D03*
X52615000Y12694000D03*
X55155000Y12694000D03*
X57695000Y12694000D03*
X60235000Y12694000D03*
X62775000Y12694000D03*
X65315000Y12694000D03*
X67855000Y12694000D03*
X70395000Y12694000D03*
X47535000Y15234000D03*
X50075000Y15234000D03*
X52615000Y15234000D03*
X55155000Y15234000D03*
X57695000Y15234000D03*
X60235000Y15234000D03*
X62775000Y15234000D03*
X65315000Y15234000D03*
X67855000Y15234000D03*
X70395000Y15234000D03*
D29*
X41630000Y14494000D03*
X76300000Y14494000D03*
%TD*%
D14*
%TO.C,L4*%
X36830000Y-84582000D03*
D15*
X21590000Y-84582000D03*
%TD*%
D14*
%TO.C,L3*%
X56896000Y-23114000D03*
D15*
X41656000Y-23114000D03*
%TD*%
D14*
%TO.C,L2*%
X36322000Y-56134000D03*
D15*
X21082000Y-56134000D03*
%TD*%
D14*
%TO.C,L1*%
X36830000Y-23876000D03*
D15*
X21590000Y-23876000D03*
%TD*%
D25*
%TO.C,TR4*%
X97282000Y-38608000D03*
X97282000Y-36068000D03*
X96012000Y-37338000D03*
%TD*%
D30*
%TO.C,RLA1*%
X38100000Y-41656000D03*
X38100000Y-34036000D03*
X35560000Y-41656000D03*
X25400000Y-41656000D03*
X35560000Y-34036000D03*
X25400000Y-34036000D03*
%TD*%
D15*
%TO.C,C69*%
X49276000Y-83566000D03*
X44276000Y-83566000D03*
%TD*%
%TO.C,C68*%
X50800000Y-19050000D03*
X45800000Y-19050000D03*
%TD*%
D26*
%TO.C,PL4*%
X119590000Y25710000D03*
X114690000Y25710000D03*
D27*
X112090000Y13310000D03*
X109590000Y15810000D03*
X124590000Y15810000D03*
D26*
X112090000Y25710000D03*
D27*
X117090000Y15810000D03*
D26*
X122090000Y25710000D03*
D27*
X122090000Y13310000D03*
%TD*%
D26*
%TO.C,PL3*%
X3446000Y-107558000D03*
X3446000Y-112558000D03*
D27*
X15846000Y-115058000D03*
X13346000Y-117558000D03*
X13346000Y-102558000D03*
X18346000Y-110058000D03*
D26*
X3446000Y-115058000D03*
D27*
X13346000Y-110058000D03*
D26*
X3446000Y-105058000D03*
D27*
X15846000Y-105058000D03*
%TD*%
D26*
%TO.C,PL5*%
X3446000Y-67426000D03*
X3446000Y-72426000D03*
D27*
X15846000Y-74926000D03*
X13346000Y-77426000D03*
X13346000Y-62426000D03*
X18346000Y-69926000D03*
D26*
X3446000Y-74926000D03*
D27*
X13346000Y-69926000D03*
D26*
X3446000Y-64926000D03*
D27*
X15846000Y-64926000D03*
%TD*%
D14*
%TO.C,R83*%
X199390000Y-162560000D03*
D15*
X187198000Y-162560000D03*
%TD*%
D14*
%TO.C,R82*%
X199390000Y-160020000D03*
D15*
X187198000Y-160020000D03*
%TD*%
D14*
%TO.C,R81*%
X199390000Y-157480000D03*
D15*
X187198000Y-157480000D03*
%TD*%
D14*
%TO.C,R80*%
X199390000Y-154940000D03*
D15*
X187198000Y-154940000D03*
%TD*%
D14*
%TO.C,R79*%
X199390000Y-152400000D03*
D15*
X187198000Y-152400000D03*
%TD*%
D14*
%TO.C,R78*%
X199390000Y-149860000D03*
D15*
X187198000Y-149860000D03*
%TD*%
D14*
%TO.C,R77*%
X199390000Y-147320000D03*
D15*
X187198000Y-147320000D03*
%TD*%
D14*
%TO.C,R76*%
X199390000Y-144780000D03*
D15*
X187198000Y-144780000D03*
%TD*%
D14*
%TO.C,R75*%
X199390000Y-142240000D03*
D15*
X187198000Y-142240000D03*
%TD*%
D14*
%TO.C,R74*%
X199390000Y-139700000D03*
D15*
X187198000Y-139700000D03*
%TD*%
D14*
%TO.C,R73*%
X199390000Y-137160000D03*
D15*
X187198000Y-137160000D03*
%TD*%
D14*
%TO.C,R72*%
X185928000Y-85598000D03*
D15*
X198120000Y-85598000D03*
%TD*%
D14*
%TO.C,R71*%
X185928000Y-83058000D03*
D15*
X198120000Y-83058000D03*
%TD*%
D14*
%TO.C,R70*%
X185928000Y-80518000D03*
D15*
X198120000Y-80518000D03*
%TD*%
D14*
%TO.C,R69*%
X198120000Y-72898000D03*
D15*
X185928000Y-72898000D03*
%TD*%
D14*
%TO.C,R68*%
X198120000Y-70358000D03*
D15*
X185928000Y-70358000D03*
%TD*%
D14*
%TO.C,R67*%
X198120000Y-67818000D03*
D15*
X185928000Y-67818000D03*
%TD*%
D14*
%TO.C,R66*%
X198120000Y-65278000D03*
D15*
X185928000Y-65278000D03*
%TD*%
D14*
%TO.C,R65*%
X185928000Y-60198000D03*
D15*
X198120000Y-60198000D03*
%TD*%
D14*
%TO.C,R64*%
X185928000Y-57658000D03*
D15*
X198120000Y-57658000D03*
%TD*%
D14*
%TO.C,R63*%
X185928000Y-55118000D03*
D15*
X198120000Y-55118000D03*
%TD*%
D14*
%TO.C,R62*%
X185928000Y-52578000D03*
D15*
X198120000Y-52578000D03*
%TD*%
%TO.C,R61*%
X198120000Y-50038000D03*
D14*
X185928000Y-50038000D03*
%TD*%
%TO.C,R60*%
X162814000Y-42672000D03*
D15*
X175006000Y-42672000D03*
%TD*%
D14*
%TO.C,R59*%
X162814000Y-40132000D03*
D15*
X175006000Y-40132000D03*
%TD*%
D14*
%TO.C,R58*%
X162814000Y-37592000D03*
D15*
X175006000Y-37592000D03*
%TD*%
D14*
%TO.C,R57*%
X175006000Y-35052000D03*
D15*
X162814000Y-35052000D03*
%TD*%
D14*
%TO.C,R56*%
X175006000Y-32512000D03*
D15*
X162814000Y-32512000D03*
%TD*%
D14*
%TO.C,R55*%
X162814000Y-29972000D03*
D15*
X175006000Y-29972000D03*
%TD*%
D14*
%TO.C,R54*%
X175006000Y-27432000D03*
D15*
X162814000Y-27432000D03*
%TD*%
D14*
%TO.C,R53*%
X123444000Y-30734000D03*
D15*
X135636000Y-30734000D03*
%TD*%
D14*
%TO.C,R52*%
X123444000Y-28194000D03*
D15*
X135636000Y-28194000D03*
%TD*%
D14*
%TO.C,R51*%
X123444000Y-25654000D03*
D15*
X135636000Y-25654000D03*
%TD*%
D14*
%TO.C,R50*%
X123444000Y-23114000D03*
D15*
X135636000Y-23114000D03*
%TD*%
D14*
%TO.C,R49*%
X78994000Y-41148000D03*
D15*
X91186000Y-41148000D03*
%TD*%
D14*
%TO.C,R48*%
X78994000Y-38608000D03*
D15*
X91186000Y-38608000D03*
%TD*%
D14*
%TO.C,R47*%
X78994000Y-36068000D03*
D15*
X91186000Y-36068000D03*
%TD*%
D14*
%TO.C,R46*%
X78994000Y-33528000D03*
D15*
X91186000Y-33528000D03*
%TD*%
D14*
%TO.C,R45*%
X78994000Y-30988000D03*
D15*
X91186000Y-30988000D03*
%TD*%
D14*
%TO.C,R44*%
X78994000Y-25908000D03*
D15*
X91186000Y-25908000D03*
%TD*%
D14*
%TO.C,R43*%
X78994000Y-23368000D03*
D15*
X91186000Y-23368000D03*
%TD*%
D14*
%TO.C,R42*%
X78994000Y-20828000D03*
D15*
X91186000Y-20828000D03*
%TD*%
D14*
%TO.C,R41*%
X78994000Y-15748000D03*
D15*
X91186000Y-15748000D03*
%TD*%
D14*
%TO.C,R40*%
X58674000Y-109982000D03*
D15*
X70866000Y-109982000D03*
%TD*%
D14*
%TO.C,R39*%
X70866000Y-107442000D03*
D15*
X58674000Y-107442000D03*
%TD*%
D14*
%TO.C,R38*%
X70866000Y-104902000D03*
D15*
X58674000Y-104902000D03*
%TD*%
D14*
%TO.C,R37*%
X70866000Y-102362000D03*
D15*
X58674000Y-102362000D03*
%TD*%
D14*
%TO.C,R36*%
X70866000Y-99822000D03*
D15*
X58674000Y-99822000D03*
%TD*%
D14*
%TO.C,R35*%
X70866000Y-97282000D03*
D15*
X58674000Y-97282000D03*
%TD*%
D14*
%TO.C,R34*%
X70866000Y-94742000D03*
D15*
X58674000Y-94742000D03*
%TD*%
D14*
%TO.C,R33*%
X70866000Y-92202000D03*
D15*
X58674000Y-92202000D03*
%TD*%
D14*
%TO.C,R32*%
X58674000Y-89662000D03*
D15*
X70866000Y-89662000D03*
%TD*%
D14*
%TO.C,R31*%
X58674000Y-72898000D03*
D15*
X70866000Y-72898000D03*
%TD*%
D14*
%TO.C,R30*%
X58674000Y-67818000D03*
D15*
X70866000Y-67818000D03*
%TD*%
D14*
%TO.C,R29*%
X58674000Y-62738000D03*
D15*
X70866000Y-62738000D03*
%TD*%
D14*
%TO.C,R28*%
X70866000Y-60198000D03*
D15*
X58674000Y-60198000D03*
%TD*%
D14*
%TO.C,R27*%
X70866000Y-57658000D03*
D15*
X58674000Y-57658000D03*
%TD*%
D14*
%TO.C,R26*%
X58674000Y-55118000D03*
D15*
X70866000Y-55118000D03*
%TD*%
D14*
%TO.C,R25*%
X70866000Y-52578000D03*
D15*
X58674000Y-52578000D03*
%TD*%
D14*
%TO.C,R24*%
X70866000Y-47498000D03*
D15*
X58674000Y-47498000D03*
%TD*%
D14*
%TO.C,R23*%
X58674000Y-42418000D03*
D15*
X70866000Y-42418000D03*
%TD*%
D14*
%TO.C,R22*%
X58674000Y-39878000D03*
D15*
X70866000Y-39878000D03*
%TD*%
D14*
%TO.C,R21*%
X70866000Y-37338000D03*
D15*
X58674000Y-37338000D03*
%TD*%
D14*
%TO.C,R20*%
X70866000Y-34798000D03*
D15*
X58674000Y-34798000D03*
%TD*%
D14*
%TO.C,R19*%
X58674000Y-32258000D03*
D15*
X70866000Y-32258000D03*
%TD*%
D14*
%TO.C,R18*%
X70866000Y-27178000D03*
D15*
X58674000Y-27178000D03*
%TD*%
D14*
%TO.C,R17*%
X39624000Y-3048000D03*
D15*
X51816000Y-3048000D03*
%TD*%
D14*
%TO.C,R16*%
X24130000Y-114300000D03*
D15*
X36322000Y-114300000D03*
%TD*%
D14*
%TO.C,R15*%
X24130000Y-111760000D03*
D15*
X36322000Y-111760000D03*
%TD*%
D14*
%TO.C,R14*%
X24130000Y-109220000D03*
D15*
X36322000Y-109220000D03*
%TD*%
D14*
%TO.C,R13*%
X24130000Y-106680000D03*
D15*
X36322000Y-106680000D03*
%TD*%
D14*
%TO.C,R12*%
X24130000Y-99060000D03*
D15*
X36322000Y-99060000D03*
%TD*%
D14*
%TO.C,R11*%
X24130000Y-96520000D03*
D15*
X36322000Y-96520000D03*
%TD*%
D14*
%TO.C,R10*%
X24130000Y-93980000D03*
D15*
X36322000Y-93980000D03*
%TD*%
D14*
%TO.C,R9*%
X24130000Y-91440000D03*
D15*
X36322000Y-91440000D03*
%TD*%
D14*
%TO.C,R8*%
X24130000Y-80518000D03*
D15*
X36322000Y-80518000D03*
%TD*%
D14*
%TO.C,R7*%
X24130000Y-77978000D03*
D15*
X36322000Y-77978000D03*
%TD*%
D14*
%TO.C,R6*%
X24130000Y-72898000D03*
D15*
X36322000Y-72898000D03*
%TD*%
D14*
%TO.C,R5*%
X24130000Y-67818000D03*
D15*
X36322000Y-67818000D03*
%TD*%
D14*
%TO.C,R4*%
X36322000Y-65278000D03*
D15*
X24130000Y-65278000D03*
%TD*%
D14*
%TO.C,R3*%
X24130000Y-62738000D03*
D15*
X36322000Y-62738000D03*
%TD*%
D14*
%TO.C,R2*%
X27686000Y-27432000D03*
D15*
X39878000Y-27432000D03*
%TD*%
D14*
%TO.C,R1*%
X29464000Y-16256000D03*
D15*
X17272000Y-16256000D03*
%TD*%
%TO.C,D22*%
X163068000Y-5080000D03*
X175260000Y-5080000D03*
%TD*%
%TO.C,D21*%
X180594000Y-5080000D03*
X192786000Y-5080000D03*
%TD*%
%TO.C,D20*%
X185928000Y-77978000D03*
X198120000Y-77978000D03*
%TD*%
%TO.C,D19*%
X185928000Y-75438000D03*
X198120000Y-75438000D03*
%TD*%
%TO.C,D18*%
X185928000Y-62738000D03*
X198120000Y-62738000D03*
%TD*%
%TO.C,D17*%
X58674000Y-75438000D03*
X70866000Y-75438000D03*
%TD*%
%TO.C,D16*%
X58674000Y-70358000D03*
X70866000Y-70358000D03*
%TD*%
%TO.C,D15*%
X58674000Y-65278000D03*
X70866000Y-65278000D03*
%TD*%
%TO.C,D14*%
X58674000Y-50038000D03*
X70866000Y-50038000D03*
%TD*%
%TO.C,D13*%
X58674000Y-44958000D03*
X70866000Y-44958000D03*
%TD*%
%TO.C,D12*%
X58674000Y-29718000D03*
X70866000Y-29718000D03*
%TD*%
%TO.C,D11*%
X39624000Y-11430000D03*
X51816000Y-11430000D03*
%TD*%
%TO.C,D10*%
X39624000Y-8128000D03*
X51816000Y-8128000D03*
%TD*%
%TO.C,D9*%
X39624000Y-5588000D03*
X51816000Y-5588000D03*
%TD*%
%TO.C,D8*%
X24130000Y-104140000D03*
X36322000Y-104140000D03*
%TD*%
%TO.C,D7*%
X24130000Y-101600000D03*
X36322000Y-101600000D03*
%TD*%
%TO.C,D6*%
X24130000Y-88900000D03*
X36322000Y-88900000D03*
%TD*%
%TO.C,D5*%
X24130000Y-75438000D03*
X36322000Y-75438000D03*
%TD*%
%TO.C,D4*%
X24130000Y-70358000D03*
X36322000Y-70358000D03*
%TD*%
%TO.C,D3*%
X25146000Y-48260000D03*
X37338000Y-48260000D03*
%TD*%
%TO.C,D2*%
X25146000Y-45212000D03*
X37338000Y-45212000D03*
%TD*%
%TO.C,D1*%
X27686000Y-29972000D03*
X39878000Y-29972000D03*
%TD*%
%TO.C,C67*%
X225806000Y-139780000D03*
X225806000Y-144780000D03*
%TD*%
%TO.C,C48*%
X168910000Y-22352000D03*
X173910000Y-22352000D03*
%TD*%
%TO.C,C50*%
X173736000Y-47498000D03*
X178736000Y-47498000D03*
%TD*%
%TO.C,C35*%
X133096000Y-101854000D03*
X128096000Y-101854000D03*
%TD*%
%TO.C,C5*%
X32512000Y-51816000D03*
X37512000Y-51816000D03*
%TD*%
%TO.C,C2*%
X29718000Y-20320000D03*
X34718000Y-20320000D03*
%TD*%
%TO.C,C4*%
X21924000Y-51816000D03*
X26924000Y-51816000D03*
%TD*%
%TO.C,C16*%
X64770000Y-86360000D03*
X69770000Y-86360000D03*
%TD*%
%TO.C,C15*%
X64770000Y-83820000D03*
X69770000Y-83820000D03*
%TD*%
%TO.C,C14*%
X64770000Y-81280000D03*
X69770000Y-81280000D03*
%TD*%
%TO.C,C13*%
X64770000Y-78740000D03*
X69770000Y-78740000D03*
%TD*%
%TO.C,C60*%
X211963000Y-48514000D03*
X216963000Y-48514000D03*
%TD*%
%TO.C,C61*%
X211963000Y-107950000D03*
X216963000Y-107950000D03*
%TD*%
%TO.C,C53*%
X173736000Y-166624000D03*
X178736000Y-166624000D03*
%TD*%
%TO.C,C52*%
X173736000Y-138430000D03*
X178736000Y-138430000D03*
%TD*%
%TO.C,C47*%
X158496000Y-166624000D03*
X163496000Y-166624000D03*
%TD*%
%TO.C,C46*%
X158496000Y-138430000D03*
X163496000Y-138430000D03*
%TD*%
%TO.C,C43*%
X143256000Y-166624000D03*
X148256000Y-166624000D03*
%TD*%
%TO.C,C42*%
X143256000Y-138430000D03*
X148256000Y-138430000D03*
%TD*%
%TO.C,C40*%
X128016000Y-166624000D03*
X133016000Y-166624000D03*
%TD*%
%TO.C,C39*%
X128016000Y-138430000D03*
X133016000Y-138430000D03*
%TD*%
%TO.C,C29*%
X124460000Y-15494000D03*
X129460000Y-15494000D03*
%TD*%
%TO.C,C10*%
X49530000Y-52832000D03*
X49530000Y-57832000D03*
%TD*%
%TO.C,C9*%
X43942000Y-57912000D03*
X43942000Y-52912000D03*
%TD*%
%TO.C,C8*%
X45720000Y-14986000D03*
X50720000Y-14986000D03*
%TD*%
%TO.C,C66*%
X228346000Y-144780000D03*
X228346000Y-149780000D03*
%TD*%
%TO.C,C65*%
X228346000Y-139700000D03*
X228346000Y-134700000D03*
%TD*%
%TO.C,C62*%
X219710000Y-166624000D03*
X214710000Y-166624000D03*
%TD*%
%TO.C,C57*%
X203200000Y-169164000D03*
X198200000Y-169164000D03*
%TD*%
%TO.C,C56*%
X194564000Y-112014000D03*
X189564000Y-112014000D03*
%TD*%
%TO.C,C54*%
X192024000Y-88138000D03*
X187024000Y-88138000D03*
%TD*%
%TO.C,C51*%
X173736000Y-76708000D03*
X178736000Y-76708000D03*
%TD*%
%TO.C,C49*%
X168910000Y-24892000D03*
X173910000Y-24892000D03*
%TD*%
%TO.C,C45*%
X158496000Y-47498000D03*
X163496000Y-47498000D03*
%TD*%
%TO.C,C41*%
X143256000Y-76708000D03*
X148256000Y-76708000D03*
%TD*%
%TO.C,C37*%
X133096000Y-106934000D03*
X128096000Y-106934000D03*
%TD*%
%TO.C,C36*%
X133096000Y-104394000D03*
X128096000Y-104394000D03*
%TD*%
%TO.C,C34*%
X128016000Y-76708000D03*
X133016000Y-76708000D03*
%TD*%
%TO.C,C31*%
X124460000Y-20574000D03*
X129460000Y-20574000D03*
%TD*%
%TO.C,C30*%
X124460000Y-18034000D03*
X129460000Y-18034000D03*
%TD*%
%TO.C,C28*%
X120396000Y-188468000D03*
X120396000Y-183468000D03*
%TD*%
%TO.C,C27*%
X109474000Y-129032000D03*
X104474000Y-129032000D03*
%TD*%
%TO.C,C22*%
X80010000Y-28448000D03*
X85010000Y-28448000D03*
%TD*%
%TO.C,C21*%
X85090000Y-18288000D03*
X90090000Y-18288000D03*
%TD*%
%TO.C,C18*%
X72390000Y-174498000D03*
X77390000Y-174498000D03*
%TD*%
%TO.C,C17*%
X64770000Y-112522000D03*
X69770000Y-112522000D03*
%TD*%
%TO.C,C12*%
X46990000Y-174244000D03*
X51990000Y-174244000D03*
%TD*%
%TO.C,C11*%
X44196000Y-86106000D03*
X49196000Y-86106000D03*
%TD*%
%TO.C,C7*%
X31750000Y-118618000D03*
X26750000Y-118618000D03*
%TD*%
%TO.C,C6*%
X30226000Y-60198000D03*
X35226000Y-60198000D03*
%TD*%
%TO.C,C3*%
X21336000Y-41910000D03*
X21336000Y-46910000D03*
%TD*%
%TO.C,C1*%
X19050000Y-20320000D03*
X24050000Y-20320000D03*
%TD*%
D14*
%TO.C,IC2*%
X50546000Y-36068000D03*
X42926000Y-43688000D03*
X50546000Y-38608000D03*
X42926000Y-41148000D03*
X50546000Y-41148000D03*
X42926000Y-38608000D03*
X50546000Y-43688000D03*
D22*
X42926000Y-36068000D03*
%TD*%
D25*
%TO.C,TR1*%
X23368000Y-29972000D03*
X23368000Y-27432000D03*
X22098000Y-28702000D03*
%TD*%
D14*
%TO.C,IC33*%
X180086000Y-171704000D03*
X172466000Y-189484000D03*
X180086000Y-174244000D03*
X172466000Y-186944000D03*
X180086000Y-176784000D03*
X172466000Y-184404000D03*
X180086000Y-179324000D03*
X172466000Y-181864000D03*
X180086000Y-181864000D03*
X172466000Y-179324000D03*
X180086000Y-184404000D03*
X172466000Y-176784000D03*
X180086000Y-186944000D03*
X172466000Y-174244000D03*
X180086000Y-189484000D03*
D22*
X172466000Y-171704000D03*
%TD*%
D14*
%TO.C,IC32*%
X180086000Y-143510000D03*
X172466000Y-161290000D03*
X180086000Y-146050000D03*
X172466000Y-158750000D03*
X180086000Y-148590000D03*
X172466000Y-156210000D03*
X180086000Y-151130000D03*
X172466000Y-153670000D03*
X180086000Y-153670000D03*
X172466000Y-151130000D03*
X180086000Y-156210000D03*
X172466000Y-148590000D03*
X180086000Y-158750000D03*
X172466000Y-146050000D03*
X180086000Y-161290000D03*
D22*
X172466000Y-143510000D03*
%TD*%
D14*
%TO.C,IC27*%
X164846000Y-171704000D03*
X157226000Y-189484000D03*
X164846000Y-174244000D03*
X157226000Y-186944000D03*
X164846000Y-176784000D03*
X157226000Y-184404000D03*
X164846000Y-179324000D03*
X157226000Y-181864000D03*
X164846000Y-181864000D03*
X157226000Y-179324000D03*
X164846000Y-184404000D03*
X157226000Y-176784000D03*
X164846000Y-186944000D03*
X157226000Y-174244000D03*
X164846000Y-189484000D03*
D22*
X157226000Y-171704000D03*
%TD*%
D14*
%TO.C,IC22*%
X149606000Y-171704000D03*
X141986000Y-189484000D03*
X149606000Y-174244000D03*
X141986000Y-186944000D03*
X149606000Y-176784000D03*
X141986000Y-184404000D03*
X149606000Y-179324000D03*
X141986000Y-181864000D03*
X149606000Y-181864000D03*
X141986000Y-179324000D03*
X149606000Y-184404000D03*
X141986000Y-176784000D03*
X149606000Y-186944000D03*
X141986000Y-174244000D03*
X149606000Y-189484000D03*
D22*
X141986000Y-171704000D03*
%TD*%
D14*
%TO.C,IC21*%
X149606000Y-143510000D03*
X141986000Y-161290000D03*
X149606000Y-146050000D03*
X141986000Y-158750000D03*
X149606000Y-148590000D03*
X141986000Y-156210000D03*
X149606000Y-151130000D03*
X141986000Y-153670000D03*
X149606000Y-153670000D03*
X141986000Y-151130000D03*
X149606000Y-156210000D03*
X141986000Y-148590000D03*
X149606000Y-158750000D03*
X141986000Y-146050000D03*
X149606000Y-161290000D03*
D22*
X141986000Y-143510000D03*
%TD*%
D14*
%TO.C,IC16*%
X134366000Y-171704000D03*
X126746000Y-189484000D03*
X134366000Y-174244000D03*
X126746000Y-186944000D03*
X134366000Y-176784000D03*
X126746000Y-184404000D03*
X134366000Y-179324000D03*
X126746000Y-181864000D03*
X134366000Y-181864000D03*
X126746000Y-179324000D03*
X134366000Y-184404000D03*
X126746000Y-176784000D03*
X134366000Y-186944000D03*
X126746000Y-174244000D03*
X134366000Y-189484000D03*
D22*
X126746000Y-171704000D03*
%TD*%
D14*
%TO.C,IC15*%
X134366000Y-143510000D03*
X126746000Y-161290000D03*
X134366000Y-146050000D03*
X126746000Y-158750000D03*
X134366000Y-148590000D03*
X126746000Y-156210000D03*
X134366000Y-151130000D03*
X126746000Y-153670000D03*
X134366000Y-153670000D03*
X126746000Y-151130000D03*
X134366000Y-156210000D03*
X126746000Y-148590000D03*
X134366000Y-158750000D03*
X126746000Y-146050000D03*
X134366000Y-161290000D03*
D22*
X126746000Y-143510000D03*
%TD*%
D14*
%TO.C,IC11*%
X114288000Y-156464000D03*
X99048000Y-189484000D03*
X114288000Y-159004000D03*
X99048000Y-186944000D03*
X114288000Y-161544000D03*
X99048000Y-184404000D03*
X114288000Y-164084000D03*
X99048000Y-181864000D03*
X114288000Y-166624000D03*
X99048000Y-179324000D03*
X114288000Y-169164000D03*
X99048000Y-176784000D03*
X114288000Y-171704000D03*
X99048000Y-174244000D03*
X114288000Y-174244000D03*
X99048000Y-171704000D03*
X114288000Y-176784000D03*
X99048000Y-169164000D03*
X114288000Y-179324000D03*
X99048000Y-166624000D03*
X114288000Y-181864000D03*
X99048000Y-164084000D03*
X114288000Y-184404000D03*
X99048000Y-161544000D03*
X114288000Y-186944000D03*
X99048000Y-159004000D03*
X114288000Y-189484000D03*
D22*
X99048000Y-156464000D03*
%TD*%
D14*
%TO.C,IC6*%
X86614000Y-59944000D03*
X78994000Y-77724000D03*
X86614000Y-62484000D03*
X78994000Y-75184000D03*
X86614000Y-65024000D03*
X78994000Y-72644000D03*
X86614000Y-67564000D03*
X78994000Y-70104000D03*
X86614000Y-70104000D03*
X78994000Y-67564000D03*
X86614000Y-72644000D03*
X78994000Y-65024000D03*
X86614000Y-75184000D03*
X78994000Y-62484000D03*
X86614000Y-77724000D03*
D22*
X78994000Y-59944000D03*
%TD*%
D14*
%TO.C,IC4*%
X50546000Y-90932000D03*
X42926000Y-108712000D03*
X50546000Y-93472000D03*
X42926000Y-106172000D03*
X50546000Y-96012000D03*
X42926000Y-103632000D03*
X50546000Y-98552000D03*
X42926000Y-101092000D03*
X50546000Y-101092000D03*
X42926000Y-98552000D03*
X50546000Y-103632000D03*
X42926000Y-96012000D03*
X50546000Y-106172000D03*
X42926000Y-93472000D03*
X50546000Y-108712000D03*
D22*
X42926000Y-90932000D03*
%TD*%
D31*
%TO.C,XL1*%
X96978000Y-148664000D03*
X96978000Y-136324000D03*
D32*
X109728000Y-142494000D03*
D20*
X109728000Y-152894000D03*
X109728000Y-132094000D03*
%TD*%
D14*
%TO.C,IC24*%
X164846000Y-79248000D03*
X157226000Y-97028000D03*
X164846000Y-81788000D03*
X157226000Y-94488000D03*
X164846000Y-84328000D03*
X157226000Y-91948000D03*
X164846000Y-86868000D03*
X157226000Y-89408000D03*
X164846000Y-89408000D03*
X157226000Y-86868000D03*
X164846000Y-91948000D03*
X157226000Y-84328000D03*
X164846000Y-94488000D03*
X157226000Y-81788000D03*
X164846000Y-97028000D03*
D22*
X157226000Y-79248000D03*
%TD*%
D14*
%TO.C,IC18*%
X149606000Y-55118000D03*
X141986000Y-70358000D03*
X149606000Y-57658000D03*
X141986000Y-67818000D03*
X149606000Y-60198000D03*
X141986000Y-65278000D03*
X149606000Y-62738000D03*
X141986000Y-62738000D03*
X149606000Y-65278000D03*
X141986000Y-60198000D03*
X149606000Y-67818000D03*
X141986000Y-57658000D03*
X149606000Y-70358000D03*
D22*
X141986000Y-55118000D03*
%TD*%
D14*
%TO.C,IC12*%
X134366000Y-55118000D03*
X126746000Y-70358000D03*
X134366000Y-57658000D03*
X126746000Y-67818000D03*
X134366000Y-60198000D03*
X126746000Y-65278000D03*
X134366000Y-62738000D03*
X126746000Y-62738000D03*
X134366000Y-65278000D03*
X126746000Y-60198000D03*
X134366000Y-67818000D03*
X126746000Y-57658000D03*
X134366000Y-70358000D03*
D22*
X126746000Y-55118000D03*
%TD*%
D16*
%TO.C,LK2*%
X161290000Y-14478000D03*
X161290000Y-11938000D03*
D17*
X161290000Y-9398000D03*
%TD*%
D16*
%TO.C,LK1*%
X192024000Y-173482000D03*
X192024000Y-176022000D03*
D17*
X192024000Y-178562000D03*
%TD*%
D14*
%TO.C,IC19*%
X149606000Y-81788000D03*
X141986000Y-97028000D03*
X149606000Y-84328000D03*
X141986000Y-94488000D03*
X149606000Y-86868000D03*
X141986000Y-91948000D03*
X149606000Y-89408000D03*
X141986000Y-89408000D03*
X149606000Y-91948000D03*
X141986000Y-86868000D03*
X149606000Y-94488000D03*
X141986000Y-84328000D03*
X149606000Y-97028000D03*
D22*
X141986000Y-81788000D03*
%TD*%
D14*
%TO.C,IC23*%
X164846000Y-55118000D03*
X157226000Y-70358000D03*
X164846000Y-57658000D03*
X157226000Y-67818000D03*
X164846000Y-60198000D03*
X157226000Y-65278000D03*
X164846000Y-62738000D03*
X157226000Y-62738000D03*
X164846000Y-65278000D03*
X157226000Y-60198000D03*
X164846000Y-67818000D03*
X157226000Y-57658000D03*
X164846000Y-70358000D03*
D22*
X157226000Y-55118000D03*
%TD*%
%TO.C,IC1*%
X25400000Y-123698000D03*
D14*
X33020000Y-146558000D03*
X25400000Y-126238000D03*
X33020000Y-144018000D03*
X25400000Y-128778000D03*
X33020000Y-141478000D03*
X25400000Y-131318000D03*
X33020000Y-138938000D03*
X25400000Y-133858000D03*
X33020000Y-136398000D03*
X25400000Y-136398000D03*
X33020000Y-133858000D03*
X25400000Y-138938000D03*
X33020000Y-131318000D03*
X25400000Y-141478000D03*
X33020000Y-128778000D03*
X25400000Y-144018000D03*
X33020000Y-126238000D03*
X25400000Y-146558000D03*
X33020000Y-123698000D03*
%TD*%
D33*
%TO.C,TR3*%
X97282000Y-29210000D03*
X98552000Y-30480000D03*
D34*
X97282000Y-31750000D03*
%TD*%
D33*
%TO.C,TR2*%
X97282000Y-21844000D03*
X98552000Y-23114000D03*
D34*
X97282000Y-24384000D03*
%TD*%
D14*
%TO.C,IC17*%
X149606000Y-23114000D03*
X141986000Y-43434000D03*
X149606000Y-25654000D03*
X141986000Y-40894000D03*
X149606000Y-28194000D03*
X141986000Y-38354000D03*
X149606000Y-30734000D03*
X141986000Y-35814000D03*
X149606000Y-33274000D03*
X141986000Y-33274000D03*
X149606000Y-35814000D03*
X141986000Y-30734000D03*
X149606000Y-38354000D03*
X141986000Y-28194000D03*
X149606000Y-40894000D03*
X141986000Y-25654000D03*
X149606000Y-43434000D03*
D22*
X141986000Y-23114000D03*
%TD*%
D14*
%TO.C,IC28*%
X173990000Y-9398000D03*
X166370000Y-17018000D03*
X173990000Y-11938000D03*
X166370000Y-14478000D03*
X173990000Y-14478000D03*
X166370000Y-11938000D03*
X173990000Y-17018000D03*
D22*
X166370000Y-9398000D03*
%TD*%
D14*
%TO.C,IC31*%
X180086000Y-114554000D03*
X172466000Y-132334000D03*
X180086000Y-117094000D03*
X172466000Y-129794000D03*
X180086000Y-119634000D03*
X172466000Y-127254000D03*
X180086000Y-122174000D03*
X172466000Y-124714000D03*
X180086000Y-124714000D03*
X172466000Y-122174000D03*
X180086000Y-127254000D03*
X172466000Y-119634000D03*
X180086000Y-129794000D03*
X172466000Y-117094000D03*
X180086000Y-132334000D03*
D22*
X172466000Y-114554000D03*
%TD*%
D14*
%TO.C,IC30*%
X180086000Y-81788000D03*
X172466000Y-97028000D03*
X180086000Y-84328000D03*
X172466000Y-94488000D03*
X180086000Y-86868000D03*
X172466000Y-91948000D03*
X180086000Y-89408000D03*
X172466000Y-89408000D03*
X180086000Y-91948000D03*
X172466000Y-86868000D03*
X180086000Y-94488000D03*
X172466000Y-84328000D03*
X180086000Y-97028000D03*
D22*
X172466000Y-81788000D03*
%TD*%
D14*
%TO.C,IC14*%
X134366000Y-117094000D03*
X126746000Y-132334000D03*
X134366000Y-119634000D03*
X126746000Y-129794000D03*
X134366000Y-122174000D03*
X126746000Y-127254000D03*
X134366000Y-124714000D03*
X126746000Y-124714000D03*
X134366000Y-127254000D03*
X126746000Y-122174000D03*
X134366000Y-129794000D03*
X126746000Y-119634000D03*
X134366000Y-132334000D03*
D22*
X126746000Y-117094000D03*
%TD*%
D14*
%TO.C,IC13*%
X134366000Y-81788000D03*
X126746000Y-97028000D03*
X134366000Y-84328000D03*
X126746000Y-94488000D03*
X134366000Y-86868000D03*
X126746000Y-91948000D03*
X134366000Y-89408000D03*
X126746000Y-89408000D03*
X134366000Y-91948000D03*
X126746000Y-86868000D03*
X134366000Y-94488000D03*
X126746000Y-84328000D03*
X134366000Y-97028000D03*
D22*
X126746000Y-81788000D03*
%TD*%
D14*
%TO.C,IC7*%
X86614000Y-92964000D03*
X78994000Y-108204000D03*
X86614000Y-95504000D03*
X78994000Y-105664000D03*
X86614000Y-98044000D03*
X78994000Y-103124000D03*
X86614000Y-100584000D03*
X78994000Y-100584000D03*
X86614000Y-103124000D03*
X78994000Y-98044000D03*
X86614000Y-105664000D03*
X78994000Y-95504000D03*
X86614000Y-108204000D03*
D22*
X78994000Y-92964000D03*
%TD*%
D17*
%TO.C,PL1*%
X40640000Y-194310000D03*
D16*
X43180000Y-194310000D03*
X45720000Y-194310000D03*
X48260000Y-194310000D03*
X50800000Y-194310000D03*
X53340000Y-194310000D03*
X55880000Y-194310000D03*
X58420000Y-194310000D03*
X60960000Y-194310000D03*
X63500000Y-194310000D03*
X66040000Y-194310000D03*
X68580000Y-194310000D03*
X71120000Y-194310000D03*
X73660000Y-194310000D03*
X76200000Y-194310000D03*
X78740000Y-194310000D03*
%TD*%
D14*
%TO.C,IC8*%
X82550000Y-121158000D03*
X67310000Y-169418000D03*
X82550000Y-123698000D03*
X67310000Y-166878000D03*
X82550000Y-126238000D03*
X67310000Y-164338000D03*
X82550000Y-128778000D03*
X67310000Y-161798000D03*
X82550000Y-131318000D03*
X67310000Y-159258000D03*
X82550000Y-133858000D03*
X67310000Y-156718000D03*
X82550000Y-136398000D03*
X67310000Y-154178000D03*
X82550000Y-138938000D03*
X67310000Y-151638000D03*
X82550000Y-141478000D03*
X67310000Y-149098000D03*
X82550000Y-144018000D03*
X67310000Y-146558000D03*
X82550000Y-146558000D03*
X67310000Y-144018000D03*
X82550000Y-149098000D03*
X67310000Y-141478000D03*
X82550000Y-151638000D03*
X67310000Y-138938000D03*
X82550000Y-154178000D03*
X67310000Y-136398000D03*
X82550000Y-156718000D03*
X67310000Y-133858000D03*
X82550000Y-159258000D03*
X67310000Y-131318000D03*
X82550000Y-161798000D03*
X67310000Y-128778000D03*
X82550000Y-164338000D03*
X67310000Y-126238000D03*
X82550000Y-166878000D03*
X67310000Y-123698000D03*
X82550000Y-169418000D03*
D22*
X67310000Y-121158000D03*
%TD*%
%TO.C,IC5*%
X41910000Y-121158000D03*
D14*
X57150000Y-169418000D03*
X41910000Y-123698000D03*
X57150000Y-166878000D03*
X41910000Y-126238000D03*
X57150000Y-164338000D03*
X41910000Y-128778000D03*
X57150000Y-161798000D03*
X41910000Y-131318000D03*
X57150000Y-159258000D03*
X41910000Y-133858000D03*
X57150000Y-156718000D03*
X41910000Y-136398000D03*
X57150000Y-154178000D03*
X41910000Y-138938000D03*
X57150000Y-151638000D03*
X41910000Y-141478000D03*
X57150000Y-149098000D03*
X41910000Y-144018000D03*
X57150000Y-146558000D03*
X41910000Y-146558000D03*
X57150000Y-144018000D03*
X41910000Y-149098000D03*
X57150000Y-141478000D03*
X41910000Y-151638000D03*
X57150000Y-138938000D03*
X41910000Y-154178000D03*
X57150000Y-136398000D03*
X41910000Y-156718000D03*
X57150000Y-133858000D03*
X41910000Y-159258000D03*
X57150000Y-131318000D03*
X41910000Y-161798000D03*
X57150000Y-128778000D03*
X41910000Y-164338000D03*
X57150000Y-126238000D03*
X41910000Y-166878000D03*
X57150000Y-123698000D03*
X41910000Y-169418000D03*
X57150000Y-121158000D03*
%TD*%
%TO.C,IC25*%
X164846000Y-109474000D03*
X157226000Y-132334000D03*
X164846000Y-112014000D03*
X157226000Y-129794000D03*
X164846000Y-114554000D03*
X157226000Y-127254000D03*
X164846000Y-117094000D03*
X157226000Y-124714000D03*
X164846000Y-119634000D03*
X157226000Y-122174000D03*
X164846000Y-122174000D03*
X157226000Y-119634000D03*
X164846000Y-124714000D03*
X157226000Y-117094000D03*
X164846000Y-127254000D03*
X157226000Y-114554000D03*
X164846000Y-129794000D03*
X157226000Y-112014000D03*
X164846000Y-132334000D03*
D22*
X157226000Y-109474000D03*
%TD*%
D14*
%TO.C,IC20*%
X149606000Y-109474000D03*
X141986000Y-132334000D03*
X149606000Y-112014000D03*
X141986000Y-129794000D03*
X149606000Y-114554000D03*
X141986000Y-127254000D03*
X149606000Y-117094000D03*
X141986000Y-124714000D03*
X149606000Y-119634000D03*
X141986000Y-122174000D03*
X149606000Y-122174000D03*
X141986000Y-119634000D03*
X149606000Y-124714000D03*
X141986000Y-117094000D03*
X149606000Y-127254000D03*
X141986000Y-114554000D03*
X149606000Y-129794000D03*
X141986000Y-112014000D03*
X149606000Y-132334000D03*
D22*
X141986000Y-109474000D03*
%TD*%
D14*
%TO.C,IC40*%
X220980000Y-171704000D03*
X213360000Y-189484000D03*
X220980000Y-174244000D03*
X213360000Y-186944000D03*
X220980000Y-176784000D03*
X213360000Y-184404000D03*
X220980000Y-179324000D03*
X213360000Y-181864000D03*
X220980000Y-181864000D03*
X213360000Y-179324000D03*
X220980000Y-184404000D03*
X213360000Y-176784000D03*
X220980000Y-186944000D03*
X213360000Y-174244000D03*
X220980000Y-189484000D03*
D22*
X213360000Y-171704000D03*
%TD*%
D14*
%TO.C,IC36*%
X204216000Y-174244000D03*
X196596000Y-189484000D03*
X204216000Y-176784000D03*
X196596000Y-186944000D03*
X204216000Y-179324000D03*
X196596000Y-184404000D03*
X204216000Y-181864000D03*
X196596000Y-181864000D03*
X204216000Y-184404000D03*
X196596000Y-179324000D03*
X204216000Y-186944000D03*
X196596000Y-176784000D03*
X204216000Y-189484000D03*
D22*
X196596000Y-174244000D03*
%TD*%
D14*
%TO.C,IC35*%
X195834000Y-117094000D03*
X188214000Y-132334000D03*
X195834000Y-119634000D03*
X188214000Y-129794000D03*
X195834000Y-122174000D03*
X188214000Y-127254000D03*
X195834000Y-124714000D03*
X188214000Y-124714000D03*
X195834000Y-127254000D03*
X188214000Y-122174000D03*
X195834000Y-129794000D03*
X188214000Y-119634000D03*
X195834000Y-132334000D03*
D22*
X188214000Y-117094000D03*
%TD*%
D14*
%TO.C,IC10*%
X114288000Y-77470000D03*
X99048000Y-125730000D03*
X114288000Y-80010000D03*
X99048000Y-123190000D03*
X114288000Y-82550000D03*
X99048000Y-120650000D03*
X114288000Y-85090000D03*
X99048000Y-118110000D03*
X114288000Y-87630000D03*
X99048000Y-115570000D03*
X114288000Y-90170000D03*
X99048000Y-113030000D03*
X114288000Y-92710000D03*
X99048000Y-110490000D03*
X114288000Y-95250000D03*
X99048000Y-107950000D03*
X114288000Y-97790000D03*
X99048000Y-105410000D03*
X114288000Y-100330000D03*
X99048000Y-102870000D03*
X114288000Y-102870000D03*
X99048000Y-100330000D03*
X114288000Y-105410000D03*
X99048000Y-97790000D03*
X114288000Y-107950000D03*
X99048000Y-95250000D03*
X114288000Y-110490000D03*
X99048000Y-92710000D03*
X114288000Y-113030000D03*
X99048000Y-90170000D03*
X114288000Y-115570000D03*
X99048000Y-87630000D03*
X114288000Y-118110000D03*
X99048000Y-85090000D03*
X114288000Y-120650000D03*
X99048000Y-82550000D03*
X114288000Y-123190000D03*
X99048000Y-80010000D03*
X114288000Y-125730000D03*
D22*
X99048000Y-77470000D03*
%TD*%
M02*
