M48
; DRILL file {KiCad (5.1.5)-3} date 2/3/2021 2:57:48 PM
; FORMAT={-:-/ absolute / inch / decimal}
; #@! TF.CreationDate,2021-02-03T14:57:48-06:00
; #@! TF.GenerationSoftware,Kicad,Pcbnew,(5.1.5)-3
; #@! TF.FileFunction,Plated,1,2,PTH
FMAT,2
INCH
T1C0.0157
T2C0.0236
T3C0.0276
T4C0.0295
T5C0.0315
T6C0.0394
T7C0.0512
T8C0.0551
T9C0.0591
T10C0.0669
T11C0.1059
T12C0.1280
%
G90
G05
T1
X0.6947Y-1.9523
X0.7223Y-0.571
X0.7527Y-1.5207
X0.8Y-0.4918
X0.8465Y-0.4959
X0.9836Y-4.6723
X1.1538Y-1.4096
X1.1608Y-2.6189
X1.1978Y-1.433
X1.2276Y-1.3833
X1.2653Y-1.6252
X1.2654Y-1.6647
X1.2957Y-3.5657
X1.3406Y-1.6249
X1.3511Y-5.9596
X1.4585Y-0.7884
X1.5295Y-1.9127
X1.6922Y-4.482
X1.7767Y-3.7067
X1.8195Y-3.8427
X1.8889Y-6.57
X1.9216Y-1.3569
X2.1409Y-1.5275
X2.1444Y-1.8474
X2.1444Y-1.9753
X2.1602Y-1.1936
X2.2408Y-2.5369
X2.2409Y-1.1052
X2.2784Y-6.9512
X2.3057Y-4.6332
X2.4187Y-4.5653
X2.4226Y-3.2953
X2.4232Y-3.9219
X2.4571Y-4.6254
X2.463Y-4.562
X2.8597Y-3.1469
X2.8794Y-2.97
X3.1178Y-5.7263
X3.1544Y-2.7089
X3.2014Y-4.6341
X3.3025Y-4.2049
X3.3926Y-0.423
X3.6231Y-4.5626
X3.6517Y-4.6401
X3.6568Y-6.5089
X3.683Y-6.5386
X3.7113Y-6.5831
X3.7608Y-6.6954
X3.7834Y-6.8644
X3.7853Y-4.97
X3.8168Y-6.7432
X3.835Y-5.0211
X3.86Y-7.1165
X4.1562Y-3.2
X4.172Y-5.0227
X4.2549Y-5.0286
X4.2955Y-4.8534
X4.3454Y-4.8249
X4.3996Y-6.8762
X4.4385Y-6.4331
X4.6054Y-1.9971
X4.6486Y-6.1613
X4.7609Y-3.5304
X4.7894Y-3.4588
X4.8496Y-4.06
X4.9083Y-3.0487
X4.9435Y-3.1568
X5.1124Y-5.1281
X5.3341Y-5.554
X5.3833Y-3.0305
X5.4224Y-5.6431
X5.5056Y-3.3579
X5.5545Y-5.5324
X5.6572Y-5.6029
X5.8313Y-5.5488
X5.8338Y-4.4906
X5.865Y-2.964
X5.9965Y-2.0719
X6.0913Y-5.2657
X6.113Y-5.4073
X6.1468Y-6.6866
X6.3215Y-4.5679
X6.3485Y-4.6647
X6.3772Y-4.5664
X6.4231Y-4.4859
X6.66Y-4.976
X6.8414Y-6.705
X6.972Y-4.6206
X7.0247Y-4.6622
X7.0298Y-4.6216
X7.1189Y-4.96
X7.3172Y-7.5757
X7.5979Y-3.0257
X7.6771Y-0.92
X7.6778Y-3.1169
X7.6804Y-1.22
X7.7221Y-5.9163
X7.7326Y-3.0478
X7.796Y-6.2443
X7.807Y-1.8958
X7.8404Y0.3874
X7.86Y-1.9261
X7.9111Y-3.0727
X7.9178Y-6.6636
X7.9558Y-3.2885
X8.2137Y-6.4169
X8.2573Y-5.9033
X8.3302Y-5.8694
X8.3829Y-5.8996
X8.394Y-3.97
X8.4017Y-5.9564
X8.474Y-1.4916
X8.5664Y-1.7592
X8.6914Y-2.2369
X8.8281Y-3.2471
X8.845Y-4.5209
X8.8823Y-3.3007
X8.9235Y-2.2175
X9.2199Y-0.3316
X9.2275Y-1.0434
X9.6538Y-0.8498
X9.7824Y-1.4918
X9.8226Y-1.5024
X9.9195Y-1.0443
X9.9575Y-1.0063
X10.2792Y0.3338
X10.7648Y-0.7744
X11.4242Y-0.6442
X11.6082Y-0.5927
X11.7542Y-1.9161
T2
X7.3819Y-3.6654
X7.4606Y-3.6654
X3.0118Y-2.0236
X3.0906Y-2.0236
X4.4016Y-1.1811
X4.4803Y-1.1811
X2.8071Y-0.7323
X2.8858Y-0.7323
X9.1654Y-0.9213
X9.2441Y-0.9213
X5.2992Y-1.6102
X5.378Y-1.6102
X4.3937Y-0.6772
X4.4724Y-0.6772
X6.1142Y-1.6063
X6.1929Y-1.6063
X9.0551Y-4.248
X9.1339Y-4.248
X2.8976Y-7.0669
X2.9764Y-7.0669
X7.3465Y-7.3622
X7.4252Y-7.3622
X3.9803Y-2.6732
X4.0591Y-2.6732
T3
X3.83Y-1.15
X3.83Y-1.25
X3.88Y-1.2
X3.83Y-0.86
X3.83Y-0.96
X3.88Y-0.91
T4
X4.39Y-0.93
X4.44Y-0.88
X4.44Y-0.98
X3.78Y-1.47
X3.83Y-1.42
X3.83Y-1.52
X0.87Y-1.13
X0.92Y-1.08
X0.92Y-1.18
T5
X7.37Y-6.2
X7.85Y-6.2
X7.37Y-5.6
X7.85Y-5.6
X7.32Y-2.87
X7.8Y-2.87
X4.99Y-3.22
X4.99Y-3.32
X4.99Y-3.42
X4.99Y-3.52
X4.99Y-3.62
X4.99Y-3.72
X4.99Y-3.82
X5.29Y-3.22
X5.29Y-3.32
X5.29Y-3.42
X5.29Y-3.52
X5.29Y-3.62
X5.29Y-3.72
X5.29Y-3.82
X5.44Y-0.42
X5.44Y-0.6129
X5.8042Y-0.2842
X5.8042Y-0.7487
X3.11Y-1.42
X3.59Y-1.42
X6.19Y-4.31
X6.19Y-4.41
X6.19Y-4.51
X6.19Y-4.61
X6.19Y-4.71
X6.19Y-4.81
X6.19Y-4.91
X6.19Y-5.01
X6.19Y-5.11
X6.19Y-5.21
X6.49Y-4.31
X6.49Y-4.41
X6.49Y-4.51
X6.49Y-4.61
X6.49Y-4.71
X6.49Y-4.81
X6.49Y-4.91
X6.49Y-5.01
X6.49Y-5.11
X6.49Y-5.21
X1.09Y-1.18
X1.57Y-1.18
X8.34Y-0.21
X8.5369Y-0.21
X2.31Y-4.23
X2.79Y-4.23
X4.99Y-5.65
X4.99Y-5.75
X4.99Y-5.85
X4.99Y-5.95
X4.99Y-6.05
X4.99Y-6.15
X4.99Y-6.25
X4.99Y-6.35
X5.29Y-5.65
X5.29Y-5.75
X5.29Y-5.85
X5.29Y-5.95
X5.29Y-6.05
X5.29Y-6.15
X5.29Y-6.25
X5.29Y-6.35
X2.31Y-1.77
X2.79Y-1.77
X2.31Y-3.63
X2.79Y-3.63
X4.9Y-0.71
X5.0969Y-0.71
X8.89Y-5.5031
X8.89Y-5.7
X0.8631Y-2.04
X1.06Y-2.04
X6.19Y-3.12
X6.19Y-3.22
X6.19Y-3.32
X6.19Y-3.42
X6.19Y-3.52
X6.19Y-3.62
X6.19Y-3.72
X6.19Y-3.82
X6.49Y-3.12
X6.49Y-3.22
X6.49Y-3.32
X6.49Y-3.42
X6.49Y-3.52
X6.49Y-3.62
X6.49Y-3.72
X6.49Y-3.82
X7.32Y-2.27
X7.8Y-2.27
X5.64Y-3.02
X5.8369Y-3.02
X1.0Y-4.87
X1.0Y-4.97
X1.0Y-5.07
X1.0Y-5.17
X1.0Y-5.27
X1.0Y-5.37
X1.0Y-5.47
X1.0Y-5.57
X1.0Y-5.67
X1.0Y-5.77
X1.3Y-4.87
X1.3Y-4.97
X1.3Y-5.07
X1.3Y-5.17
X1.3Y-5.27
X1.3Y-5.37
X1.3Y-5.47
X1.3Y-5.57
X1.3Y-5.67
X1.3Y-5.77
X6.41Y-1.18
X6.89Y-1.18
X1.73Y-2.0831
X1.73Y-2.28
X1.19Y-2.37
X1.3869Y-2.37
X4.86Y-0.91
X5.34Y-0.91
X1.95Y-2.08
X1.95Y-2.2769
X2.31Y-2.67
X2.79Y-2.67
X7.8031Y-6.66
X8.0Y-6.66
X0.95Y-3.7
X1.43Y-3.7
X0.95Y-4.5
X1.43Y-4.5
X7.32Y-3.07
X7.8Y-3.07
X2.31Y-1.57
X2.79Y-1.57
X7.37Y-5.5
X7.85Y-5.5
X7.37Y-5.8
X7.85Y-5.8
X1.65Y-4.77
X1.65Y-4.87
X1.65Y-4.97
X1.65Y-5.07
X1.65Y-5.17
X1.65Y-5.27
X1.65Y-5.37
X1.65Y-5.47
X1.65Y-5.57
X1.65Y-5.67
X1.65Y-5.77
X1.65Y-5.87
X1.65Y-5.97
X1.65Y-6.07
X1.65Y-6.17
X1.65Y-6.27
X1.65Y-6.37
X1.65Y-6.47
X1.65Y-6.57
X1.65Y-6.67
X2.25Y-4.77
X2.25Y-4.87
X2.25Y-4.97
X2.25Y-5.07
X2.25Y-5.17
X2.25Y-5.27
X2.25Y-5.37
X2.25Y-5.47
X2.25Y-5.57
X2.25Y-5.67
X2.25Y-5.77
X2.25Y-5.87
X2.25Y-5.97
X2.25Y-6.07
X2.25Y-6.17
X2.25Y-6.27
X2.25Y-6.37
X2.25Y-6.47
X2.25Y-6.57
X2.25Y-6.67
X7.32Y-3.17
X7.8Y-3.17
X0.85Y-0.94
X1.45Y-0.94
X2.31Y-4.03
X2.79Y-4.03
X0.99Y-1.9
X1.47Y-1.9
X3.11Y-1.02
X3.59Y-1.02
X5.59Y-6.76
X5.59Y-6.86
X5.59Y-6.96
X5.59Y-7.06
X5.59Y-7.16
X5.59Y-7.26
X5.59Y-7.36
X5.59Y-7.46
X5.89Y-6.76
X5.89Y-6.86
X5.89Y-6.96
X5.89Y-7.06
X5.89Y-7.16
X5.89Y-7.26
X5.89Y-7.36
X5.89Y-7.46
X0.1024Y-0.122
X0.1024Y-0.602
X1.56Y-0.22
X2.04Y-0.22
X3.35Y-0.72
X3.5469Y-0.72
X0.95Y-4.0
X1.43Y-4.0
X7.4631Y-4.41
X7.66Y-4.41
X5.59Y-2.17
X5.59Y-2.27
X5.59Y-2.37
X5.59Y-2.47
X5.59Y-2.57
X5.59Y-2.67
X5.59Y-2.77
X5.89Y-2.17
X5.89Y-2.27
X5.89Y-2.37
X5.89Y-2.47
X5.89Y-2.57
X5.89Y-2.67
X5.89Y-2.77
X6.41Y-1.08
X6.89Y-1.08
X6.24Y-1.87
X6.4369Y-1.87
X3.8995Y-6.16
X3.8995Y-6.26
X3.8995Y-6.36
X3.8995Y-6.46
X3.8995Y-6.56
X3.8995Y-6.66
X3.8995Y-6.76
X3.8995Y-6.86
X3.8995Y-6.96
X3.8995Y-7.06
X3.8995Y-7.16
X3.8995Y-7.26
X3.8995Y-7.36
X3.8995Y-7.46
X4.4995Y-6.16
X4.4995Y-6.26
X4.4995Y-6.36
X4.4995Y-6.46
X4.4995Y-6.56
X4.4995Y-6.66
X4.4995Y-6.76
X4.4995Y-6.86
X4.4995Y-6.96
X4.4995Y-7.06
X4.4995Y-7.16
X4.4995Y-7.26
X4.4995Y-7.36
X4.4995Y-7.46
X7.32Y-2.67
X7.8Y-2.67
X2.55Y-3.4
X2.7469Y-3.4
X4.9Y-0.81
X5.0969Y-0.81
X4.86Y-1.01
X5.34Y-1.01
X8.14Y-0.42
X8.14Y-0.52
X8.14Y-0.62
X8.14Y-0.72
X8.14Y-0.82
X8.14Y-0.92
X8.14Y-1.02
X8.14Y-1.12
X8.14Y-1.22
X8.14Y-1.32
X8.14Y-1.42
X8.14Y-1.52
X8.14Y-1.62
X8.14Y-1.72
X8.74Y-0.42
X8.74Y-0.52
X8.74Y-0.62
X8.74Y-0.72
X8.74Y-0.82
X8.74Y-0.92
X8.74Y-1.02
X8.74Y-1.12
X8.74Y-1.22
X8.74Y-1.32
X8.74Y-1.42
X8.74Y-1.52
X8.74Y-1.62
X8.74Y-1.72
X5.64Y-5.45
X5.8369Y-5.45
X0.95Y-3.07
X1.43Y-3.07
X2.31Y-2.87
X2.79Y-2.87
X5.0431Y-4.01
X5.24Y-4.01
X0.95Y-2.87
X1.43Y-2.87
X2.31Y-1.27
X2.79Y-1.27
X0.95Y-2.67
X1.43Y-2.67
X2.31Y-1.87
X2.79Y-1.87
X7.37Y-5.9
X7.85Y-5.9
X4.99Y-4.61
X4.99Y-4.71
X4.99Y-4.81
X4.99Y-4.91
X4.99Y-5.01
X4.99Y-5.11
X4.99Y-5.21
X5.29Y-4.61
X5.29Y-4.71
X5.29Y-4.81
X5.29Y-4.91
X5.29Y-5.01
X5.29Y-5.11
X5.29Y-5.21
X1.8031Y-0.75
X2.0Y-0.75
X5.59Y-0.91
X5.59Y-1.01
X5.59Y-1.11
X5.59Y-1.21
X5.59Y-1.31
X5.59Y-1.41
X5.59Y-1.51
X5.59Y-1.61
X5.59Y-1.71
X5.89Y-0.91
X5.89Y-1.01
X5.89Y-1.11
X5.89Y-1.21
X5.89Y-1.31
X5.89Y-1.41
X5.89Y-1.51
X5.89Y-1.61
X5.89Y-1.71
X0.83Y-2.21
X1.43Y-2.21
X3.11Y-0.92
X3.59Y-0.92
X0.95Y-2.77
X1.43Y-2.77
X3.11Y-0.62
X3.59Y-0.62
X6.79Y-6.76
X6.79Y-6.86
X6.79Y-6.96
X6.79Y-7.06
X6.79Y-7.16
X6.79Y-7.26
X6.79Y-7.36
X6.79Y-7.46
X7.09Y-6.76
X7.09Y-6.86
X7.09Y-6.96
X7.09Y-7.06
X7.09Y-7.16
X7.09Y-7.26
X7.09Y-7.36
X7.09Y-7.46
X5.59Y-4.31
X5.59Y-4.41
X5.59Y-4.51
X5.59Y-4.61
X5.59Y-4.71
X5.59Y-4.81
X5.59Y-4.91
X5.59Y-5.01
X5.59Y-5.11
X5.59Y-5.21
X5.89Y-4.31
X5.89Y-4.41
X5.89Y-4.51
X5.89Y-4.61
X5.89Y-4.71
X5.89Y-4.81
X5.89Y-4.91
X5.89Y-5.01
X5.89Y-5.11
X5.89Y-5.21
X1.56Y-0.32
X2.04Y-0.32
X4.74Y-7.2231
X4.74Y-7.42
X0.99Y-1.78
X1.47Y-1.78
X8.99Y-5.3031
X8.99Y-5.5
X5.59Y-5.65
X5.59Y-5.75
X5.59Y-5.85
X5.59Y-5.95
X5.59Y-6.05
X5.59Y-6.15
X5.59Y-6.25
X5.59Y-6.35
X5.89Y-5.65
X5.89Y-5.75
X5.89Y-5.85
X5.89Y-5.95
X5.89Y-6.05
X5.89Y-6.15
X5.89Y-6.25
X5.89Y-6.35
X6.41Y-1.38
X6.89Y-1.38
X6.84Y-3.02
X7.0369Y-3.02
X5.04Y-3.02
X5.2369Y-3.02
X6.41Y-1.68
X6.89Y-1.68
X6.79Y-2.07
X6.79Y-2.17
X6.79Y-2.27
X6.79Y-2.37
X6.79Y-2.47
X6.79Y-2.57
X6.79Y-2.67
X6.79Y-2.77
X7.09Y-2.07
X7.09Y-2.17
X7.09Y-2.27
X7.09Y-2.37
X7.09Y-2.47
X7.09Y-2.57
X7.09Y-2.67
X7.09Y-2.77
X6.24Y-5.45
X6.4369Y-5.45
X3.11Y-2.36
X3.11Y-2.46
X3.11Y-2.56
X3.11Y-2.66
X3.11Y-2.76
X3.11Y-2.86
X3.11Y-2.96
X3.11Y-3.06
X3.41Y-2.36
X3.41Y-2.46
X3.41Y-2.56
X3.41Y-2.66
X3.41Y-2.76
X3.41Y-2.86
X3.41Y-2.96
X3.41Y-3.06
X8.14Y-4.45
X8.14Y-4.55
X8.14Y-4.65
X8.14Y-4.75
X8.14Y-4.85
X8.14Y-4.95
X8.14Y-5.05
X8.14Y-5.15
X8.14Y-5.25
X8.14Y-5.35
X8.14Y-5.45
X8.14Y-5.55
X8.14Y-5.65
X8.14Y-5.75
X8.14Y-5.85
X8.14Y-5.95
X8.14Y-6.05
X8.14Y-6.15
X8.14Y-6.25
X8.14Y-6.35
X8.74Y-4.45
X8.74Y-4.55
X8.74Y-4.65
X8.74Y-4.75
X8.74Y-4.85
X8.74Y-4.95
X8.74Y-5.05
X8.74Y-5.15
X8.74Y-5.25
X8.74Y-5.35
X8.74Y-5.45
X8.74Y-5.55
X8.74Y-5.65
X8.74Y-5.75
X8.74Y-5.85
X8.74Y-5.95
X8.74Y-6.05
X8.74Y-6.15
X8.74Y-6.25
X8.74Y-6.35
X2.55Y-3.2
X2.7469Y-3.2
X7.11Y-0.2
X7.59Y-0.2
X2.31Y-1.47
X2.79Y-1.47
X8.99Y-5.7
X8.99Y-5.8969
X0.95Y-4.2
X1.43Y-4.2
X2.31Y-1.37
X2.79Y-1.37
X0.68Y-0.64
X1.16Y-0.64
X7.37Y-6.1
X7.85Y-6.1
X7.37Y-5.7
X7.85Y-5.7
X7.74Y-6.86
X7.74Y-6.96
X7.74Y-7.06
X7.74Y-7.16
X7.74Y-7.26
X7.74Y-7.36
X7.74Y-7.46
X8.04Y-6.86
X8.04Y-6.96
X8.04Y-7.06
X8.04Y-7.16
X8.04Y-7.26
X8.04Y-7.36
X8.04Y-7.46
X1.64Y-0.91
X2.24Y-0.91
X3.11Y-3.66
X3.11Y-3.76
X3.11Y-3.86
X3.11Y-3.96
X3.11Y-4.06
X3.11Y-4.16
X3.11Y-4.26
X3.41Y-3.66
X3.41Y-3.76
X3.41Y-3.86
X3.41Y-3.96
X3.41Y-4.06
X3.41Y-4.16
X3.41Y-4.26
X9.2Y-5.5
X9.2Y-5.6929
X9.5642Y-5.3642
X9.5642Y-5.8287
X2.31Y-4.33
X2.79Y-4.33
X0.95Y-2.97
X1.43Y-2.97
X6.19Y-5.65
X6.19Y-5.75
X6.19Y-5.85
X6.19Y-5.95
X6.19Y-6.05
X6.19Y-6.15
X6.19Y-6.25
X6.19Y-6.35
X6.49Y-5.65
X6.49Y-5.75
X6.49Y-5.85
X6.49Y-5.95
X6.49Y-6.05
X6.49Y-6.15
X6.49Y-6.25
X6.49Y-6.35
X3.11Y-0.82
X3.59Y-0.82
X0.84Y-1.65
X0.84Y-1.8469
X2.65Y-4.77
X2.65Y-4.87
X2.65Y-4.97
X2.65Y-5.07
X2.65Y-5.17
X2.65Y-5.27
X2.65Y-5.37
X2.65Y-5.47
X2.65Y-5.57
X2.65Y-5.67
X2.65Y-5.77
X2.65Y-5.87
X2.65Y-5.97
X2.65Y-6.07
X2.65Y-6.17
X2.65Y-6.27
X2.65Y-6.37
X2.65Y-6.47
X2.65Y-6.57
X2.65Y-6.67
X3.25Y-4.77
X3.25Y-4.87
X3.25Y-4.97
X3.25Y-5.07
X3.25Y-5.17
X3.25Y-5.27
X3.25Y-5.37
X3.25Y-5.47
X3.25Y-5.57
X3.25Y-5.67
X3.25Y-5.77
X3.25Y-5.87
X3.25Y-5.97
X3.25Y-6.07
X3.25Y-6.17
X3.25Y-6.27
X3.25Y-6.37
X3.25Y-6.47
X3.25Y-6.57
X3.25Y-6.67
X2.31Y-2.97
X2.79Y-2.97
X5.0431Y-4.21
X5.24Y-4.21
X6.19Y-2.17
X6.19Y-2.27
X6.19Y-2.37
X6.19Y-2.47
X6.19Y-2.57
X6.19Y-2.67
X6.19Y-2.77
X6.49Y-2.17
X6.49Y-2.27
X6.49Y-2.37
X6.49Y-2.47
X6.49Y-2.57
X6.49Y-2.67
X6.49Y-2.77
X2.31Y-1.17
X2.79Y-1.17
X6.84Y-1.87
X7.0369Y-1.87
X7.32Y-2.17
X7.8Y-2.17
X6.24Y-6.56
X6.4369Y-6.56
X4.32Y-5.2006
X4.32Y-6.0194
X7.32Y-2.07
X7.8Y-2.07
X5.64Y-6.56
X5.8369Y-6.56
X3.15Y-1.12
X3.3469Y-1.12
X6.65Y-0.88
X6.8469Y-0.88
X0.95Y-2.47
X1.43Y-2.47
X2.31Y-1.07
X2.79Y-1.07
X5.0431Y-4.11
X5.24Y-4.11
X0.95Y-3.17
X1.43Y-3.17
X2.31Y-2.17
X2.79Y-2.17
X0.95Y-3.6
X1.43Y-3.6
X7.37Y-6.0
X7.85Y-6.0
X6.79Y-4.51
X6.79Y-4.61
X6.79Y-4.71
X6.79Y-4.81
X6.79Y-4.91
X6.79Y-5.01
X6.79Y-5.11
X6.79Y-5.21
X7.09Y-4.51
X7.09Y-4.61
X7.09Y-4.71
X7.09Y-4.81
X7.09Y-4.91
X7.09Y-5.01
X7.09Y-5.11
X7.09Y-5.21
X1.7431Y-3.29
X1.94Y-3.29
X2.31Y-3.73
X2.79Y-3.73
X6.79Y-3.22
X6.79Y-3.32
X6.79Y-3.42
X6.79Y-3.52
X6.79Y-3.62
X6.79Y-3.72
X6.79Y-3.82
X7.09Y-3.22
X7.09Y-3.32
X7.09Y-3.42
X7.09Y-3.52
X7.09Y-3.62
X7.09Y-3.72
X7.09Y-3.82
X3.11Y-1.22
X3.59Y-1.22
X0.95Y-3.5
X1.43Y-3.5
X0.85Y-3.33
X1.45Y-3.33
X3.11Y-1.32
X3.59Y-1.32
X1.0531Y-4.67
X1.25Y-4.67
X3.8995Y-3.05
X3.8995Y-3.15
X3.8995Y-3.25
X3.8995Y-3.35
X3.8995Y-3.45
X3.8995Y-3.55
X3.8995Y-3.65
X3.8995Y-3.75
X3.8995Y-3.85
X3.8995Y-3.95
X3.8995Y-4.05
X3.8995Y-4.15
X3.8995Y-4.25
X3.8995Y-4.35
X3.8995Y-4.45
X3.8995Y-4.55
X3.8995Y-4.65
X3.8995Y-4.75
X3.8995Y-4.85
X3.8995Y-4.95
X4.4995Y-3.05
X4.4995Y-3.15
X4.4995Y-3.25
X4.4995Y-3.35
X4.4995Y-3.45
X4.4995Y-3.55
X4.4995Y-3.65
X4.4995Y-3.75
X4.4995Y-3.85
X4.4995Y-3.95
X4.4995Y-4.05
X4.4995Y-4.15
X4.4995Y-4.25
X4.4995Y-4.35
X4.4995Y-4.45
X4.4995Y-4.55
X4.4995Y-4.65
X4.4995Y-4.75
X4.4995Y-4.85
X4.4995Y-4.95
X2.31Y-1.97
X2.79Y-1.97
X8.345Y-1.91
X8.5419Y-1.91
X6.19Y-6.76
X6.19Y-6.86
X6.19Y-6.96
X6.19Y-7.06
X6.19Y-7.16
X6.19Y-7.26
X6.19Y-7.36
X6.19Y-7.46
X6.49Y-6.76
X6.49Y-6.86
X6.49Y-6.96
X6.49Y-7.06
X6.49Y-7.16
X6.49Y-7.26
X6.49Y-7.36
X6.49Y-7.46
X2.55Y-3.1
X2.7469Y-3.1
X1.69Y-1.42
X1.69Y-1.52
X1.69Y-1.62
X1.69Y-1.72
X1.99Y-1.42
X1.99Y-1.52
X1.99Y-1.62
X1.99Y-1.72
X6.41Y-1.58
X6.89Y-1.58
X7.3631Y-3.47
X7.56Y-3.47
X6.79Y-5.65
X6.79Y-5.75
X6.79Y-5.85
X6.79Y-5.95
X6.79Y-6.05
X6.79Y-6.15
X6.79Y-6.25
X6.79Y-6.35
X7.09Y-5.65
X7.09Y-5.75
X7.09Y-5.85
X7.09Y-5.95
X7.09Y-6.05
X7.09Y-6.15
X7.09Y-6.25
X7.09Y-6.35
X7.32Y-2.37
X7.8Y-2.37
X1.6929Y-2.5197
X1.6929Y-2.6197
X1.6929Y-2.7197
X1.6929Y-2.8197
X1.6929Y-2.9197
X1.6929Y-3.0197
X1.6929Y-3.1197
X1.9929Y-2.5197
X1.9929Y-2.6197
X1.9929Y-2.7197
X1.9929Y-2.8197
X1.9929Y-2.9197
X1.9929Y-3.0197
X1.9929Y-3.1197
X1.17Y-0.8
X1.3669Y-0.8
X5.59Y-3.22
X5.59Y-3.32
X5.59Y-3.42
X5.59Y-3.52
X5.59Y-3.62
X5.59Y-3.72
X5.59Y-3.82
X5.89Y-3.22
X5.89Y-3.32
X5.89Y-3.42
X5.89Y-3.52
X5.89Y-3.62
X5.89Y-3.72
X5.89Y-3.82
X9.105Y-5.34
X9.105Y-5.82
X6.84Y-5.45
X7.0369Y-5.45
X1.09Y-1.08
X1.57Y-1.08
X1.56Y-0.12
X2.04Y-0.12
X0.95Y-3.9
X1.43Y-3.9
X2.31Y-1.67
X2.79Y-1.67
X7.32Y-2.97
X7.8Y-2.97
X7.32Y-3.37
X7.8Y-3.37
X7.32Y-3.27
X7.8Y-3.27
X7.37Y-6.3
X7.85Y-6.3
X7.41Y-4.61
X7.41Y-4.71
X7.41Y-4.81
X7.41Y-4.91
X7.41Y-5.01
X7.41Y-5.11
X7.41Y-5.21
X7.71Y-4.61
X7.71Y-4.71
X7.71Y-4.81
X7.71Y-4.91
X7.71Y-5.01
X7.71Y-5.11
X7.71Y-5.21
X5.04Y-4.41
X5.2369Y-4.41
X2.31Y-3.83
X2.79Y-3.83
X3.11Y-1.62
X3.59Y-1.62
X1.85Y-6.86
X2.0469Y-6.86
X1.56Y-0.45
X2.04Y-0.45
X3.11Y-1.52
X3.59Y-1.52
X4.99Y-6.76
X4.99Y-6.86
X4.99Y-6.96
X4.99Y-7.06
X4.99Y-7.16
X4.99Y-7.26
X4.99Y-7.36
X4.99Y-7.46
X5.29Y-6.76
X5.29Y-6.86
X5.29Y-6.96
X5.29Y-7.06
X5.29Y-7.16
X5.29Y-7.26
X5.29Y-7.36
X5.29Y-7.46
X2.31Y-2.57
X2.79Y-2.57
X6.65Y-0.98
X6.8469Y-0.98
X2.55Y-4.43
X2.7469Y-4.43
X7.32Y-1.97
X7.8Y-1.97
X1.8Y-0.59
X1.9969Y-0.59
X4.1131Y-5.08
X4.31Y-5.08
X4.86Y-1.21
X5.34Y-1.21
X2.55Y-3.3
X2.7469Y-3.3
X0.75Y-0.8
X0.9469Y-0.8
X6.41Y-1.48
X6.89Y-1.48
X7.2Y-0.42
X7.2Y-0.52
X7.2Y-0.62
X7.2Y-0.72
X7.2Y-0.82
X7.2Y-0.92
X7.2Y-1.02
X7.2Y-1.12
X7.2Y-1.22
X7.2Y-1.32
X7.2Y-1.42
X7.2Y-1.52
X7.2Y-1.62
X7.2Y-1.72
X7.8Y-0.42
X7.8Y-0.52
X7.8Y-0.62
X7.8Y-0.72
X7.8Y-0.82
X7.8Y-0.92
X7.8Y-1.02
X7.8Y-1.12
X7.8Y-1.22
X7.8Y-1.32
X7.8Y-1.42
X7.8Y-1.52
X7.8Y-1.62
X7.8Y-1.72
X1.28Y-2.04
X1.4769Y-2.04
X4.2Y-2.17
X4.2Y-2.27
X4.2Y-2.37
X4.2Y-2.47
X4.2Y-2.57
X4.2Y-2.67
X4.2Y-2.77
X4.5Y-2.17
X4.5Y-2.27
X4.5Y-2.37
X4.5Y-2.47
X4.5Y-2.57
X4.5Y-2.67
X4.5Y-2.77
X2.31Y-2.37
X2.79Y-2.37
X5.04Y-6.56
X5.2369Y-6.56
X6.42Y-0.2
X6.9Y-0.2
X0.95Y-4.3
X1.43Y-4.3
X0.95Y-3.8
X1.43Y-3.8
X2.31Y-2.27
X2.79Y-2.27
X7.37Y-6.4
X7.85Y-6.4
X7.37Y-5.4
X7.85Y-5.4
X7.32Y-2.77
X7.8Y-2.77
X6.55Y-0.37
X6.55Y-0.47
X6.55Y-0.57
X6.55Y-0.67
X6.85Y-0.37
X6.85Y-0.47
X6.85Y-0.57
X6.85Y-0.67
X2.31Y-3.93
X2.79Y-3.93
X8.4Y-6.76
X8.4Y-6.86
X8.4Y-6.96
X8.4Y-7.06
X8.4Y-7.16
X8.4Y-7.26
X8.4Y-7.36
X8.4Y-7.46
X8.7Y-6.76
X8.7Y-6.86
X8.7Y-6.96
X8.7Y-7.06
X8.7Y-7.16
X8.7Y-7.26
X8.7Y-7.36
X8.7Y-7.46
X2.31Y-4.13
X2.79Y-4.13
X1.69Y-3.58
X1.69Y-3.68
X1.69Y-3.78
X1.69Y-3.88
X1.69Y-3.98
X1.69Y-4.08
X1.69Y-4.18
X1.69Y-4.28
X1.99Y-3.58
X1.99Y-3.68
X1.99Y-3.78
X1.99Y-3.88
X1.99Y-3.98
X1.99Y-4.08
X1.99Y-4.18
X1.99Y-4.28
X0.95Y-4.1
X1.43Y-4.1
X2.31Y-3.53
X2.79Y-3.53
X1.74Y-3.39
X1.9369Y-3.39
X2.31Y-2.77
X2.79Y-2.77
X4.9Y-0.61
X5.0969Y-0.61
X4.99Y-2.17
X4.99Y-2.27
X4.99Y-2.37
X4.99Y-2.47
X4.99Y-2.57
X4.99Y-2.67
X4.99Y-2.77
X5.29Y-2.17
X5.29Y-2.27
X5.29Y-2.37
X5.29Y-2.47
X5.29Y-2.57
X5.29Y-2.67
X5.29Y-2.77
X4.86Y-1.11
X5.34Y-1.11
X6.84Y-6.56
X7.0369Y-6.56
X2.85Y-6.87
X3.0469Y-6.87
X7.32Y-2.57
X7.8Y-2.57
X8.345Y-4.25
X8.5419Y-4.25
X6.41Y-1.28
X6.89Y-1.28
X8.14Y-2.07
X8.14Y-2.17
X8.14Y-2.27
X8.14Y-2.37
X8.14Y-2.47
X8.14Y-2.57
X8.14Y-2.67
X8.14Y-2.77
X8.14Y-2.87
X8.14Y-2.97
X8.14Y-3.07
X8.14Y-3.17
X8.14Y-3.27
X8.14Y-3.37
X8.14Y-3.47
X8.14Y-3.57
X8.14Y-3.67
X8.14Y-3.77
X8.14Y-3.87
X8.14Y-3.97
X8.74Y-2.07
X8.74Y-2.17
X8.74Y-2.27
X8.74Y-2.37
X8.74Y-2.47
X8.74Y-2.57
X8.74Y-2.67
X8.74Y-2.77
X8.74Y-2.87
X8.74Y-2.97
X8.74Y-3.07
X8.74Y-3.17
X8.74Y-3.27
X8.74Y-3.37
X8.74Y-3.47
X8.74Y-3.57
X8.74Y-3.67
X8.74Y-3.77
X8.74Y-3.87
X8.74Y-3.97
X8.4531Y-6.56
X8.65Y-6.56
X6.2764Y-0.8504
X6.3764Y-0.9504
X6.4764Y-0.8504
X2.31Y-2.07
X2.79Y-2.07
X5.04Y-5.45
X5.2369Y-5.45
X0.95Y-2.57
X1.43Y-2.57
X0.95Y-4.4
X1.43Y-4.4
X7.32Y-2.47
X7.8Y-2.47
X2.31Y-2.47
X2.79Y-2.47
T6
X1.6Y-7.65
X1.7Y-7.65
X1.8Y-7.65
X1.9Y-7.65
X2.0Y-7.65
X2.1Y-7.65
X2.2Y-7.65
X2.3Y-7.65
X2.4Y-7.65
X2.5Y-7.65
X2.6Y-7.65
X2.7Y-7.65
X2.8Y-7.65
X2.9Y-7.65
X3.0Y-7.65
X3.1Y-7.65
X7.56Y-6.83
X7.56Y-6.93
X7.56Y-7.03
X10.0827Y0.6685
X10.0827Y0.4685
X10.1827Y0.6685
X10.1827Y0.4685
X10.2827Y0.6685
X10.2827Y0.4685
X10.3827Y0.6685
X10.3827Y0.4685
X10.4827Y0.6685
X10.4827Y0.4685
X10.5827Y0.6685
X10.5827Y0.4685
X10.6827Y0.6685
X10.6827Y0.4685
X10.7827Y0.6685
X10.7827Y0.4685
X10.8827Y0.6685
X10.8827Y0.4685
X10.9827Y0.6685
X10.9827Y0.4685
X11.0827Y0.6685
X11.0827Y0.4685
X11.1827Y0.6685
X11.1827Y0.4685
X11.2827Y0.6685
X11.2827Y0.4685
X11.3827Y0.6685
X11.3827Y0.4685
X11.4827Y0.6685
X11.4827Y0.4685
X11.5827Y0.6685
X11.5827Y0.4685
X11.6827Y0.6685
X11.6827Y0.4685
X11.7827Y0.6685
X11.7827Y0.4685
X11.8827Y0.6685
X11.8827Y0.4685
X11.9827Y0.6685
X11.9827Y0.4685
X1.0Y-1.34
X1.0Y-1.64
X1.4Y-1.34
X1.4Y-1.64
X1.5Y-1.34
X1.5Y-1.64
X0.2787Y-0.2165
X0.3787Y-0.2165
X0.4787Y-0.2165
X0.5787Y-0.2165
X0.6787Y-0.2165
X0.7787Y-0.2165
X0.8787Y-0.2165
X0.9787Y-0.2165
X1.0787Y-0.2165
X6.35Y-0.37
X6.35Y-0.47
X6.35Y-0.57
X10.0787Y-0.4811
X10.0787Y-0.6811
X10.1787Y-0.4811
X10.1787Y-0.6811
X10.2787Y-0.4811
X10.2787Y-0.6811
X10.3787Y-0.4811
X10.3787Y-0.6811
X10.4787Y-0.4811
X10.4787Y-0.6811
X10.5787Y-0.4811
X10.5787Y-0.6811
X10.6787Y-0.4811
X10.6787Y-0.6811
X10.7787Y-0.4811
X10.7787Y-0.6811
X10.8787Y-0.4811
X10.8787Y-0.6811
X10.9787Y-0.4811
X10.9787Y-0.6811
X11.0787Y-0.4811
X11.0787Y-0.6811
X11.1787Y-0.4811
X11.1787Y-0.6811
X11.2787Y-0.4811
X11.2787Y-0.6811
X11.3787Y-0.4811
X11.3787Y-0.6811
X11.4787Y-0.4811
X11.4787Y-0.6811
X11.5787Y-0.4811
X11.5787Y-0.6811
X11.6787Y-0.4811
X11.6787Y-0.6811
X11.7787Y-0.4811
X11.7787Y-0.6811
X11.8787Y-0.4811
X11.8787Y-0.6811
X11.9787Y-0.4811
X11.9787Y-0.6811
X1.8715Y0.5998
X1.8715Y0.4998
X1.9715Y0.5998
X1.9715Y0.4998
X2.0715Y0.5998
X2.0715Y0.4998
X2.1715Y0.5998
X2.1715Y0.4998
X2.2715Y0.5998
X2.2715Y0.4998
X2.3715Y0.5998
X2.3715Y0.4998
X2.4715Y0.5998
X2.4715Y0.4998
X2.5715Y0.5998
X2.5715Y0.4998
X2.6715Y0.5998
X2.6715Y0.4998
X2.7715Y0.5998
X2.7715Y0.4998
T7
X4.7686Y-1.56
X4.91Y-1.4186
X5.0514Y-1.56
T8
X12.5449Y-1.6268
X12.5449Y-1.7921
X12.5449Y-1.9575
X12.5449Y-2.1228
X12.5449Y-2.2882
X12.5449Y-2.4535
X12.5449Y-2.6189
X12.5449Y-2.7843
X12.5449Y-2.9496
X12.5449Y-3.115
X12.7614Y-1.6268
X12.7614Y-1.7921
X12.7614Y-1.9575
X12.7614Y-2.1228
X12.7614Y-2.2882
X12.7614Y-2.4535
X12.7614Y-2.6189
X12.7614Y-2.7843
X12.7614Y-2.9496
X12.7614Y-3.115
T9
X4.3146Y0.6224
X4.413Y1.0122
X4.413Y0.524
X4.5154Y1.0122
X4.6098Y0.6224
X4.7083Y1.0122
X4.8067Y1.0122
X4.8067Y0.524
X4.9051Y0.6224
X0.1357Y-4.1361
X0.1357Y-4.2346
X0.1357Y-4.4314
X0.1357Y-4.5298
X0.5254Y-4.0377
X0.5254Y-4.333
X0.5254Y-4.6283
X0.6239Y-4.1361
X0.6239Y-4.5298
X0.7223Y-4.333
X0.1357Y-2.5561
X0.1357Y-2.6546
X0.1357Y-2.8514
X0.1357Y-2.9498
X0.5254Y-2.4577
X0.5254Y-2.753
X0.5254Y-3.0483
X0.6239Y-2.5561
X0.6239Y-2.9498
X0.7223Y-2.753
X3.4799Y0.6224
X3.4799Y0.4256
X3.5783Y1.0122
X3.5783Y0.524
X3.6768Y1.0122
X3.7752Y0.6224
X3.8736Y1.0122
X3.972Y1.0122
X3.972Y0.524
X4.0705Y0.6224
X4.0705Y0.4256
T10
X3.818Y-5.3671
X3.818Y-5.8529
T11
X1.639Y0.5706
X3.0039Y0.5706
T12
X9.7412Y-0.1411
X12.3162Y-0.1411
X9.7452Y1.0085
X12.3202Y1.0085
T0
M30
