%TF.GenerationSoftware,KiCad,Pcbnew,(5.1.5)-3*%
%TF.CreationDate,2022-03-11T11:47:45-06:00*%
%TF.ProjectId,dragon64,64726167-6f6e-4363-942e-6b696361645f,rev?*%
%TF.SameCoordinates,Original*%
%TF.FileFunction,Soldermask,Bot*%
%TF.FilePolarity,Negative*%
%FSLAX46Y46*%
G04 Gerber Fmt 4.6, Leading zero omitted, Abs format (unit mm)*
G04 Created by KiCad (PCBNEW (5.1.5)-3) date 2022-03-11 11:47:45*
%MOMM*%
%LPD*%
G04 APERTURE LIST*
%ADD10O,1.200000X1.200000*%
%ADD11O,1.600000X1.200000*%
%ADD12O,2.400000X1.600000*%
%ADD13R,2.400000X1.600000*%
%ADD14O,1.600000X1.600000*%
%ADD15C,1.600000*%
%ADD16R,1.500000X1.500000*%
%ADD17C,1.500000*%
%ADD18O,1.700000X1.700000*%
%ADD19R,1.700000X1.700000*%
%ADD20R,1.600000X1.600000*%
%ADD21C,2.000000*%
%ADD22C,1.200000*%
%ADD23R,1.200000X1.200000*%
%ADD24C,3.200000*%
%ADD25C,5.000000*%
%ADD26C,1.700000*%
%ADD27C,0.100000*%
%ADD28O,2.700000X3.300000*%
%ADD29C,1.300000*%
%ADD30R,2.286000X2.286000*%
%ADD31C,2.286000*%
%ADD32C,8.000000*%
%ADD33O,1.600000X2.300000*%
G04 APERTURE END LIST*
D10*
%TO.C,Q3*%
X66834700Y-3730000D03*
X65564700Y-5000000D03*
D11*
X64294700Y-3730000D03*
%TD*%
D10*
%TO.C,Q2*%
X66834700Y-12570000D03*
X65564700Y-13840000D03*
D11*
X64294700Y-12570000D03*
%TD*%
D12*
%TO.C,U2*%
X79960000Y1240000D03*
X72340000Y-14000000D03*
X79960000Y-1300000D03*
X72340000Y-11460000D03*
X79960000Y-3840000D03*
X72340000Y-8920000D03*
X79960000Y-6380000D03*
X72340000Y-6380000D03*
X79960000Y-8920000D03*
X72340000Y-3840000D03*
X79960000Y-11460000D03*
X72340000Y-1300000D03*
X79960000Y-14000000D03*
D13*
X72340000Y1240000D03*
%TD*%
D14*
%TO.C,R41*%
X78520000Y-31100000D03*
D15*
X78520000Y-23480000D03*
%TD*%
D14*
%TO.C,R31*%
X48000000Y-6216000D03*
D15*
X55620000Y-6216000D03*
%TD*%
D14*
%TO.C,R30*%
X55620000Y6270000D03*
D15*
X48000000Y6270000D03*
%TD*%
D14*
%TO.C,R13*%
X55620000Y2108000D03*
D15*
X48000000Y2108000D03*
%TD*%
D14*
%TO.C,R12*%
X29100000Y14670000D03*
D15*
X36720000Y14670000D03*
%TD*%
D14*
%TO.C,R11*%
X55620000Y-2054000D03*
D15*
X48000000Y-2054000D03*
%TD*%
D14*
%TO.C,R8*%
X29260000Y10870000D03*
D15*
X36880000Y10870000D03*
%TD*%
D14*
%TO.C,R7*%
X72370000Y12490000D03*
D15*
X79990000Y12490000D03*
%TD*%
D14*
%TO.C,R6*%
X48000000Y-14540000D03*
D15*
X55620000Y-14540000D03*
%TD*%
D16*
%TO.C,Q1*%
X62840000Y5110000D03*
D17*
X67920000Y5110000D03*
X65380000Y7650000D03*
%TD*%
D18*
%TO.C,J3*%
X15980000Y12080000D03*
D19*
X13440000Y12080000D03*
%TD*%
D14*
%TO.C,D5*%
X78240000Y-59760000D03*
D20*
X78240000Y-52140000D03*
%TD*%
D14*
%TO.C,D4*%
X72440000Y6100000D03*
D20*
X80060000Y6100000D03*
%TD*%
D21*
%TO.C,C44*%
X14360000Y16120000D03*
X19360000Y16120000D03*
%TD*%
%TO.C,C37*%
X49290000Y11820000D03*
X54290000Y11820000D03*
%TD*%
D22*
%TO.C,C36*%
X107240000Y150000D03*
D23*
X105240000Y150000D03*
%TD*%
D21*
%TO.C,C35*%
X85780000Y3400000D03*
X85780000Y-1600000D03*
%TD*%
%TO.C,C33*%
X101100000Y-97810000D03*
X96100000Y-97810000D03*
%TD*%
%TO.C,C32*%
X49460000Y-116110000D03*
X44460000Y-116110000D03*
%TD*%
%TO.C,C31*%
X60000000Y-119570000D03*
X65000000Y-119570000D03*
%TD*%
%TO.C,C30*%
X54310000Y-10378000D03*
X49310000Y-10378000D03*
%TD*%
%TO.C,C29*%
X49120000Y-76010000D03*
X44120000Y-76010000D03*
%TD*%
%TO.C,C22*%
X86770000Y-37340000D03*
X81770000Y-37340000D03*
%TD*%
%TO.C,C21*%
X85390000Y-8430000D03*
X85390000Y-13430000D03*
%TD*%
%TO.C,C20*%
X49110000Y-83260000D03*
X44110000Y-83260000D03*
%TD*%
D18*
%TO.C,J2*%
X133900000Y24550000D03*
X136440000Y24550000D03*
X138980000Y24550000D03*
X141520000Y24550000D03*
X144060000Y24550000D03*
D19*
X146600000Y24550000D03*
%TD*%
D17*
%TO.C,Y2*%
X88620000Y-84710000D03*
X93500000Y-84710000D03*
%TD*%
%TO.C,Y1*%
X304210000Y-82020000D03*
X304210000Y-77140000D03*
%TD*%
D14*
%TO.C,R85*%
X5750000Y11855000D03*
D15*
X5750000Y19475000D03*
%TD*%
D14*
%TO.C,R84*%
X293805000Y-74365000D03*
D15*
X286185000Y-74365000D03*
%TD*%
D14*
%TO.C,R83*%
X174055000Y-108620000D03*
D15*
X181675000Y-108620000D03*
%TD*%
D14*
%TO.C,R82*%
X174070000Y-105636000D03*
D15*
X181690000Y-105636000D03*
%TD*%
D14*
%TO.C,R81*%
X174070000Y-102652000D03*
D15*
X181690000Y-102652000D03*
%TD*%
D14*
%TO.C,R80*%
X174070000Y-99668000D03*
D15*
X181690000Y-99668000D03*
%TD*%
D14*
%TO.C,R79*%
X174070000Y-96684000D03*
D15*
X181690000Y-96684000D03*
%TD*%
D14*
%TO.C,R78*%
X174070000Y-93700000D03*
D15*
X181690000Y-93700000D03*
%TD*%
D14*
%TO.C,R77*%
X174070000Y-90716000D03*
D15*
X181690000Y-90716000D03*
%TD*%
D14*
%TO.C,R76*%
X174070000Y-87732000D03*
D15*
X181690000Y-87732000D03*
%TD*%
D14*
%TO.C,R75*%
X174070000Y-84748000D03*
D15*
X181690000Y-84748000D03*
%TD*%
D14*
%TO.C,R74*%
X174070000Y-81764000D03*
D15*
X181690000Y-81764000D03*
%TD*%
D14*
%TO.C,R73*%
X174070000Y-78780000D03*
D15*
X181690000Y-78780000D03*
%TD*%
D14*
%TO.C,R71*%
X175380000Y6266900D03*
D15*
X167760000Y6266900D03*
%TD*%
D14*
%TO.C,R70*%
X175380000Y9842800D03*
D15*
X167760000Y9842800D03*
%TD*%
D14*
%TO.C,R69*%
X167760000Y16494600D03*
D15*
X175380000Y16494600D03*
%TD*%
D14*
%TO.C,R68*%
X149100000Y2110500D03*
D15*
X156720000Y2110500D03*
%TD*%
D14*
%TO.C,R67*%
X149100000Y6266900D03*
D15*
X156720000Y6266900D03*
%TD*%
D14*
%TO.C,R66*%
X149100000Y9842800D03*
D15*
X156720000Y9842800D03*
%TD*%
D14*
%TO.C,R65*%
X156720000Y12918700D03*
D15*
X149100000Y12918700D03*
%TD*%
D14*
%TO.C,R64*%
X156720000Y16494600D03*
D15*
X149100000Y16494600D03*
%TD*%
D14*
%TO.C,R40*%
X66294000Y-112401000D03*
D15*
X58674000Y-112401000D03*
%TD*%
D14*
%TO.C,R39*%
X58674000Y-109127000D03*
D15*
X66294000Y-109127000D03*
%TD*%
D14*
%TO.C,R38*%
X58674000Y-105853000D03*
D15*
X66294000Y-105853000D03*
%TD*%
D14*
%TO.C,R37*%
X58674000Y-102578000D03*
D15*
X66294000Y-102578000D03*
%TD*%
D14*
%TO.C,R36*%
X58674000Y-99304300D03*
D15*
X66294000Y-99304300D03*
%TD*%
D14*
%TO.C,R35*%
X58674000Y-96030200D03*
D15*
X66294000Y-96030200D03*
%TD*%
D14*
%TO.C,R34*%
X58674000Y-92756000D03*
D15*
X66294000Y-92756000D03*
%TD*%
D14*
%TO.C,R33*%
X58674000Y-89481900D03*
D15*
X66294000Y-89481900D03*
%TD*%
D14*
%TO.C,R32*%
X66294000Y-86207700D03*
D15*
X58674000Y-86207700D03*
%TD*%
D14*
%TO.C,R29*%
X66294000Y-69837100D03*
D15*
X58674000Y-69837100D03*
%TD*%
D14*
%TO.C,R28*%
X58674000Y-66562900D03*
D15*
X66294000Y-66562900D03*
%TD*%
D14*
%TO.C,R27*%
X58674000Y-63288800D03*
D15*
X66294000Y-63288800D03*
%TD*%
D14*
%TO.C,R26*%
X66294000Y-60014600D03*
D15*
X58674000Y-60014600D03*
%TD*%
D14*
%TO.C,R25*%
X58674000Y-56740500D03*
D15*
X66294000Y-56740500D03*
%TD*%
D14*
%TO.C,R24*%
X58674000Y-50692200D03*
D15*
X66294000Y-50692200D03*
%TD*%
D14*
%TO.C,R23*%
X66294000Y-44644000D03*
D15*
X58674000Y-44644000D03*
%TD*%
D14*
%TO.C,R22*%
X66294000Y-41369800D03*
D15*
X58674000Y-41369800D03*
%TD*%
D14*
%TO.C,R21*%
X58674000Y-38095700D03*
D15*
X66294000Y-38095700D03*
%TD*%
D14*
%TO.C,R20*%
X58674000Y-34821500D03*
D15*
X66294000Y-34821500D03*
%TD*%
D14*
%TO.C,R19*%
X66294000Y-31547400D03*
D15*
X58674000Y-31547400D03*
%TD*%
D14*
%TO.C,R18*%
X58674000Y-25499100D03*
D15*
X66294000Y-25499100D03*
%TD*%
D14*
%TO.C,R17*%
X37034000Y6630000D03*
D15*
X29414000Y6630000D03*
%TD*%
D14*
%TO.C,R16*%
X34275000Y-114397000D03*
D15*
X26655000Y-114397000D03*
%TD*%
D14*
%TO.C,R15*%
X34275000Y-109994000D03*
D15*
X26655000Y-109994000D03*
%TD*%
D14*
%TO.C,R14*%
X34275000Y-105591000D03*
D15*
X26655000Y-105591000D03*
%TD*%
D14*
%TO.C,R10*%
X34275000Y-101187000D03*
D15*
X26655000Y-101187000D03*
%TD*%
D14*
%TO.C,R9*%
X34275000Y-96784200D03*
D15*
X26655000Y-96784200D03*
%TD*%
D14*
%TO.C,R5*%
X34275000Y-79471600D03*
D15*
X26655000Y-79471600D03*
%TD*%
D14*
%TO.C,R4*%
X26655000Y-75068500D03*
D15*
X34275000Y-75068500D03*
%TD*%
D14*
%TO.C,R3*%
X34275000Y-70665300D03*
D15*
X26655000Y-70665300D03*
%TD*%
D14*
%TO.C,R2*%
X14745000Y-9690000D03*
D15*
X7125000Y-9690000D03*
%TD*%
D14*
%TO.C,R1*%
X7125000Y2175000D03*
D15*
X14745000Y2175000D03*
%TD*%
D12*
%TO.C,IC40*%
X276278000Y-72074000D03*
X268658000Y-89854000D03*
X276278000Y-74614000D03*
X268658000Y-87314000D03*
X276278000Y-77154000D03*
X268658000Y-84774000D03*
X276278000Y-79694000D03*
X268658000Y-82234000D03*
X276278000Y-82234000D03*
X268658000Y-79694000D03*
X276278000Y-84774000D03*
X268658000Y-77154000D03*
X276278000Y-87314000D03*
X268658000Y-74614000D03*
X276278000Y-89854000D03*
D13*
X268658000Y-72074000D03*
%TD*%
D12*
%TO.C,IC39*%
X153778000Y-9615000D03*
X138538000Y-57875000D03*
X153778000Y-12155000D03*
X138538000Y-55335000D03*
X153778000Y-14695000D03*
X138538000Y-52795000D03*
X153778000Y-17235000D03*
X138538000Y-50255000D03*
X153778000Y-19775000D03*
X138538000Y-47715000D03*
X153778000Y-22315000D03*
X138538000Y-45175000D03*
X153778000Y-24855000D03*
X138538000Y-42635000D03*
X153778000Y-27395000D03*
X138538000Y-40095000D03*
X153778000Y-29935000D03*
X138538000Y-37555000D03*
X153778000Y-32475000D03*
X138538000Y-35015000D03*
X153778000Y-35015000D03*
X138538000Y-32475000D03*
X153778000Y-37555000D03*
X138538000Y-29935000D03*
X153778000Y-40095000D03*
X138538000Y-27395000D03*
X153778000Y-42635000D03*
X138538000Y-24855000D03*
X153778000Y-45175000D03*
X138538000Y-22315000D03*
X153778000Y-47715000D03*
X138538000Y-19775000D03*
X153778000Y-50255000D03*
X138538000Y-17235000D03*
X153778000Y-52795000D03*
X138538000Y-14695000D03*
X153778000Y-55335000D03*
X138538000Y-12155000D03*
X153778000Y-57875000D03*
D13*
X138538000Y-9615000D03*
%TD*%
D12*
%TO.C,IC38*%
X180736000Y-10140000D03*
X165496000Y-58400000D03*
X180736000Y-12680000D03*
X165496000Y-55860000D03*
X180736000Y-15220000D03*
X165496000Y-53320000D03*
X180736000Y-17760000D03*
X165496000Y-50780000D03*
X180736000Y-20300000D03*
X165496000Y-48240000D03*
X180736000Y-22840000D03*
X165496000Y-45700000D03*
X180736000Y-25380000D03*
X165496000Y-43160000D03*
X180736000Y-27920000D03*
X165496000Y-40620000D03*
X180736000Y-30460000D03*
X165496000Y-38080000D03*
X180736000Y-33000000D03*
X165496000Y-35540000D03*
X180736000Y-35540000D03*
X165496000Y-33000000D03*
X180736000Y-38080000D03*
X165496000Y-30460000D03*
X180736000Y-40620000D03*
X165496000Y-27920000D03*
X180736000Y-43160000D03*
X165496000Y-25380000D03*
X180736000Y-45700000D03*
X165496000Y-22840000D03*
X180736000Y-48240000D03*
X165496000Y-20300000D03*
X180736000Y-50780000D03*
X165496000Y-17760000D03*
X180736000Y-53320000D03*
X165496000Y-15220000D03*
X180736000Y-55860000D03*
X165496000Y-12680000D03*
X180736000Y-58400000D03*
D13*
X165496000Y-10140000D03*
%TD*%
D12*
%TO.C,IC37*%
X234651000Y-10083000D03*
X219411000Y-43103000D03*
X234651000Y-12623000D03*
X219411000Y-40563000D03*
X234651000Y-15163000D03*
X219411000Y-38023000D03*
X234651000Y-17703000D03*
X219411000Y-35483000D03*
X234651000Y-20243000D03*
X219411000Y-32943000D03*
X234651000Y-22783000D03*
X219411000Y-30403000D03*
X234651000Y-25323000D03*
X219411000Y-27863000D03*
X234651000Y-27863000D03*
X219411000Y-25323000D03*
X234651000Y-30403000D03*
X219411000Y-22783000D03*
X234651000Y-32943000D03*
X219411000Y-20243000D03*
X234651000Y-35483000D03*
X219411000Y-17703000D03*
X234651000Y-38023000D03*
X219411000Y-15163000D03*
X234651000Y-40563000D03*
X219411000Y-12623000D03*
X234651000Y-43103000D03*
D13*
X219411000Y-10083000D03*
%TD*%
D12*
%TO.C,IC36*%
X258136000Y-72074000D03*
X250516000Y-87314000D03*
X258136000Y-74614000D03*
X250516000Y-84774000D03*
X258136000Y-77154000D03*
X250516000Y-82234000D03*
X258136000Y-79694000D03*
X250516000Y-79694000D03*
X258136000Y-82234000D03*
X250516000Y-77154000D03*
X258136000Y-84774000D03*
X250516000Y-74614000D03*
X258136000Y-87314000D03*
D13*
X250516000Y-72074000D03*
%TD*%
D12*
%TO.C,IC35*%
X294420000Y-29744000D03*
X286800000Y-44984000D03*
X294420000Y-32284000D03*
X286800000Y-42444000D03*
X294420000Y-34824000D03*
X286800000Y-39904000D03*
X294420000Y-37364000D03*
X286800000Y-37364000D03*
X294420000Y-39904000D03*
X286800000Y-34824000D03*
X294420000Y-42444000D03*
X286800000Y-32284000D03*
X294420000Y-44984000D03*
D13*
X286800000Y-29744000D03*
%TD*%
D12*
%TO.C,IC34*%
X207693000Y-10083000D03*
X192453000Y-43103000D03*
X207693000Y-12623000D03*
X192453000Y-40563000D03*
X207693000Y-15163000D03*
X192453000Y-38023000D03*
X207693000Y-17703000D03*
X192453000Y-35483000D03*
X207693000Y-20243000D03*
X192453000Y-32943000D03*
X207693000Y-22783000D03*
X192453000Y-30403000D03*
X207693000Y-25323000D03*
X192453000Y-27863000D03*
X207693000Y-27863000D03*
X192453000Y-25323000D03*
X207693000Y-30403000D03*
X192453000Y-22783000D03*
X207693000Y-32943000D03*
X192453000Y-20243000D03*
X207693000Y-35483000D03*
X192453000Y-17703000D03*
X207693000Y-38023000D03*
X192453000Y-15163000D03*
X207693000Y-40563000D03*
X192453000Y-12623000D03*
X207693000Y-43103000D03*
D13*
X192453000Y-10083000D03*
%TD*%
D12*
%TO.C,IC33*%
X164366000Y-102964000D03*
X156746000Y-120744000D03*
X164366000Y-105504000D03*
X156746000Y-118204000D03*
X164366000Y-108044000D03*
X156746000Y-115664000D03*
X164366000Y-110584000D03*
X156746000Y-113124000D03*
X164366000Y-113124000D03*
X156746000Y-110584000D03*
X164366000Y-115664000D03*
X156746000Y-108044000D03*
X164366000Y-118204000D03*
X156746000Y-105504000D03*
X164366000Y-120744000D03*
D13*
X156746000Y-102964000D03*
%TD*%
D12*
%TO.C,IC32*%
X164366000Y-74770000D03*
X156746000Y-92550000D03*
X164366000Y-77310000D03*
X156746000Y-90010000D03*
X164366000Y-79850000D03*
X156746000Y-87470000D03*
X164366000Y-82390000D03*
X156746000Y-84930000D03*
X164366000Y-84930000D03*
X156746000Y-82390000D03*
X164366000Y-87470000D03*
X156746000Y-79850000D03*
X164366000Y-90010000D03*
X156746000Y-77310000D03*
X164366000Y-92550000D03*
D13*
X156746000Y-74770000D03*
%TD*%
D12*
%TO.C,IC27*%
X149126000Y-102964000D03*
X141506000Y-120744000D03*
X149126000Y-105504000D03*
X141506000Y-118204000D03*
X149126000Y-108044000D03*
X141506000Y-115664000D03*
X149126000Y-110584000D03*
X141506000Y-113124000D03*
X149126000Y-113124000D03*
X141506000Y-110584000D03*
X149126000Y-115664000D03*
X141506000Y-108044000D03*
X149126000Y-118204000D03*
X141506000Y-105504000D03*
X149126000Y-120744000D03*
D13*
X141506000Y-102964000D03*
%TD*%
D12*
%TO.C,IC26*%
X149126000Y-74770000D03*
X141506000Y-92550000D03*
X149126000Y-77310000D03*
X141506000Y-90010000D03*
X149126000Y-79850000D03*
X141506000Y-87470000D03*
X149126000Y-82390000D03*
X141506000Y-84930000D03*
X149126000Y-84930000D03*
X141506000Y-82390000D03*
X149126000Y-87470000D03*
X141506000Y-79850000D03*
X149126000Y-90010000D03*
X141506000Y-77310000D03*
X149126000Y-92550000D03*
D13*
X141506000Y-74770000D03*
%TD*%
D12*
%TO.C,IC25*%
X276278000Y-29744000D03*
X268658000Y-52604000D03*
X276278000Y-32284000D03*
X268658000Y-50064000D03*
X276278000Y-34824000D03*
X268658000Y-47524000D03*
X276278000Y-37364000D03*
X268658000Y-44984000D03*
X276278000Y-39904000D03*
X268658000Y-42444000D03*
X276278000Y-42444000D03*
X268658000Y-39904000D03*
X276278000Y-44984000D03*
X268658000Y-37364000D03*
X276278000Y-47524000D03*
X268658000Y-34824000D03*
X276278000Y-50064000D03*
X268658000Y-32284000D03*
X276278000Y-52604000D03*
D13*
X268658000Y-29744000D03*
%TD*%
D12*
%TO.C,IC22*%
X133886000Y-102964000D03*
X126266000Y-120744000D03*
X133886000Y-105504000D03*
X126266000Y-118204000D03*
X133886000Y-108044000D03*
X126266000Y-115664000D03*
X133886000Y-110584000D03*
X126266000Y-113124000D03*
X133886000Y-113124000D03*
X126266000Y-110584000D03*
X133886000Y-115664000D03*
X126266000Y-108044000D03*
X133886000Y-118204000D03*
X126266000Y-105504000D03*
X133886000Y-120744000D03*
D13*
X126266000Y-102964000D03*
%TD*%
D12*
%TO.C,IC21*%
X133886000Y-74770000D03*
X126266000Y-92550000D03*
X133886000Y-77310000D03*
X126266000Y-90010000D03*
X133886000Y-79850000D03*
X126266000Y-87470000D03*
X133886000Y-82390000D03*
X126266000Y-84930000D03*
X133886000Y-84930000D03*
X126266000Y-82390000D03*
X133886000Y-87470000D03*
X126266000Y-79850000D03*
X133886000Y-90010000D03*
X126266000Y-77310000D03*
X133886000Y-92550000D03*
D13*
X126266000Y-74770000D03*
%TD*%
D12*
%TO.C,IC20*%
X258136000Y-29744000D03*
X250516000Y-52604000D03*
X258136000Y-32284000D03*
X250516000Y-50064000D03*
X258136000Y-34824000D03*
X250516000Y-47524000D03*
X258136000Y-37364000D03*
X250516000Y-44984000D03*
X258136000Y-39904000D03*
X250516000Y-42444000D03*
X258136000Y-42444000D03*
X250516000Y-39904000D03*
X258136000Y-44984000D03*
X250516000Y-37364000D03*
X258136000Y-47524000D03*
X250516000Y-34824000D03*
X258136000Y-50064000D03*
X250516000Y-32284000D03*
X258136000Y-52604000D03*
D13*
X250516000Y-29744000D03*
%TD*%
D12*
%TO.C,IC16*%
X118646000Y-102964000D03*
X111026000Y-120744000D03*
X118646000Y-105504000D03*
X111026000Y-118204000D03*
X118646000Y-108044000D03*
X111026000Y-115664000D03*
X118646000Y-110584000D03*
X111026000Y-113124000D03*
X118646000Y-113124000D03*
X111026000Y-110584000D03*
X118646000Y-115664000D03*
X111026000Y-108044000D03*
X118646000Y-118204000D03*
X111026000Y-105504000D03*
X118646000Y-120744000D03*
D13*
X111026000Y-102964000D03*
%TD*%
D12*
%TO.C,IC15*%
X118646000Y-74770000D03*
X111026000Y-92550000D03*
X118646000Y-77310000D03*
X111026000Y-90010000D03*
X118646000Y-79850000D03*
X111026000Y-87470000D03*
X118646000Y-82390000D03*
X111026000Y-84930000D03*
X118646000Y-84930000D03*
X111026000Y-82390000D03*
X118646000Y-87470000D03*
X111026000Y-79850000D03*
X118646000Y-90010000D03*
X111026000Y-77310000D03*
X118646000Y-92550000D03*
D13*
X111026000Y-74770000D03*
%TD*%
D12*
%TO.C,IC11*%
X98600000Y-42460000D03*
X83360000Y-75480000D03*
X98600000Y-45000000D03*
X83360000Y-72940000D03*
X98600000Y-47540000D03*
X83360000Y-70400000D03*
X98600000Y-50080000D03*
X83360000Y-67860000D03*
X98600000Y-52620000D03*
X83360000Y-65320000D03*
X98600000Y-55160000D03*
X83360000Y-62780000D03*
X98600000Y-57700000D03*
X83360000Y-60240000D03*
X98600000Y-60240000D03*
X83360000Y-57700000D03*
X98600000Y-62780000D03*
X83360000Y-55160000D03*
X98600000Y-65320000D03*
X83360000Y-52620000D03*
X98600000Y-67860000D03*
X83360000Y-50080000D03*
X98600000Y-70400000D03*
X83360000Y-47540000D03*
X98600000Y-72940000D03*
X83360000Y-45000000D03*
X98600000Y-75480000D03*
D13*
X83360000Y-42460000D03*
%TD*%
D12*
%TO.C,IC10*%
X126820000Y-10040000D03*
X111580000Y-58300000D03*
X126820000Y-12580000D03*
X111580000Y-55760000D03*
X126820000Y-15120000D03*
X111580000Y-53220000D03*
X126820000Y-17660000D03*
X111580000Y-50680000D03*
X126820000Y-20200000D03*
X111580000Y-48140000D03*
X126820000Y-22740000D03*
X111580000Y-45600000D03*
X126820000Y-25280000D03*
X111580000Y-43060000D03*
X126820000Y-27820000D03*
X111580000Y-40520000D03*
X126820000Y-30360000D03*
X111580000Y-37980000D03*
X126820000Y-32900000D03*
X111580000Y-35440000D03*
X126820000Y-35440000D03*
X111580000Y-32900000D03*
X126820000Y-37980000D03*
X111580000Y-30360000D03*
X126820000Y-40520000D03*
X111580000Y-27820000D03*
X126820000Y-43060000D03*
X111580000Y-25280000D03*
X126820000Y-45600000D03*
X111580000Y-22740000D03*
X126820000Y-48140000D03*
X111580000Y-20200000D03*
X126820000Y-50680000D03*
X111580000Y-17660000D03*
X126820000Y-53220000D03*
X111580000Y-15120000D03*
X126820000Y-55760000D03*
X111580000Y-12580000D03*
X126820000Y-58300000D03*
D13*
X111580000Y-10040000D03*
%TD*%
D12*
%TO.C,IC8*%
X234555000Y-57848000D03*
X219315000Y-106108000D03*
X234555000Y-60388000D03*
X219315000Y-103568000D03*
X234555000Y-62928000D03*
X219315000Y-101028000D03*
X234555000Y-65468000D03*
X219315000Y-98488000D03*
X234555000Y-68008000D03*
X219315000Y-95948000D03*
X234555000Y-70548000D03*
X219315000Y-93408000D03*
X234555000Y-73088000D03*
X219315000Y-90868000D03*
X234555000Y-75628000D03*
X219315000Y-88328000D03*
X234555000Y-78168000D03*
X219315000Y-85788000D03*
X234555000Y-80708000D03*
X219315000Y-83248000D03*
X234555000Y-83248000D03*
X219315000Y-80708000D03*
X234555000Y-85788000D03*
X219315000Y-78168000D03*
X234555000Y-88328000D03*
X219315000Y-75628000D03*
X234555000Y-90868000D03*
X219315000Y-73088000D03*
X234555000Y-93408000D03*
X219315000Y-70548000D03*
X234555000Y-95948000D03*
X219315000Y-68008000D03*
X234555000Y-98488000D03*
X219315000Y-65468000D03*
X234555000Y-101028000D03*
X219315000Y-62928000D03*
X234555000Y-103568000D03*
X219315000Y-60388000D03*
X234555000Y-106108000D03*
D13*
X219315000Y-57848000D03*
%TD*%
D12*
%TO.C,IC7*%
X102390000Y-102964000D03*
X94770000Y-118204000D03*
X102390000Y-105504000D03*
X94770000Y-115664000D03*
X102390000Y-108044000D03*
X94770000Y-113124000D03*
X102390000Y-110584000D03*
X94770000Y-110584000D03*
X102390000Y-113124000D03*
X94770000Y-108044000D03*
X102390000Y-115664000D03*
X94770000Y-105504000D03*
X102390000Y-118204000D03*
D13*
X94770000Y-102964000D03*
%TD*%
D12*
%TO.C,IC6*%
X86980000Y-102964000D03*
X79360000Y-120744000D03*
X86980000Y-105504000D03*
X79360000Y-118204000D03*
X86980000Y-108044000D03*
X79360000Y-115664000D03*
X86980000Y-110584000D03*
X79360000Y-113124000D03*
X86980000Y-113124000D03*
X79360000Y-110584000D03*
X86980000Y-115664000D03*
X79360000Y-108044000D03*
X86980000Y-118204000D03*
X79360000Y-105504000D03*
X86980000Y-120744000D03*
D13*
X79360000Y-102964000D03*
%TD*%
D12*
%TO.C,IC5*%
X207495000Y-57848000D03*
X192255000Y-106108000D03*
X207495000Y-60388000D03*
X192255000Y-103568000D03*
X207495000Y-62928000D03*
X192255000Y-101028000D03*
X207495000Y-65468000D03*
X192255000Y-98488000D03*
X207495000Y-68008000D03*
X192255000Y-95948000D03*
X207495000Y-70548000D03*
X192255000Y-93408000D03*
X207495000Y-73088000D03*
X192255000Y-90868000D03*
X207495000Y-75628000D03*
X192255000Y-88328000D03*
X207495000Y-78168000D03*
X192255000Y-85788000D03*
X207495000Y-80708000D03*
X192255000Y-83248000D03*
X207495000Y-83248000D03*
X192255000Y-80708000D03*
X207495000Y-85788000D03*
X192255000Y-78168000D03*
X207495000Y-88328000D03*
X192255000Y-75628000D03*
X207495000Y-90868000D03*
X192255000Y-73088000D03*
X207495000Y-93408000D03*
X192255000Y-70548000D03*
X207495000Y-95948000D03*
X192255000Y-68008000D03*
X207495000Y-98488000D03*
X192255000Y-65468000D03*
X207495000Y-101028000D03*
X192255000Y-62928000D03*
X207495000Y-103568000D03*
X192255000Y-60388000D03*
X207495000Y-106108000D03*
D13*
X192255000Y-57848000D03*
%TD*%
D12*
%TO.C,IC4*%
X50546000Y-90932000D03*
X42926000Y-108712000D03*
X50546000Y-93472000D03*
X42926000Y-106172000D03*
X50546000Y-96012000D03*
X42926000Y-103632000D03*
X50546000Y-98552000D03*
X42926000Y-101092000D03*
X50546000Y-101092000D03*
X42926000Y-98552000D03*
X50546000Y-103632000D03*
X42926000Y-96012000D03*
X50546000Y-106172000D03*
X42926000Y-93472000D03*
X50546000Y-108712000D03*
D13*
X42926000Y-90932000D03*
%TD*%
D12*
%TO.C,IC2*%
X50546000Y-36068000D03*
X42926000Y-43688000D03*
X50546000Y-38608000D03*
X42926000Y-41148000D03*
X50546000Y-41148000D03*
X42926000Y-38608000D03*
X50546000Y-43688000D03*
D13*
X42926000Y-36068000D03*
%TD*%
D12*
%TO.C,IC1*%
X98630000Y-10040000D03*
X91010000Y-32900000D03*
X98630000Y-12580000D03*
X91010000Y-30360000D03*
X98630000Y-15120000D03*
X91010000Y-27820000D03*
X98630000Y-17660000D03*
X91010000Y-25280000D03*
X98630000Y-20200000D03*
X91010000Y-22740000D03*
X98630000Y-22740000D03*
X91010000Y-20200000D03*
X98630000Y-25280000D03*
X91010000Y-17660000D03*
X98630000Y-27820000D03*
X91010000Y-15120000D03*
X98630000Y-30360000D03*
X91010000Y-12580000D03*
X98630000Y-32900000D03*
D13*
X91010000Y-10040000D03*
%TD*%
D14*
%TO.C,D1*%
X14745000Y-13895000D03*
D20*
X7125000Y-13895000D03*
%TD*%
D21*
%TO.C,C69*%
X27965000Y-83874800D03*
X32965000Y-83874800D03*
%TD*%
%TO.C,C68*%
X30724000Y-14145000D03*
X35724000Y-14145000D03*
%TD*%
%TO.C,C67*%
X292495000Y-84765000D03*
X287495000Y-84765000D03*
%TD*%
%TO.C,C65*%
X287495000Y-79565000D03*
X292495000Y-79565000D03*
%TD*%
%TO.C,C62*%
X269958000Y-65200000D03*
X274958000Y-65200000D03*
%TD*%
%TO.C,C61*%
X294210000Y-65650000D03*
X289210000Y-65650000D03*
%TD*%
%TO.C,C60*%
X97400000Y-4749000D03*
X92400000Y-4749000D03*
%TD*%
%TO.C,C59*%
X224491000Y-4749000D03*
X229491000Y-4749000D03*
%TD*%
%TO.C,C57*%
X269958000Y-24230000D03*
X274958000Y-24230000D03*
%TD*%
%TO.C,C56*%
X288100000Y-24230000D03*
X293100000Y-24230000D03*
%TD*%
%TO.C,C53*%
X163016000Y-97884000D03*
X158016000Y-97884000D03*
%TD*%
%TO.C,C52*%
X163016000Y-69690000D03*
X158016000Y-69690000D03*
%TD*%
%TO.C,C51*%
X85610000Y-97810000D03*
X80610000Y-97810000D03*
%TD*%
%TO.C,C50*%
X175480000Y-4749000D03*
X170480000Y-4749000D03*
%TD*%
%TO.C,C47*%
X147776000Y-97884000D03*
X142776000Y-97884000D03*
%TD*%
%TO.C,C46*%
X147776000Y-69690000D03*
X142776000Y-69690000D03*
%TD*%
%TO.C,C45*%
X203155000Y-4749000D03*
X198155000Y-4749000D03*
%TD*%
%TO.C,C43*%
X132536000Y-97884000D03*
X127536000Y-97884000D03*
%TD*%
%TO.C,C42*%
X132536000Y-69690000D03*
X127536000Y-69690000D03*
%TD*%
%TO.C,C41*%
X148705000Y-4749000D03*
X143705000Y-4749000D03*
%TD*%
%TO.C,C40*%
X117330000Y-97810000D03*
X112330000Y-97810000D03*
%TD*%
%TO.C,C39*%
X117280000Y-69635000D03*
X112280000Y-69635000D03*
%TD*%
%TO.C,C38*%
X256816000Y-24230000D03*
X251816000Y-24230000D03*
%TD*%
%TO.C,C34*%
X121955000Y-4749000D03*
X116955000Y-4749000D03*
%TD*%
%TO.C,C28*%
X256816000Y-65200000D03*
X251816000Y-65200000D03*
%TD*%
%TO.C,C27*%
X88500000Y-91180000D03*
X93500000Y-91180000D03*
%TD*%
%TO.C,C18*%
X229680000Y-52765000D03*
X224680000Y-52765000D03*
%TD*%
%TO.C,C17*%
X64984000Y-115675000D03*
X59984000Y-115675000D03*
%TD*%
%TO.C,C16*%
X64984000Y-82933600D03*
X59984000Y-82933600D03*
%TD*%
%TO.C,C15*%
X64984000Y-79659500D03*
X59984000Y-79659500D03*
%TD*%
%TO.C,C14*%
X64984000Y-76385300D03*
X59984000Y-76385300D03*
%TD*%
%TO.C,C13*%
X64984000Y-73111200D03*
X59984000Y-73111200D03*
%TD*%
%TO.C,C12*%
X202005000Y-52765000D03*
X197005000Y-52765000D03*
%TD*%
%TO.C,C11*%
X32965000Y-88277900D03*
X27965000Y-88277900D03*
%TD*%
%TO.C,C8*%
X35724000Y-9690000D03*
X30724000Y-9690000D03*
%TD*%
%TO.C,C7*%
X27965000Y-118800000D03*
X32965000Y-118800000D03*
%TD*%
%TO.C,C6*%
X32965000Y-66262200D03*
X27965000Y-66262200D03*
%TD*%
%TO.C,C5*%
X29335000Y-51800000D03*
X24335000Y-51800000D03*
%TD*%
%TO.C,C4*%
X29335000Y-47425000D03*
X24335000Y-47425000D03*
%TD*%
%TO.C,C3*%
X29335000Y-35300000D03*
X24335000Y-35300000D03*
%TD*%
%TO.C,C2*%
X13435000Y-1780000D03*
X8435000Y-1780000D03*
%TD*%
%TO.C,C1*%
X13435000Y6630000D03*
X8435000Y6630000D03*
%TD*%
D14*
%TO.C,D19*%
X175380000Y13168700D03*
D20*
X167760000Y13168700D03*
%TD*%
D14*
%TO.C,D14*%
X66294000Y-53716400D03*
D20*
X58674000Y-53716400D03*
%TD*%
D14*
%TO.C,D13*%
X66294000Y-47668100D03*
D20*
X58674000Y-47668100D03*
%TD*%
D14*
%TO.C,D12*%
X66294000Y-28523300D03*
D20*
X58674000Y-28523300D03*
%TD*%
D14*
%TO.C,D11*%
X37034000Y-5485000D03*
D20*
X29414000Y-5485000D03*
%TD*%
D14*
%TO.C,D10*%
X37034000Y-1530000D03*
D20*
X29414000Y-1530000D03*
%TD*%
D14*
%TO.C,D9*%
X37034000Y2425000D03*
D20*
X29414000Y2425000D03*
%TD*%
D14*
%TO.C,D3*%
X30645000Y-43300000D03*
D20*
X23025000Y-43300000D03*
%TD*%
D14*
%TO.C,D2*%
X30645000Y-39425000D03*
D20*
X23025000Y-39425000D03*
%TD*%
D12*
%TO.C,U1*%
X50390200Y-50575000D03*
X42770200Y-68355000D03*
X50390200Y-53115000D03*
X42770200Y-65815000D03*
X50390200Y-55655000D03*
X42770200Y-63275000D03*
X50390200Y-58195000D03*
X42770200Y-60735000D03*
X50390200Y-60735000D03*
X42770200Y-58195000D03*
X50390200Y-63275000D03*
X42770200Y-55655000D03*
X50390200Y-65815000D03*
X42770200Y-53115000D03*
X50390200Y-68355000D03*
D13*
X42770200Y-50575000D03*
%TD*%
D14*
%TO.C,L4*%
X26655000Y-92531100D03*
D15*
X34275000Y-92531100D03*
%TD*%
D14*
%TO.C,L3*%
X58674000Y-22375000D03*
D15*
X66294000Y-22375000D03*
%TD*%
D14*
%TO.C,L2*%
X26655000Y-62009000D03*
D15*
X34275000Y-62009000D03*
%TD*%
D14*
%TO.C,L1*%
X7125000Y-5585000D03*
D15*
X14745000Y-5585000D03*
%TD*%
D22*
%TO.C,C25*%
X11375000Y-32550000D03*
D23*
X9375000Y-32550000D03*
%TD*%
D22*
%TO.C,C24*%
X11375000Y-26000000D03*
D23*
X9375000Y-26000000D03*
%TD*%
D22*
%TO.C,C10*%
X11375000Y-39100000D03*
D23*
X9375000Y-39100000D03*
%TD*%
D22*
%TO.C,C9*%
X11375000Y-19450000D03*
D23*
X9375000Y-19450000D03*
%TD*%
D24*
%TO.C,H8*%
X327000000Y6000000D03*
%TD*%
%TO.C,H7*%
X177890000Y-69340000D03*
%TD*%
%TO.C,H6*%
X327000000Y-129000000D03*
%TD*%
%TO.C,H5*%
X4000000Y27000000D03*
%TD*%
%TO.C,H4*%
X327000000Y-90000000D03*
%TD*%
%TO.C,H3*%
X215000000Y27000000D03*
%TD*%
%TO.C,H2*%
X4000000Y-129000000D03*
%TD*%
%TO.C,H1*%
X4000000Y-90000000D03*
%TD*%
D25*
%TO.C,PL9*%
X312932500Y25616000D03*
X247527500Y25616000D03*
D26*
X304360000Y16980000D03*
X301820000Y16980000D03*
X299280000Y16980000D03*
X296740000Y16980000D03*
X294200000Y16980000D03*
X291660000Y16980000D03*
X289120000Y16980000D03*
X286580000Y16980000D03*
X284040000Y16980000D03*
X281500000Y16980000D03*
X278960000Y16980000D03*
X276420000Y16980000D03*
X273880000Y16980000D03*
X271340000Y16980000D03*
X268800000Y16980000D03*
X266260000Y16980000D03*
X263720000Y16980000D03*
X261180000Y16980000D03*
X258640000Y16980000D03*
X256100000Y16980000D03*
X304360000Y11900000D03*
X301820000Y11900000D03*
X299280000Y11900000D03*
X296740000Y11900000D03*
X294200000Y11900000D03*
X291660000Y11900000D03*
X289120000Y11900000D03*
X286580000Y11900000D03*
X284040000Y11900000D03*
X281500000Y11900000D03*
X278960000Y11900000D03*
X276420000Y11900000D03*
X273880000Y11900000D03*
X271340000Y11900000D03*
X268800000Y11900000D03*
X266260000Y11900000D03*
X263720000Y11900000D03*
X261180000Y11900000D03*
X258640000Y11900000D03*
D27*
G36*
X256724504Y12748796D02*
G01*
X256748773Y12745196D01*
X256772571Y12739235D01*
X256795671Y12730970D01*
X256817849Y12720480D01*
X256838893Y12707867D01*
X256858598Y12693253D01*
X256876777Y12676777D01*
X256893253Y12658598D01*
X256907867Y12638893D01*
X256920480Y12617849D01*
X256930970Y12595671D01*
X256939235Y12572571D01*
X256945196Y12548773D01*
X256948796Y12524504D01*
X256950000Y12500000D01*
X256950000Y11300000D01*
X256948796Y11275496D01*
X256945196Y11251227D01*
X256939235Y11227429D01*
X256930970Y11204329D01*
X256920480Y11182151D01*
X256907867Y11161107D01*
X256893253Y11141402D01*
X256876777Y11123223D01*
X256858598Y11106747D01*
X256838893Y11092133D01*
X256817849Y11079520D01*
X256795671Y11069030D01*
X256772571Y11060765D01*
X256748773Y11054804D01*
X256724504Y11051204D01*
X256700000Y11050000D01*
X255500000Y11050000D01*
X255475496Y11051204D01*
X255451227Y11054804D01*
X255427429Y11060765D01*
X255404329Y11069030D01*
X255382151Y11079520D01*
X255361107Y11092133D01*
X255341402Y11106747D01*
X255323223Y11123223D01*
X255306747Y11141402D01*
X255292133Y11161107D01*
X255279520Y11182151D01*
X255269030Y11204329D01*
X255260765Y11227429D01*
X255254804Y11251227D01*
X255251204Y11275496D01*
X255250000Y11300000D01*
X255250000Y12500000D01*
X255251204Y12524504D01*
X255254804Y12548773D01*
X255260765Y12572571D01*
X255269030Y12595671D01*
X255279520Y12617849D01*
X255292133Y12638893D01*
X255306747Y12658598D01*
X255323223Y12676777D01*
X255341402Y12693253D01*
X255361107Y12707867D01*
X255382151Y12720480D01*
X255404329Y12730970D01*
X255427429Y12739235D01*
X255451227Y12745196D01*
X255475496Y12748796D01*
X255500000Y12750000D01*
X256700000Y12750000D01*
X256724504Y12748796D01*
G37*
%TD*%
D18*
%TO.C,PL6*%
X11455000Y24925000D03*
X13995000Y24925000D03*
X16535000Y24925000D03*
X19075000Y24925000D03*
X21615000Y24925000D03*
X24155000Y24925000D03*
X26695000Y24925000D03*
X29235000Y24925000D03*
D19*
X31775000Y24925000D03*
%TD*%
D28*
%TO.C,J1*%
X272810000Y-122690000D03*
X277010000Y-122690000D03*
X281210000Y-122690000D03*
X285410000Y-122690000D03*
X289610000Y-122690000D03*
X293810000Y-122690000D03*
X298010000Y-122690000D03*
X302210000Y-122690000D03*
X306410000Y-122690000D03*
X310610000Y-122690000D03*
X272810000Y-128190000D03*
X277010000Y-128190000D03*
X281210000Y-128190000D03*
X285410000Y-128190000D03*
X289610000Y-128190000D03*
X293810000Y-128190000D03*
X298010000Y-128190000D03*
X302210000Y-128190000D03*
X306410000Y-128190000D03*
D27*
G36*
X311734503Y-126541204D02*
G01*
X311758772Y-126544804D01*
X311782570Y-126550765D01*
X311805670Y-126559030D01*
X311827849Y-126569520D01*
X311848892Y-126582133D01*
X311868598Y-126596748D01*
X311886776Y-126613224D01*
X311903252Y-126631402D01*
X311917867Y-126651108D01*
X311930480Y-126672151D01*
X311940970Y-126694330D01*
X311949235Y-126717430D01*
X311955196Y-126741228D01*
X311958796Y-126765497D01*
X311960000Y-126790001D01*
X311960000Y-129589999D01*
X311958796Y-129614503D01*
X311955196Y-129638772D01*
X311949235Y-129662570D01*
X311940970Y-129685670D01*
X311930480Y-129707849D01*
X311917867Y-129728892D01*
X311903252Y-129748598D01*
X311886776Y-129766776D01*
X311868598Y-129783252D01*
X311848892Y-129797867D01*
X311827849Y-129810480D01*
X311805670Y-129820970D01*
X311782570Y-129829235D01*
X311758772Y-129835196D01*
X311734503Y-129838796D01*
X311709999Y-129840000D01*
X309510001Y-129840000D01*
X309485497Y-129838796D01*
X309461228Y-129835196D01*
X309437430Y-129829235D01*
X309414330Y-129820970D01*
X309392151Y-129810480D01*
X309371108Y-129797867D01*
X309351402Y-129783252D01*
X309333224Y-129766776D01*
X309316748Y-129748598D01*
X309302133Y-129728892D01*
X309289520Y-129707849D01*
X309279030Y-129685670D01*
X309270765Y-129662570D01*
X309264804Y-129638772D01*
X309261204Y-129614503D01*
X309260000Y-129589999D01*
X309260000Y-126790001D01*
X309261204Y-126765497D01*
X309264804Y-126741228D01*
X309270765Y-126717430D01*
X309279030Y-126694330D01*
X309289520Y-126672151D01*
X309302133Y-126651108D01*
X309316748Y-126631402D01*
X309333224Y-126613224D01*
X309351402Y-126596748D01*
X309371108Y-126582133D01*
X309392151Y-126569520D01*
X309414330Y-126559030D01*
X309437430Y-126550765D01*
X309461228Y-126544804D01*
X309485497Y-126541204D01*
X309510001Y-126540000D01*
X311709999Y-126540000D01*
X311734503Y-126541204D01*
G37*
%TD*%
D22*
%TO.C,C64*%
X300690000Y-96210000D03*
D23*
X302690000Y-96210000D03*
%TD*%
D22*
%TO.C,C63*%
X233450000Y3825000D03*
D23*
X231450000Y3825000D03*
%TD*%
D22*
%TO.C,C58*%
X243270000Y-95800000D03*
D23*
X245270000Y-95800000D03*
%TD*%
D22*
%TO.C,C55*%
X176380000Y-116780000D03*
D23*
X178380000Y-116780000D03*
%TD*%
D22*
%TO.C,C26*%
X134350000Y1070000D03*
D23*
X132350000Y1070000D03*
%TD*%
D22*
%TO.C,C71*%
X63370000Y-129240000D03*
D23*
X61370000Y-129240000D03*
%TD*%
D22*
%TO.C,C70*%
X81930000Y-129240000D03*
D23*
X79930000Y-129240000D03*
%TD*%
D22*
%TO.C,C23*%
X11375000Y-45650000D03*
D23*
X9375000Y-45650000D03*
%TD*%
D22*
%TO.C,C19*%
X192130000Y12750000D03*
D23*
X194130000Y12750000D03*
%TD*%
D25*
%TO.C,PL7*%
X312832500Y-3584000D03*
X247427500Y-3584000D03*
D26*
X304260000Y-12220000D03*
X301720000Y-12220000D03*
X299180000Y-12220000D03*
X296640000Y-12220000D03*
X294100000Y-12220000D03*
X291560000Y-12220000D03*
X289020000Y-12220000D03*
X286480000Y-12220000D03*
X283940000Y-12220000D03*
X281400000Y-12220000D03*
X278860000Y-12220000D03*
X276320000Y-12220000D03*
X273780000Y-12220000D03*
X271240000Y-12220000D03*
X268700000Y-12220000D03*
X266160000Y-12220000D03*
X263620000Y-12220000D03*
X261080000Y-12220000D03*
X258540000Y-12220000D03*
X256000000Y-12220000D03*
X304260000Y-17300000D03*
X301720000Y-17300000D03*
X299180000Y-17300000D03*
X296640000Y-17300000D03*
X294100000Y-17300000D03*
X291560000Y-17300000D03*
X289020000Y-17300000D03*
X286480000Y-17300000D03*
X283940000Y-17300000D03*
X281400000Y-17300000D03*
X278860000Y-17300000D03*
X276320000Y-17300000D03*
X273780000Y-17300000D03*
X271240000Y-17300000D03*
X268700000Y-17300000D03*
X266160000Y-17300000D03*
X263620000Y-17300000D03*
X261080000Y-17300000D03*
X258540000Y-17300000D03*
D27*
G36*
X256624504Y-16451204D02*
G01*
X256648773Y-16454804D01*
X256672571Y-16460765D01*
X256695671Y-16469030D01*
X256717849Y-16479520D01*
X256738893Y-16492133D01*
X256758598Y-16506747D01*
X256776777Y-16523223D01*
X256793253Y-16541402D01*
X256807867Y-16561107D01*
X256820480Y-16582151D01*
X256830970Y-16604329D01*
X256839235Y-16627429D01*
X256845196Y-16651227D01*
X256848796Y-16675496D01*
X256850000Y-16700000D01*
X256850000Y-17900000D01*
X256848796Y-17924504D01*
X256845196Y-17948773D01*
X256839235Y-17972571D01*
X256830970Y-17995671D01*
X256820480Y-18017849D01*
X256807867Y-18038893D01*
X256793253Y-18058598D01*
X256776777Y-18076777D01*
X256758598Y-18093253D01*
X256738893Y-18107867D01*
X256717849Y-18120480D01*
X256695671Y-18130970D01*
X256672571Y-18139235D01*
X256648773Y-18145196D01*
X256624504Y-18148796D01*
X256600000Y-18150000D01*
X255400000Y-18150000D01*
X255375496Y-18148796D01*
X255351227Y-18145196D01*
X255327429Y-18139235D01*
X255304329Y-18130970D01*
X255282151Y-18120480D01*
X255261107Y-18107867D01*
X255241402Y-18093253D01*
X255223223Y-18076777D01*
X255206747Y-18058598D01*
X255192133Y-18038893D01*
X255179520Y-18017849D01*
X255169030Y-17995671D01*
X255160765Y-17972571D01*
X255154804Y-17948773D01*
X255151204Y-17924504D01*
X255150000Y-17900000D01*
X255150000Y-16700000D01*
X255151204Y-16675496D01*
X255154804Y-16651227D01*
X255160765Y-16627429D01*
X255169030Y-16604329D01*
X255179520Y-16582151D01*
X255192133Y-16561107D01*
X255206747Y-16541402D01*
X255223223Y-16523223D01*
X255241402Y-16506747D01*
X255261107Y-16492133D01*
X255282151Y-16479520D01*
X255304329Y-16469030D01*
X255327429Y-16460765D01*
X255351227Y-16454804D01*
X255375496Y-16451204D01*
X255400000Y-16450000D01*
X256600000Y-16450000D01*
X256624504Y-16451204D01*
G37*
%TD*%
D29*
%TO.C,REG1*%
X72210000Y-129000000D03*
X69670000Y-129000000D03*
X70940000Y-130270000D03*
%TD*%
D30*
%TO.C,PL8*%
X98390000Y25710000D03*
X93390000Y25710000D03*
D31*
X103390000Y10810000D03*
X88390000Y10810000D03*
X95890000Y15810000D03*
X88390000Y15810000D03*
X103390000Y15810000D03*
X90890000Y13310000D03*
X100890000Y13310000D03*
D30*
X90890000Y25710000D03*
X100890000Y25710000D03*
%TD*%
D27*
%TO.C,PL2*%
G36*
X49549504Y22673796D02*
G01*
X49573773Y22670196D01*
X49597571Y22664235D01*
X49620671Y22655970D01*
X49642849Y22645480D01*
X49663893Y22632867D01*
X49683598Y22618253D01*
X49701777Y22601777D01*
X49718253Y22583598D01*
X49732867Y22563893D01*
X49745480Y22542849D01*
X49755970Y22520671D01*
X49764235Y22497571D01*
X49770196Y22473773D01*
X49773796Y22449504D01*
X49775000Y22425000D01*
X49775000Y21225000D01*
X49773796Y21200496D01*
X49770196Y21176227D01*
X49764235Y21152429D01*
X49755970Y21129329D01*
X49745480Y21107151D01*
X49732867Y21086107D01*
X49718253Y21066402D01*
X49701777Y21048223D01*
X49683598Y21031747D01*
X49663893Y21017133D01*
X49642849Y21004520D01*
X49620671Y20994030D01*
X49597571Y20985765D01*
X49573773Y20979804D01*
X49549504Y20976204D01*
X49525000Y20975000D01*
X48325000Y20975000D01*
X48300496Y20976204D01*
X48276227Y20979804D01*
X48252429Y20985765D01*
X48229329Y20994030D01*
X48207151Y21004520D01*
X48186107Y21017133D01*
X48166402Y21031747D01*
X48148223Y21048223D01*
X48131747Y21066402D01*
X48117133Y21086107D01*
X48104520Y21107151D01*
X48094030Y21129329D01*
X48085765Y21152429D01*
X48079804Y21176227D01*
X48076204Y21200496D01*
X48075000Y21225000D01*
X48075000Y22425000D01*
X48076204Y22449504D01*
X48079804Y22473773D01*
X48085765Y22497571D01*
X48094030Y22520671D01*
X48104520Y22542849D01*
X48117133Y22563893D01*
X48131747Y22583598D01*
X48148223Y22601777D01*
X48166402Y22618253D01*
X48186107Y22632867D01*
X48207151Y22645480D01*
X48229329Y22655970D01*
X48252429Y22664235D01*
X48276227Y22670196D01*
X48300496Y22673796D01*
X48325000Y22675000D01*
X49525000Y22675000D01*
X49549504Y22673796D01*
G37*
D26*
X51465000Y21825000D03*
X54005000Y21825000D03*
X56545000Y21825000D03*
X59085000Y21825000D03*
X61625000Y21825000D03*
X64165000Y21825000D03*
X66705000Y21825000D03*
X69245000Y21825000D03*
X71785000Y21825000D03*
X48925000Y24365000D03*
X51465000Y24365000D03*
X54005000Y24365000D03*
X56545000Y24365000D03*
X59085000Y24365000D03*
X61625000Y24365000D03*
X64165000Y24365000D03*
X66705000Y24365000D03*
X69245000Y24365000D03*
X71785000Y24365000D03*
D32*
X43020000Y23625000D03*
X77690000Y23625000D03*
%TD*%
D33*
%TO.C,RLA1*%
X45550000Y-28675000D03*
X45550000Y-21055000D03*
X43010000Y-28675000D03*
X32850000Y-28675000D03*
X43010000Y-21055000D03*
X32850000Y-21055000D03*
%TD*%
D30*
%TO.C,PL4*%
X119590000Y25710000D03*
X114690000Y25710000D03*
D31*
X112090000Y13310000D03*
X109590000Y15810000D03*
X124590000Y15810000D03*
D30*
X112090000Y25710000D03*
D31*
X117090000Y15810000D03*
D30*
X122090000Y25710000D03*
D31*
X122090000Y13310000D03*
%TD*%
D30*
%TO.C,PL3*%
X3446000Y-107558000D03*
X3446000Y-112558000D03*
D31*
X15846000Y-115058000D03*
X13346000Y-117558000D03*
X13346000Y-102558000D03*
X18346000Y-110058000D03*
D30*
X3446000Y-115058000D03*
D31*
X13346000Y-110058000D03*
D30*
X3446000Y-105058000D03*
D31*
X15846000Y-105058000D03*
%TD*%
D30*
%TO.C,PL5*%
X3446000Y-67426000D03*
X3446000Y-72426000D03*
D31*
X15846000Y-74926000D03*
X13346000Y-77426000D03*
X13346000Y-62426000D03*
X18346000Y-69926000D03*
D30*
X3446000Y-74926000D03*
D31*
X13346000Y-69926000D03*
D30*
X3446000Y-64926000D03*
D31*
X15846000Y-64926000D03*
%TD*%
D29*
%TO.C,TR1*%
X24550000Y-23125000D03*
X24550000Y-20585000D03*
X23280000Y-21855000D03*
%TD*%
D18*
%TO.C,LK1*%
X244370000Y-74630000D03*
X244370000Y-77170000D03*
D19*
X244370000Y-79710000D03*
%TD*%
%TO.C,PL1*%
X10160000Y-132400000D03*
D18*
X12700000Y-132400000D03*
X15240000Y-132400000D03*
X17780000Y-132400000D03*
X20320000Y-132400000D03*
X22860000Y-132400000D03*
X25400000Y-132400000D03*
X27940000Y-132400000D03*
X30480000Y-132400000D03*
X33020000Y-132400000D03*
X35560000Y-132400000D03*
X38100000Y-132400000D03*
X40640000Y-132400000D03*
X43180000Y-132400000D03*
X45720000Y-132400000D03*
X48260000Y-132400000D03*
%TD*%
M02*
