%TF.GenerationSoftware,KiCad,Pcbnew,(5.1.5)-3*%
%TF.CreationDate,2022-05-11T07:43:53-05:00*%
%TF.ProjectId,dragon64,64726167-6f6e-4363-942e-6b696361645f,rev?*%
%TF.SameCoordinates,Original*%
%TF.FileFunction,Soldermask,Bot*%
%TF.FilePolarity,Negative*%
%FSLAX46Y46*%
G04 Gerber Fmt 4.6, Leading zero omitted, Abs format (unit mm)*
G04 Created by KiCad (PCBNEW (5.1.5)-3) date 2022-05-11 07:43:53*
%MOMM*%
%LPD*%
G04 APERTURE LIST*
%ADD10O,2.400000X1.600000*%
%ADD11R,2.400000X1.600000*%
%ADD12O,1.600000X1.600000*%
%ADD13R,1.600000X1.600000*%
%ADD14C,1.440000*%
%ADD15C,1.600000*%
%ADD16O,1.727200X1.727200*%
%ADD17R,1.727200X1.727200*%
%ADD18O,1.700000X1.700000*%
%ADD19R,1.700000X1.700000*%
%ADD20C,2.000000*%
%ADD21C,4.000000*%
%ADD22O,1.200000X1.200000*%
%ADD23O,1.600000X1.200000*%
%ADD24R,1.100000X1.800000*%
%ADD25C,0.100000*%
%ADD26C,1.200000*%
%ADD27R,1.200000X1.200000*%
%ADD28C,1.500000*%
%ADD29C,3.200000*%
%ADD30C,5.000000*%
%ADD31C,1.700000*%
%ADD32O,2.700000X3.300000*%
%ADD33C,8.000000*%
%ADD34O,1.600000X2.300000*%
%ADD35R,2.286000X2.286000*%
%ADD36C,2.286000*%
%ADD37C,1.300000*%
G04 APERTURE END LIST*
D10*
%TO.C,X3*%
X323390000Y-46690000D03*
X315770000Y-61930000D03*
X323390000Y-49230000D03*
X315770000Y-59390000D03*
X323390000Y-51770000D03*
X315770000Y-56850000D03*
X323390000Y-54310000D03*
X315770000Y-54310000D03*
X323390000Y-56850000D03*
X315770000Y-51770000D03*
X323390000Y-59390000D03*
X315770000Y-49230000D03*
X323390000Y-61930000D03*
D11*
X315770000Y-46690000D03*
%TD*%
D10*
%TO.C,X1*%
X116120000Y-11300000D03*
X108500000Y-26540000D03*
X116120000Y-13840000D03*
X108500000Y-24000000D03*
X116120000Y-16380000D03*
X108500000Y-21460000D03*
X116120000Y-18920000D03*
X108500000Y-18920000D03*
X116120000Y-21460000D03*
X108500000Y-16380000D03*
X116120000Y-24000000D03*
X108500000Y-13840000D03*
X116120000Y-26540000D03*
D11*
X108500000Y-11300000D03*
%TD*%
D12*
%TO.C,U10*%
X303790000Y-15540000D03*
X288550000Y-63800000D03*
X303790000Y-18080000D03*
X288550000Y-61260000D03*
X303790000Y-20620000D03*
X288550000Y-58720000D03*
X303790000Y-23160000D03*
X288550000Y-56180000D03*
X303790000Y-25700000D03*
X288550000Y-53640000D03*
X303790000Y-28240000D03*
X288550000Y-51100000D03*
X303790000Y-30780000D03*
X288550000Y-48560000D03*
X303790000Y-33320000D03*
X288550000Y-46020000D03*
X303790000Y-35860000D03*
X288550000Y-43480000D03*
X303790000Y-38400000D03*
X288550000Y-40940000D03*
X303790000Y-40940000D03*
X288550000Y-38400000D03*
X303790000Y-43480000D03*
X288550000Y-35860000D03*
X303790000Y-46020000D03*
X288550000Y-33320000D03*
X303790000Y-48560000D03*
X288550000Y-30780000D03*
X303790000Y-51100000D03*
X288550000Y-28240000D03*
X303790000Y-53640000D03*
X288550000Y-25700000D03*
X303790000Y-56180000D03*
X288550000Y-23160000D03*
X303790000Y-58720000D03*
X288550000Y-20620000D03*
X303790000Y-61260000D03*
X288550000Y-18080000D03*
X303790000Y-63800000D03*
D13*
X288550000Y-15540000D03*
%TD*%
D10*
%TO.C,U9*%
X266010000Y-69250000D03*
X258390000Y-87030000D03*
X266010000Y-71790000D03*
X258390000Y-84490000D03*
X266010000Y-74330000D03*
X258390000Y-81950000D03*
X266010000Y-76870000D03*
X258390000Y-79410000D03*
X266010000Y-79410000D03*
X258390000Y-76870000D03*
X266010000Y-81950000D03*
X258390000Y-74330000D03*
X266010000Y-84490000D03*
X258390000Y-71790000D03*
X266010000Y-87030000D03*
D11*
X258390000Y-69250000D03*
%TD*%
D10*
%TO.C,U8*%
X286060000Y-117010000D03*
X278440000Y-132250000D03*
X286060000Y-119550000D03*
X278440000Y-129710000D03*
X286060000Y-122090000D03*
X278440000Y-127170000D03*
X286060000Y-124630000D03*
X278440000Y-124630000D03*
X286060000Y-127170000D03*
X278440000Y-122090000D03*
X286060000Y-129710000D03*
X278440000Y-119550000D03*
X286060000Y-132250000D03*
D11*
X278440000Y-117010000D03*
%TD*%
D10*
%TO.C,U7*%
X266010000Y-133700000D03*
X258390000Y-151480000D03*
X266010000Y-136240000D03*
X258390000Y-148940000D03*
X266010000Y-138780000D03*
X258390000Y-146400000D03*
X266010000Y-141320000D03*
X258390000Y-143860000D03*
X266010000Y-143860000D03*
X258390000Y-141320000D03*
X266010000Y-146400000D03*
X258390000Y-138780000D03*
X266010000Y-148940000D03*
X258390000Y-136240000D03*
X266010000Y-151480000D03*
D11*
X258390000Y-133700000D03*
%TD*%
D10*
%TO.C,U6*%
X266010000Y-102510000D03*
X258390000Y-117750000D03*
X266010000Y-105050000D03*
X258390000Y-115210000D03*
X266010000Y-107590000D03*
X258390000Y-112670000D03*
X266010000Y-110130000D03*
X258390000Y-110130000D03*
X266010000Y-112670000D03*
X258390000Y-107590000D03*
X266010000Y-115210000D03*
X258390000Y-105050000D03*
X266010000Y-117750000D03*
D11*
X258390000Y-102510000D03*
%TD*%
D10*
%TO.C,U5*%
X278050000Y-22790000D03*
X262810000Y-55810000D03*
X278050000Y-25330000D03*
X262810000Y-53270000D03*
X278050000Y-27870000D03*
X262810000Y-50730000D03*
X278050000Y-30410000D03*
X262810000Y-48190000D03*
X278050000Y-32950000D03*
X262810000Y-45650000D03*
X278050000Y-35490000D03*
X262810000Y-43110000D03*
X278050000Y-38030000D03*
X262810000Y-40570000D03*
X278050000Y-40570000D03*
X262810000Y-38030000D03*
X278050000Y-43110000D03*
X262810000Y-35490000D03*
X278050000Y-45650000D03*
X262810000Y-32950000D03*
X278050000Y-48190000D03*
X262810000Y-30410000D03*
X278050000Y-50730000D03*
X262810000Y-27870000D03*
X278050000Y-53270000D03*
X262810000Y-25330000D03*
X278050000Y-55810000D03*
D11*
X262810000Y-22790000D03*
%TD*%
D10*
%TO.C,U4*%
X309520000Y-104300000D03*
X301900000Y-119540000D03*
X309520000Y-106840000D03*
X301900000Y-117000000D03*
X309520000Y-109380000D03*
X301900000Y-114460000D03*
X309520000Y-111920000D03*
X301900000Y-111920000D03*
X309520000Y-114460000D03*
X301900000Y-109380000D03*
X309520000Y-117000000D03*
X301900000Y-106840000D03*
X309520000Y-119540000D03*
D11*
X301900000Y-104300000D03*
%TD*%
D10*
%TO.C,U3*%
X286620000Y-88400000D03*
X279000000Y-103640000D03*
X286620000Y-90940000D03*
X279000000Y-101100000D03*
X286620000Y-93480000D03*
X279000000Y-98560000D03*
X286620000Y-96020000D03*
X279000000Y-96020000D03*
X286620000Y-98560000D03*
X279000000Y-93480000D03*
X286620000Y-101100000D03*
X279000000Y-90940000D03*
X286620000Y-103640000D03*
D11*
X279000000Y-88400000D03*
%TD*%
D10*
%TO.C,U2*%
X79960000Y1240000D03*
X72340000Y-14000000D03*
X79960000Y-1300000D03*
X72340000Y-11460000D03*
X79960000Y-3840000D03*
X72340000Y-8920000D03*
X79960000Y-6380000D03*
X72340000Y-6380000D03*
X79960000Y-8920000D03*
X72340000Y-3840000D03*
X79960000Y-11460000D03*
X72340000Y-1300000D03*
X79960000Y-14000000D03*
D11*
X72340000Y1240000D03*
%TD*%
D14*
%TO.C,RV2*%
X324580000Y-36400000D03*
X322040000Y-33860000D03*
X319500000Y-36400000D03*
%TD*%
%TO.C,RV1*%
X324580000Y-26740000D03*
X322040000Y-24200000D03*
X319500000Y-26740000D03*
%TD*%
D12*
%TO.C,R48*%
X301580000Y-155100000D03*
D15*
X309200000Y-155100000D03*
%TD*%
D12*
%TO.C,R47*%
X309200000Y-148175000D03*
D15*
X301580000Y-148175000D03*
%TD*%
D12*
%TO.C,R46*%
X279180000Y-155050000D03*
D15*
X286800000Y-155050000D03*
%TD*%
D12*
%TO.C,R45*%
X279180000Y-148125000D03*
D15*
X286800000Y-148125000D03*
%TD*%
D12*
%TO.C,R44*%
X309250000Y-91330000D03*
D15*
X301630000Y-91330000D03*
%TD*%
D12*
%TO.C,R10*%
X286800000Y-141200000D03*
D15*
X279180000Y-141200000D03*
%TD*%
D12*
%TO.C,R9*%
X283500000Y-42920000D03*
D15*
X283500000Y-35300000D03*
%TD*%
D16*
%TO.C,J6*%
X322850000Y-105030000D03*
X325390000Y-105030000D03*
X322850000Y-107570000D03*
X325390000Y-107570000D03*
X322850000Y-110110000D03*
X325390000Y-110110000D03*
X322850000Y-112650000D03*
X325390000Y-112650000D03*
X322850000Y-115190000D03*
X325390000Y-115190000D03*
X322850000Y-117730000D03*
X325390000Y-117730000D03*
X322850000Y-120270000D03*
X325390000Y-120270000D03*
X322850000Y-122810000D03*
X325390000Y-122810000D03*
X322850000Y-125350000D03*
X325390000Y-125350000D03*
X322850000Y-127890000D03*
X325390000Y-127890000D03*
X322850000Y-130430000D03*
X325390000Y-130430000D03*
X322850000Y-132970000D03*
X325390000Y-132970000D03*
X322850000Y-135510000D03*
X325390000Y-135510000D03*
X322850000Y-138050000D03*
X325390000Y-138050000D03*
X322850000Y-140590000D03*
X325390000Y-140590000D03*
X322850000Y-143130000D03*
X325390000Y-143130000D03*
X322850000Y-145670000D03*
D17*
X325390000Y-145670000D03*
%TD*%
D18*
%TO.C,J5*%
X269380000Y-11020000D03*
D19*
X271920000Y-11020000D03*
%TD*%
D12*
%TO.C,D8*%
X301630000Y-87420000D03*
D13*
X309250000Y-87420000D03*
%TD*%
D20*
%TO.C,C78*%
X307940000Y-95130000D03*
X302940000Y-95130000D03*
%TD*%
D15*
%TO.C,C77*%
X257000000Y100000D03*
X254500000Y100000D03*
%TD*%
D20*
%TO.C,C76*%
X259690000Y-157200000D03*
X264690000Y-157200000D03*
%TD*%
%TO.C,C75*%
X280470000Y-83650000D03*
X285470000Y-83650000D03*
%TD*%
%TO.C,C74*%
X319500000Y-20100000D03*
X324500000Y-20100000D03*
%TD*%
%TO.C,C73*%
X322070000Y-69170000D03*
X317070000Y-69170000D03*
%TD*%
%TO.C,C72*%
X103705000Y-103050000D03*
X108705000Y-103050000D03*
%TD*%
%TO.C,C71*%
X293530000Y-10660000D03*
X298530000Y-10660000D03*
%TD*%
%TO.C,C70*%
X92690000Y-4820000D03*
X97690000Y-4820000D03*
%TD*%
%TO.C,C66*%
X281100000Y-71100000D03*
X286100000Y-71100000D03*
%TD*%
%TO.C,C65*%
X272420000Y-17800000D03*
X267420000Y-17800000D03*
%TD*%
%TO.C,C55*%
X259690000Y-64230000D03*
X264690000Y-64230000D03*
%TD*%
D21*
%TO.C,J4*%
X172520000Y22310000D03*
X197520000Y22310000D03*
D15*
X180865000Y24850000D03*
X183635000Y24850000D03*
X186405000Y24850000D03*
X189175000Y24850000D03*
X179480000Y22010000D03*
X182250000Y22010000D03*
X185020000Y22010000D03*
X187790000Y22010000D03*
D13*
X190560000Y22010000D03*
%TD*%
D12*
%TO.C,R43*%
X84010000Y-31180000D03*
D15*
X84010000Y-23560000D03*
%TD*%
D12*
%TO.C,R42*%
X22680000Y6490000D03*
D15*
X22680000Y-1130000D03*
%TD*%
D22*
%TO.C,Q3*%
X66834700Y-3730000D03*
X65564700Y-5000000D03*
D23*
X64294700Y-3730000D03*
%TD*%
D22*
%TO.C,Q2*%
X66834700Y-12570000D03*
X65564700Y-13840000D03*
D23*
X64294700Y-12570000D03*
%TD*%
D24*
%TO.C,Q1*%
X62840000Y4710000D03*
D25*
G36*
X65681955Y5608676D02*
G01*
X65708650Y5604716D01*
X65734828Y5598159D01*
X65760238Y5589067D01*
X65784634Y5577528D01*
X65807782Y5563654D01*
X65829458Y5547578D01*
X65849454Y5529454D01*
X65867578Y5509458D01*
X65883654Y5487782D01*
X65897528Y5464634D01*
X65909067Y5440238D01*
X65918159Y5414828D01*
X65924716Y5388650D01*
X65928676Y5361955D01*
X65930000Y5335000D01*
X65930000Y4085000D01*
X65928676Y4058045D01*
X65924716Y4031350D01*
X65918159Y4005172D01*
X65909067Y3979762D01*
X65897528Y3955366D01*
X65883654Y3932218D01*
X65867578Y3910542D01*
X65849454Y3890546D01*
X65829458Y3872422D01*
X65807782Y3856346D01*
X65784634Y3842472D01*
X65760238Y3830933D01*
X65734828Y3821841D01*
X65708650Y3815284D01*
X65681955Y3811324D01*
X65655000Y3810000D01*
X65105000Y3810000D01*
X65078045Y3811324D01*
X65051350Y3815284D01*
X65025172Y3821841D01*
X64999762Y3830933D01*
X64975366Y3842472D01*
X64952218Y3856346D01*
X64930542Y3872422D01*
X64910546Y3890546D01*
X64892422Y3910542D01*
X64876346Y3932218D01*
X64862472Y3955366D01*
X64850933Y3979762D01*
X64841841Y4005172D01*
X64835284Y4031350D01*
X64831324Y4058045D01*
X64830000Y4085000D01*
X64830000Y5335000D01*
X64831324Y5361955D01*
X64835284Y5388650D01*
X64841841Y5414828D01*
X64850933Y5440238D01*
X64862472Y5464634D01*
X64876346Y5487782D01*
X64892422Y5509458D01*
X64910546Y5529454D01*
X64930542Y5547578D01*
X64952218Y5563654D01*
X64975366Y5577528D01*
X64999762Y5589067D01*
X65025172Y5598159D01*
X65051350Y5604716D01*
X65078045Y5608676D01*
X65105000Y5610000D01*
X65655000Y5610000D01*
X65681955Y5608676D01*
G37*
G36*
X64411955Y7678676D02*
G01*
X64438650Y7674716D01*
X64464828Y7668159D01*
X64490238Y7659067D01*
X64514634Y7647528D01*
X64537782Y7633654D01*
X64559458Y7617578D01*
X64579454Y7599454D01*
X64597578Y7579458D01*
X64613654Y7557782D01*
X64627528Y7534634D01*
X64639067Y7510238D01*
X64648159Y7484828D01*
X64654716Y7458650D01*
X64658676Y7431955D01*
X64660000Y7405000D01*
X64660000Y6155000D01*
X64658676Y6128045D01*
X64654716Y6101350D01*
X64648159Y6075172D01*
X64639067Y6049762D01*
X64627528Y6025366D01*
X64613654Y6002218D01*
X64597578Y5980542D01*
X64579454Y5960546D01*
X64559458Y5942422D01*
X64537782Y5926346D01*
X64514634Y5912472D01*
X64490238Y5900933D01*
X64464828Y5891841D01*
X64438650Y5885284D01*
X64411955Y5881324D01*
X64385000Y5880000D01*
X63835000Y5880000D01*
X63808045Y5881324D01*
X63781350Y5885284D01*
X63755172Y5891841D01*
X63729762Y5900933D01*
X63705366Y5912472D01*
X63682218Y5926346D01*
X63660542Y5942422D01*
X63640546Y5960546D01*
X63622422Y5980542D01*
X63606346Y6002218D01*
X63592472Y6025366D01*
X63580933Y6049762D01*
X63571841Y6075172D01*
X63565284Y6101350D01*
X63561324Y6128045D01*
X63560000Y6155000D01*
X63560000Y7405000D01*
X63561324Y7431955D01*
X63565284Y7458650D01*
X63571841Y7484828D01*
X63580933Y7510238D01*
X63592472Y7534634D01*
X63606346Y7557782D01*
X63622422Y7579458D01*
X63640546Y7599454D01*
X63660542Y7617578D01*
X63682218Y7633654D01*
X63705366Y7647528D01*
X63729762Y7659067D01*
X63755172Y7668159D01*
X63781350Y7674716D01*
X63808045Y7678676D01*
X63835000Y7680000D01*
X64385000Y7680000D01*
X64411955Y7678676D01*
G37*
%TD*%
D12*
%TO.C,D7*%
X37230000Y850000D03*
D13*
X29610000Y850000D03*
%TD*%
D12*
%TO.C,D6*%
X37230000Y-2230000D03*
D13*
X29610000Y-2230000D03*
%TD*%
D26*
%TO.C,C54*%
X11300000Y-51270000D03*
D27*
X9300000Y-51270000D03*
%TD*%
D20*
%TO.C,C49*%
X83900000Y-19760000D03*
X78900000Y-19760000D03*
%TD*%
%TO.C,C48*%
X22510000Y-5410000D03*
X22510000Y-10410000D03*
%TD*%
D12*
%TO.C,R41*%
X78520000Y-31100000D03*
D15*
X78520000Y-23480000D03*
%TD*%
D12*
%TO.C,R31*%
X48000000Y-7630000D03*
D15*
X55620000Y-7630000D03*
%TD*%
D12*
%TO.C,R30*%
X55620000Y2930000D03*
D15*
X48000000Y2930000D03*
%TD*%
D12*
%TO.C,R13*%
X55620000Y-720000D03*
D15*
X48000000Y-720000D03*
%TD*%
D12*
%TO.C,R12*%
X29100000Y14670000D03*
D15*
X36720000Y14670000D03*
%TD*%
D12*
%TO.C,R11*%
X55620000Y-4270000D03*
D15*
X48000000Y-4270000D03*
%TD*%
D12*
%TO.C,R8*%
X29260000Y10870000D03*
D15*
X36880000Y10870000D03*
%TD*%
D12*
%TO.C,R7*%
X72390000Y9320000D03*
D15*
X80010000Y9320000D03*
%TD*%
D12*
%TO.C,R6*%
X48000000Y-14540000D03*
D15*
X55620000Y-14540000D03*
%TD*%
D18*
%TO.C,J3*%
X15980000Y12080000D03*
D19*
X13440000Y12080000D03*
%TD*%
D12*
%TO.C,D5*%
X78100000Y-52020000D03*
D13*
X78100000Y-44400000D03*
%TD*%
D12*
%TO.C,D4*%
X72440000Y6100000D03*
D13*
X80060000Y6100000D03*
%TD*%
D20*
%TO.C,C44*%
X14360000Y16120000D03*
X19360000Y16120000D03*
%TD*%
%TO.C,C37*%
X49310000Y6480000D03*
X54310000Y6480000D03*
%TD*%
D26*
%TO.C,C36*%
X134730000Y11600000D03*
D27*
X132730000Y11600000D03*
%TD*%
D20*
%TO.C,C35*%
X86330000Y3190000D03*
X86330000Y-1810000D03*
%TD*%
%TO.C,C33*%
X313700000Y6900000D03*
X318700000Y6900000D03*
%TD*%
%TO.C,C32*%
X49460000Y-116110000D03*
X44460000Y-116110000D03*
%TD*%
%TO.C,C31*%
X60000000Y-119570000D03*
X65000000Y-119570000D03*
%TD*%
%TO.C,C30*%
X54310000Y-10990000D03*
X49310000Y-10990000D03*
%TD*%
%TO.C,C29*%
X49120000Y-76010000D03*
X44120000Y-76010000D03*
%TD*%
%TO.C,C22*%
X88700000Y-45300000D03*
X83700000Y-45300000D03*
%TD*%
%TO.C,C21*%
X85390000Y-8430000D03*
X85390000Y-13430000D03*
%TD*%
%TO.C,C20*%
X49110000Y-83260000D03*
X44110000Y-83260000D03*
%TD*%
D18*
%TO.C,J2*%
X139130000Y25850000D03*
X141670000Y25850000D03*
X144210000Y25850000D03*
X146750000Y25850000D03*
X149290000Y25850000D03*
D19*
X151830000Y25850000D03*
%TD*%
D28*
%TO.C,Y2*%
X181380000Y-126400000D03*
X176500000Y-126400000D03*
%TD*%
D12*
%TO.C,R85*%
X5750000Y11855000D03*
D15*
X5750000Y19475000D03*
%TD*%
D12*
%TO.C,R83*%
X68320000Y-154000000D03*
D15*
X60700000Y-154000000D03*
%TD*%
D12*
%TO.C,R82*%
X68320000Y-147600000D03*
D15*
X60700000Y-147600000D03*
%TD*%
D12*
%TO.C,R81*%
X68320000Y-141200000D03*
D15*
X60700000Y-141200000D03*
%TD*%
D12*
%TO.C,R80*%
X68320000Y-144400000D03*
D15*
X60700000Y-144400000D03*
%TD*%
D12*
%TO.C,R79*%
X68320000Y-150800000D03*
D15*
X60700000Y-150800000D03*
%TD*%
D12*
%TO.C,R78*%
X162860000Y-142200000D03*
D15*
X155240000Y-142200000D03*
%TD*%
D12*
%TO.C,R77*%
X137980000Y-142200000D03*
D15*
X130360000Y-142200000D03*
%TD*%
D12*
%TO.C,R76*%
X113100000Y-142200000D03*
D15*
X105480000Y-142200000D03*
%TD*%
D12*
%TO.C,R75*%
X88220000Y-142200000D03*
D15*
X80600000Y-142200000D03*
%TD*%
D12*
%TO.C,R74*%
X212620000Y-142200000D03*
D15*
X205000000Y-142200000D03*
%TD*%
D12*
%TO.C,R73*%
X187740000Y-142200000D03*
D15*
X180120000Y-142200000D03*
%TD*%
D12*
%TO.C,R71*%
X291580000Y-5200000D03*
D15*
X299200000Y-5200000D03*
%TD*%
D12*
%TO.C,R70*%
X159020000Y-75500000D03*
D15*
X151400000Y-75500000D03*
%TD*%
D12*
%TO.C,R69*%
X167760000Y16494600D03*
D15*
X175380000Y16494600D03*
%TD*%
D12*
%TO.C,R68*%
X149100000Y2110500D03*
D15*
X156720000Y2110500D03*
%TD*%
D12*
%TO.C,R67*%
X149100000Y6266900D03*
D15*
X156720000Y6266900D03*
%TD*%
D12*
%TO.C,R66*%
X149100000Y9842800D03*
D15*
X156720000Y9842800D03*
%TD*%
D12*
%TO.C,R65*%
X156720000Y12918700D03*
D15*
X149100000Y12918700D03*
%TD*%
D12*
%TO.C,R64*%
X164600000Y-98120000D03*
D15*
X164600000Y-90500000D03*
%TD*%
D12*
%TO.C,R40*%
X66294000Y-112401000D03*
D15*
X58674000Y-112401000D03*
%TD*%
D12*
%TO.C,R39*%
X58674000Y-109127000D03*
D15*
X66294000Y-109127000D03*
%TD*%
D12*
%TO.C,R38*%
X58674000Y-105853000D03*
D15*
X66294000Y-105853000D03*
%TD*%
D12*
%TO.C,R37*%
X58674000Y-102578000D03*
D15*
X66294000Y-102578000D03*
%TD*%
D12*
%TO.C,R36*%
X58674000Y-99304300D03*
D15*
X66294000Y-99304300D03*
%TD*%
D12*
%TO.C,R35*%
X58674000Y-96030200D03*
D15*
X66294000Y-96030200D03*
%TD*%
D12*
%TO.C,R34*%
X58674000Y-92756000D03*
D15*
X66294000Y-92756000D03*
%TD*%
D12*
%TO.C,R33*%
X58674000Y-89481900D03*
D15*
X66294000Y-89481900D03*
%TD*%
D12*
%TO.C,R32*%
X66294000Y-86207700D03*
D15*
X58674000Y-86207700D03*
%TD*%
D12*
%TO.C,R29*%
X66294000Y-69837100D03*
D15*
X58674000Y-69837100D03*
%TD*%
D12*
%TO.C,R28*%
X58674000Y-66562900D03*
D15*
X66294000Y-66562900D03*
%TD*%
D12*
%TO.C,R27*%
X58674000Y-63288800D03*
D15*
X66294000Y-63288800D03*
%TD*%
D12*
%TO.C,R26*%
X66294000Y-60014600D03*
D15*
X58674000Y-60014600D03*
%TD*%
D12*
%TO.C,R25*%
X58674000Y-56740500D03*
D15*
X66294000Y-56740500D03*
%TD*%
D12*
%TO.C,R24*%
X58674000Y-50692200D03*
D15*
X66294000Y-50692200D03*
%TD*%
D12*
%TO.C,R23*%
X66294000Y-44644000D03*
D15*
X58674000Y-44644000D03*
%TD*%
D12*
%TO.C,R22*%
X66294000Y-41369800D03*
D15*
X58674000Y-41369800D03*
%TD*%
D12*
%TO.C,R21*%
X58674000Y-38095700D03*
D15*
X66294000Y-38095700D03*
%TD*%
D12*
%TO.C,R20*%
X58674000Y-34821500D03*
D15*
X66294000Y-34821500D03*
%TD*%
D12*
%TO.C,R19*%
X66294000Y-31547400D03*
D15*
X58674000Y-31547400D03*
%TD*%
D12*
%TO.C,R18*%
X58674000Y-25499100D03*
D15*
X66294000Y-25499100D03*
%TD*%
D12*
%TO.C,R17*%
X37034000Y6630000D03*
D15*
X29414000Y6630000D03*
%TD*%
D12*
%TO.C,R16*%
X34275000Y-114397000D03*
D15*
X26655000Y-114397000D03*
%TD*%
D12*
%TO.C,R15*%
X34275000Y-109994000D03*
D15*
X26655000Y-109994000D03*
%TD*%
D12*
%TO.C,R14*%
X34275000Y-105591000D03*
D15*
X26655000Y-105591000D03*
%TD*%
D12*
%TO.C,R5*%
X34275000Y-79471600D03*
D15*
X26655000Y-79471600D03*
%TD*%
D12*
%TO.C,R4*%
X26655000Y-75068500D03*
D15*
X34275000Y-75068500D03*
%TD*%
D12*
%TO.C,R3*%
X34275000Y-70665300D03*
D15*
X26655000Y-70665300D03*
%TD*%
D12*
%TO.C,R2*%
X14745000Y-9690000D03*
D15*
X7125000Y-9690000D03*
%TD*%
D12*
%TO.C,R1*%
X7125000Y2175000D03*
D15*
X14745000Y2175000D03*
%TD*%
D10*
%TO.C,IC40*%
X110025000Y-80200000D03*
X102405000Y-97980000D03*
X110025000Y-82740000D03*
X102405000Y-95440000D03*
X110025000Y-85280000D03*
X102405000Y-92900000D03*
X110025000Y-87820000D03*
X102405000Y-90360000D03*
X110025000Y-90360000D03*
X102405000Y-87820000D03*
X110025000Y-92900000D03*
X102405000Y-85280000D03*
X110025000Y-95440000D03*
X102405000Y-82740000D03*
X110025000Y-97980000D03*
D11*
X102405000Y-80200000D03*
%TD*%
D10*
%TO.C,IC39*%
X136900000Y-79800000D03*
X121660000Y-128060000D03*
X136900000Y-82340000D03*
X121660000Y-125520000D03*
X136900000Y-84880000D03*
X121660000Y-122980000D03*
X136900000Y-87420000D03*
X121660000Y-120440000D03*
X136900000Y-89960000D03*
X121660000Y-117900000D03*
X136900000Y-92500000D03*
X121660000Y-115360000D03*
X136900000Y-95040000D03*
X121660000Y-112820000D03*
X136900000Y-97580000D03*
X121660000Y-110280000D03*
X136900000Y-100120000D03*
X121660000Y-107740000D03*
X136900000Y-102660000D03*
X121660000Y-105200000D03*
X136900000Y-105200000D03*
X121660000Y-102660000D03*
X136900000Y-107740000D03*
X121660000Y-100120000D03*
X136900000Y-110280000D03*
X121660000Y-97580000D03*
X136900000Y-112820000D03*
X121660000Y-95040000D03*
X136900000Y-115360000D03*
X121660000Y-92500000D03*
X136900000Y-117900000D03*
X121660000Y-89960000D03*
X136900000Y-120440000D03*
X121660000Y-87420000D03*
X136900000Y-122980000D03*
X121660000Y-84880000D03*
X136900000Y-125520000D03*
X121660000Y-82340000D03*
X136900000Y-128060000D03*
D11*
X121660000Y-79800000D03*
%TD*%
D10*
%TO.C,IC38*%
X140600000Y-6120000D03*
X125360000Y-54380000D03*
X140600000Y-8660000D03*
X125360000Y-51840000D03*
X140600000Y-11200000D03*
X125360000Y-49300000D03*
X140600000Y-13740000D03*
X125360000Y-46760000D03*
X140600000Y-16280000D03*
X125360000Y-44220000D03*
X140600000Y-18820000D03*
X125360000Y-41680000D03*
X140600000Y-21360000D03*
X125360000Y-39140000D03*
X140600000Y-23900000D03*
X125360000Y-36600000D03*
X140600000Y-26440000D03*
X125360000Y-34060000D03*
X140600000Y-28980000D03*
X125360000Y-31520000D03*
X140600000Y-31520000D03*
X125360000Y-28980000D03*
X140600000Y-34060000D03*
X125360000Y-26440000D03*
X140600000Y-36600000D03*
X125360000Y-23900000D03*
X140600000Y-39140000D03*
X125360000Y-21360000D03*
X140600000Y-41680000D03*
X125360000Y-18820000D03*
X140600000Y-44220000D03*
X125360000Y-16280000D03*
X140600000Y-46760000D03*
X125360000Y-13740000D03*
X140600000Y-49300000D03*
X125360000Y-11200000D03*
X140600000Y-51840000D03*
X125360000Y-8660000D03*
X140600000Y-54380000D03*
D11*
X125360000Y-6120000D03*
%TD*%
D10*
%TO.C,IC37*%
X244545000Y-78350000D03*
X229305000Y-111370000D03*
X244545000Y-80890000D03*
X229305000Y-108830000D03*
X244545000Y-83430000D03*
X229305000Y-106290000D03*
X244545000Y-85970000D03*
X229305000Y-103750000D03*
X244545000Y-88510000D03*
X229305000Y-101210000D03*
X244545000Y-91050000D03*
X229305000Y-98670000D03*
X244545000Y-93590000D03*
X229305000Y-96130000D03*
X244545000Y-96130000D03*
X229305000Y-93590000D03*
X244545000Y-98670000D03*
X229305000Y-91050000D03*
X244545000Y-101210000D03*
X229305000Y-88510000D03*
X244545000Y-103750000D03*
X229305000Y-85970000D03*
X244545000Y-106290000D03*
X229305000Y-83430000D03*
X244545000Y-108830000D03*
X229305000Y-80890000D03*
X244545000Y-111370000D03*
D11*
X229305000Y-78350000D03*
%TD*%
D10*
%TO.C,IC36*%
X90020000Y-80680000D03*
X82400000Y-95920000D03*
X90020000Y-83220000D03*
X82400000Y-93380000D03*
X90020000Y-85760000D03*
X82400000Y-90840000D03*
X90020000Y-88300000D03*
X82400000Y-88300000D03*
X90020000Y-90840000D03*
X82400000Y-85760000D03*
X90020000Y-93380000D03*
X82400000Y-83220000D03*
X90020000Y-95920000D03*
D11*
X82400000Y-80680000D03*
%TD*%
D10*
%TO.C,IC35*%
X240120000Y-133500000D03*
X232500000Y-148740000D03*
X240120000Y-136040000D03*
X232500000Y-146200000D03*
X240120000Y-138580000D03*
X232500000Y-143660000D03*
X240120000Y-141120000D03*
X232500000Y-141120000D03*
X240120000Y-143660000D03*
X232500000Y-138580000D03*
X240120000Y-146200000D03*
X232500000Y-136040000D03*
X240120000Y-148740000D03*
D11*
X232500000Y-133500000D03*
%TD*%
D10*
%TO.C,IC34*%
X216540000Y-78350000D03*
X201300000Y-111370000D03*
X216540000Y-80890000D03*
X201300000Y-108830000D03*
X216540000Y-83430000D03*
X201300000Y-106290000D03*
X216540000Y-85970000D03*
X201300000Y-103750000D03*
X216540000Y-88510000D03*
X201300000Y-101210000D03*
X216540000Y-91050000D03*
X201300000Y-98670000D03*
X216540000Y-93590000D03*
X201300000Y-96130000D03*
X216540000Y-96130000D03*
X201300000Y-93590000D03*
X216540000Y-98670000D03*
X201300000Y-91050000D03*
X216540000Y-101210000D03*
X201300000Y-88510000D03*
X216540000Y-103750000D03*
X201300000Y-85970000D03*
X216540000Y-106290000D03*
X201300000Y-83430000D03*
X216540000Y-108830000D03*
X201300000Y-80890000D03*
X216540000Y-111370000D03*
D11*
X201300000Y-78350000D03*
%TD*%
D10*
%TO.C,IC33*%
X123788000Y-149670000D03*
X116168000Y-167450000D03*
X123788000Y-152210000D03*
X116168000Y-164910000D03*
X123788000Y-154750000D03*
X116168000Y-162370000D03*
X123788000Y-157290000D03*
X116168000Y-159830000D03*
X123788000Y-159830000D03*
X116168000Y-157290000D03*
X123788000Y-162370000D03*
X116168000Y-154750000D03*
X123788000Y-164910000D03*
X116168000Y-152210000D03*
X123788000Y-167450000D03*
D11*
X116168000Y-149670000D03*
%TD*%
D10*
%TO.C,IC32*%
X106140700Y-149670000D03*
X98520700Y-167450000D03*
X106140700Y-152210000D03*
X98520700Y-164910000D03*
X106140700Y-154750000D03*
X98520700Y-162370000D03*
X106140700Y-157290000D03*
X98520700Y-159830000D03*
X106140700Y-159830000D03*
X98520700Y-157290000D03*
X106140700Y-162370000D03*
X98520700Y-154750000D03*
X106140700Y-164910000D03*
X98520700Y-152210000D03*
X106140700Y-167450000D03*
D11*
X98520700Y-149670000D03*
%TD*%
D10*
%TO.C,IC27*%
X194378000Y-149670000D03*
X186758000Y-167450000D03*
X194378000Y-152210000D03*
X186758000Y-164910000D03*
X194378000Y-154750000D03*
X186758000Y-162370000D03*
X194378000Y-157290000D03*
X186758000Y-159830000D03*
X194378000Y-159830000D03*
X186758000Y-157290000D03*
X194378000Y-162370000D03*
X186758000Y-154750000D03*
X194378000Y-164910000D03*
X186758000Y-152210000D03*
X194378000Y-167450000D03*
D11*
X186758000Y-149670000D03*
%TD*%
D10*
%TO.C,IC26*%
X88493300Y-149670000D03*
X80873300Y-167450000D03*
X88493300Y-152210000D03*
X80873300Y-164910000D03*
X88493300Y-154750000D03*
X80873300Y-162370000D03*
X88493300Y-157290000D03*
X80873300Y-159830000D03*
X88493300Y-159830000D03*
X80873300Y-157290000D03*
X88493300Y-162370000D03*
X80873300Y-154750000D03*
X88493300Y-164910000D03*
X80873300Y-152210000D03*
X88493300Y-167450000D03*
D11*
X80873300Y-149670000D03*
%TD*%
D10*
%TO.C,IC25*%
X99010000Y-9974000D03*
X91390000Y-32834000D03*
X99010000Y-12514000D03*
X91390000Y-30294000D03*
X99010000Y-15054000D03*
X91390000Y-27754000D03*
X99010000Y-17594000D03*
X91390000Y-25214000D03*
X99010000Y-20134000D03*
X91390000Y-22674000D03*
X99010000Y-22674000D03*
X91390000Y-20134000D03*
X99010000Y-25214000D03*
X91390000Y-17594000D03*
X99010000Y-27754000D03*
X91390000Y-15054000D03*
X99010000Y-30294000D03*
X91390000Y-12514000D03*
X99010000Y-32834000D03*
D11*
X91390000Y-9974000D03*
%TD*%
D10*
%TO.C,IC22*%
X212025000Y-149670000D03*
X204405000Y-167450000D03*
X212025000Y-152210000D03*
X204405000Y-164910000D03*
X212025000Y-154750000D03*
X204405000Y-162370000D03*
X212025000Y-157290000D03*
X204405000Y-159830000D03*
X212025000Y-159830000D03*
X204405000Y-157290000D03*
X212025000Y-162370000D03*
X204405000Y-154750000D03*
X212025000Y-164910000D03*
X204405000Y-152210000D03*
X212025000Y-167450000D03*
D11*
X204405000Y-149670000D03*
%TD*%
D10*
%TO.C,IC21*%
X141435000Y-149670000D03*
X133815000Y-167450000D03*
X141435000Y-152210000D03*
X133815000Y-164910000D03*
X141435000Y-154750000D03*
X133815000Y-162370000D03*
X141435000Y-157290000D03*
X133815000Y-159830000D03*
X141435000Y-159830000D03*
X133815000Y-157290000D03*
X141435000Y-162370000D03*
X133815000Y-154750000D03*
X141435000Y-164910000D03*
X133815000Y-152210000D03*
X141435000Y-167450000D03*
D11*
X133815000Y-149670000D03*
%TD*%
D10*
%TO.C,IC20*%
X110025000Y-48510000D03*
X102405000Y-71370000D03*
X110025000Y-51050000D03*
X102405000Y-68830000D03*
X110025000Y-53590000D03*
X102405000Y-66290000D03*
X110025000Y-56130000D03*
X102405000Y-63750000D03*
X110025000Y-58670000D03*
X102405000Y-61210000D03*
X110025000Y-61210000D03*
X102405000Y-58670000D03*
X110025000Y-63750000D03*
X102405000Y-56130000D03*
X110025000Y-66290000D03*
X102405000Y-53590000D03*
X110025000Y-68830000D03*
X102405000Y-51050000D03*
X110025000Y-71370000D03*
D11*
X102405000Y-48510000D03*
%TD*%
D10*
%TO.C,IC16*%
X159083000Y-149670000D03*
X151463000Y-167450000D03*
X159083000Y-152210000D03*
X151463000Y-164910000D03*
X159083000Y-154750000D03*
X151463000Y-162370000D03*
X159083000Y-157290000D03*
X151463000Y-159830000D03*
X159083000Y-159830000D03*
X151463000Y-157290000D03*
X159083000Y-162370000D03*
X151463000Y-154750000D03*
X159083000Y-164910000D03*
X151463000Y-152210000D03*
X159083000Y-167450000D03*
D11*
X151463000Y-149670000D03*
%TD*%
D10*
%TO.C,IC15*%
X176730000Y-149670000D03*
X169110000Y-167450000D03*
X176730000Y-152210000D03*
X169110000Y-164910000D03*
X176730000Y-154750000D03*
X169110000Y-162370000D03*
X176730000Y-157290000D03*
X169110000Y-159830000D03*
X176730000Y-159830000D03*
X169110000Y-157290000D03*
X176730000Y-162370000D03*
X169110000Y-154750000D03*
X176730000Y-164910000D03*
X169110000Y-152210000D03*
X176730000Y-167450000D03*
D11*
X169110000Y-149670000D03*
%TD*%
D10*
%TO.C,IC11*%
X186040000Y-85500000D03*
X170800000Y-118520000D03*
X186040000Y-88040000D03*
X170800000Y-115980000D03*
X186040000Y-90580000D03*
X170800000Y-113440000D03*
X186040000Y-93120000D03*
X170800000Y-110900000D03*
X186040000Y-95660000D03*
X170800000Y-108360000D03*
X186040000Y-98200000D03*
X170800000Y-105820000D03*
X186040000Y-100740000D03*
X170800000Y-103280000D03*
X186040000Y-103280000D03*
X170800000Y-100740000D03*
X186040000Y-105820000D03*
X170800000Y-98200000D03*
X186040000Y-108360000D03*
X170800000Y-95660000D03*
X186040000Y-110900000D03*
X170800000Y-93120000D03*
X186040000Y-113440000D03*
X170800000Y-90580000D03*
X186040000Y-115980000D03*
X170800000Y-88040000D03*
X186040000Y-118520000D03*
D11*
X170800000Y-85500000D03*
%TD*%
D10*
%TO.C,IC10*%
X186040000Y-10200000D03*
X170800000Y-58460000D03*
X186040000Y-12740000D03*
X170800000Y-55920000D03*
X186040000Y-15280000D03*
X170800000Y-53380000D03*
X186040000Y-17820000D03*
X170800000Y-50840000D03*
X186040000Y-20360000D03*
X170800000Y-48300000D03*
X186040000Y-22900000D03*
X170800000Y-45760000D03*
X186040000Y-25440000D03*
X170800000Y-43220000D03*
X186040000Y-27980000D03*
X170800000Y-40680000D03*
X186040000Y-30520000D03*
X170800000Y-38140000D03*
X186040000Y-33060000D03*
X170800000Y-35600000D03*
X186040000Y-35600000D03*
X170800000Y-33060000D03*
X186040000Y-38140000D03*
X170800000Y-30520000D03*
X186040000Y-40680000D03*
X170800000Y-27980000D03*
X186040000Y-43220000D03*
X170800000Y-25440000D03*
X186040000Y-45760000D03*
X170800000Y-22900000D03*
X186040000Y-48300000D03*
X170800000Y-20360000D03*
X186040000Y-50840000D03*
X170800000Y-17820000D03*
X186040000Y-53380000D03*
X170800000Y-15280000D03*
X186040000Y-55920000D03*
X170800000Y-12740000D03*
X186040000Y-58460000D03*
D11*
X170800000Y-10200000D03*
%TD*%
D10*
%TO.C,IC8*%
X243945000Y-10500000D03*
X228705000Y-58760000D03*
X243945000Y-13040000D03*
X228705000Y-56220000D03*
X243945000Y-15580000D03*
X228705000Y-53680000D03*
X243945000Y-18120000D03*
X228705000Y-51140000D03*
X243945000Y-20660000D03*
X228705000Y-48600000D03*
X243945000Y-23200000D03*
X228705000Y-46060000D03*
X243945000Y-25740000D03*
X228705000Y-43520000D03*
X243945000Y-28280000D03*
X228705000Y-40980000D03*
X243945000Y-30820000D03*
X228705000Y-38440000D03*
X243945000Y-33360000D03*
X228705000Y-35900000D03*
X243945000Y-35900000D03*
X228705000Y-33360000D03*
X243945000Y-38440000D03*
X228705000Y-30820000D03*
X243945000Y-40980000D03*
X228705000Y-28280000D03*
X243945000Y-43520000D03*
X228705000Y-25740000D03*
X243945000Y-46060000D03*
X228705000Y-23200000D03*
X243945000Y-48600000D03*
X228705000Y-20660000D03*
X243945000Y-51140000D03*
X228705000Y-18120000D03*
X243945000Y-53680000D03*
X228705000Y-15580000D03*
X243945000Y-56220000D03*
X228705000Y-13040000D03*
X243945000Y-58760000D03*
D11*
X228705000Y-10500000D03*
%TD*%
D10*
%TO.C,IC7*%
X320020000Y500000D03*
X312400000Y-14740000D03*
X320020000Y-2040000D03*
X312400000Y-12200000D03*
X320020000Y-4580000D03*
X312400000Y-9660000D03*
X320020000Y-7120000D03*
X312400000Y-7120000D03*
X320020000Y-9660000D03*
X312400000Y-4580000D03*
X320020000Y-12200000D03*
X312400000Y-2040000D03*
X320020000Y-14740000D03*
D11*
X312400000Y500000D03*
%TD*%
D10*
%TO.C,IC6*%
X90020000Y-51000000D03*
X82400000Y-68780000D03*
X90020000Y-53540000D03*
X82400000Y-66240000D03*
X90020000Y-56080000D03*
X82400000Y-63700000D03*
X90020000Y-58620000D03*
X82400000Y-61160000D03*
X90020000Y-61160000D03*
X82400000Y-58620000D03*
X90020000Y-63700000D03*
X82400000Y-56080000D03*
X90020000Y-66240000D03*
X82400000Y-53540000D03*
X90020000Y-68780000D03*
D11*
X82400000Y-51000000D03*
%TD*%
D10*
%TO.C,IC5*%
X215940000Y-10500000D03*
X200700000Y-58760000D03*
X215940000Y-13040000D03*
X200700000Y-56220000D03*
X215940000Y-15580000D03*
X200700000Y-53680000D03*
X215940000Y-18120000D03*
X200700000Y-51140000D03*
X215940000Y-20660000D03*
X200700000Y-48600000D03*
X215940000Y-23200000D03*
X200700000Y-46060000D03*
X215940000Y-25740000D03*
X200700000Y-43520000D03*
X215940000Y-28280000D03*
X200700000Y-40980000D03*
X215940000Y-30820000D03*
X200700000Y-38440000D03*
X215940000Y-33360000D03*
X200700000Y-35900000D03*
X215940000Y-35900000D03*
X200700000Y-33360000D03*
X215940000Y-38440000D03*
X200700000Y-30820000D03*
X215940000Y-40980000D03*
X200700000Y-28280000D03*
X215940000Y-43520000D03*
X200700000Y-25740000D03*
X215940000Y-46060000D03*
X200700000Y-23200000D03*
X215940000Y-48600000D03*
X200700000Y-20660000D03*
X215940000Y-51140000D03*
X200700000Y-18120000D03*
X215940000Y-53680000D03*
X200700000Y-15580000D03*
X215940000Y-56220000D03*
X200700000Y-13040000D03*
X215940000Y-58760000D03*
D11*
X200700000Y-10500000D03*
%TD*%
D10*
%TO.C,IC4*%
X50546000Y-90932000D03*
X42926000Y-108712000D03*
X50546000Y-93472000D03*
X42926000Y-106172000D03*
X50546000Y-96012000D03*
X42926000Y-103632000D03*
X50546000Y-98552000D03*
X42926000Y-101092000D03*
X50546000Y-101092000D03*
X42926000Y-98552000D03*
X50546000Y-103632000D03*
X42926000Y-96012000D03*
X50546000Y-106172000D03*
X42926000Y-93472000D03*
X50546000Y-108712000D03*
D11*
X42926000Y-90932000D03*
%TD*%
D10*
%TO.C,IC2*%
X50546000Y-36068000D03*
X42926000Y-43688000D03*
X50546000Y-38608000D03*
X42926000Y-41148000D03*
X50546000Y-41148000D03*
X42926000Y-38608000D03*
X50546000Y-43688000D03*
D11*
X42926000Y-36068000D03*
%TD*%
D10*
%TO.C,IC1*%
X99060000Y23410000D03*
X91440000Y550000D03*
X99060000Y20870000D03*
X91440000Y3090000D03*
X99060000Y18330000D03*
X91440000Y5630000D03*
X99060000Y15790000D03*
X91440000Y8170000D03*
X99060000Y13250000D03*
X91440000Y10710000D03*
X99060000Y10710000D03*
X91440000Y13250000D03*
X99060000Y8170000D03*
X91440000Y15790000D03*
X99060000Y5630000D03*
X91440000Y18330000D03*
X99060000Y3090000D03*
X91440000Y20870000D03*
X99060000Y550000D03*
D11*
X91440000Y23410000D03*
%TD*%
D12*
%TO.C,D1*%
X14745000Y-13895000D03*
D13*
X7125000Y-13895000D03*
%TD*%
D20*
%TO.C,C69*%
X27965000Y-83874800D03*
X32965000Y-83874800D03*
%TD*%
%TO.C,C68*%
X30724000Y-14145000D03*
X35724000Y-14145000D03*
%TD*%
%TO.C,C67*%
X147300000Y-7600000D03*
X147300000Y-12600000D03*
%TD*%
%TO.C,C62*%
X302940000Y-98500000D03*
X307940000Y-98500000D03*
%TD*%
%TO.C,C61*%
X238700000Y-127900000D03*
X233700000Y-127900000D03*
%TD*%
%TO.C,C60*%
X108705000Y-43000000D03*
X103705000Y-43000000D03*
%TD*%
%TO.C,C59*%
X234430000Y-72959000D03*
X239430000Y-72959000D03*
%TD*%
%TO.C,C57*%
X83700000Y-103350000D03*
X88700000Y-103350000D03*
%TD*%
%TO.C,C56*%
X279740000Y-111550000D03*
X284740000Y-111550000D03*
%TD*%
%TO.C,C53*%
X122468000Y-172700000D03*
X117468000Y-172700000D03*
%TD*%
%TO.C,C52*%
X104820700Y-172900000D03*
X99820700Y-172900000D03*
%TD*%
%TO.C,C51*%
X104360000Y6860000D03*
X104360000Y1860000D03*
%TD*%
%TO.C,C50*%
X131785000Y-73249000D03*
X126785000Y-73249000D03*
%TD*%
%TO.C,C47*%
X193058000Y-172900000D03*
X188058000Y-172900000D03*
%TD*%
%TO.C,C46*%
X87173300Y-172790000D03*
X82173300Y-172790000D03*
%TD*%
%TO.C,C45*%
X211425000Y-72959000D03*
X206425000Y-72959000D03*
%TD*%
%TO.C,C43*%
X210705000Y-172900000D03*
X205705000Y-172900000D03*
%TD*%
%TO.C,C42*%
X140115000Y-172890000D03*
X135115000Y-172890000D03*
%TD*%
%TO.C,C41*%
X135485000Y-349000D03*
X130485000Y-349000D03*
%TD*%
%TO.C,C40*%
X157763000Y-172900000D03*
X152763000Y-172900000D03*
%TD*%
%TO.C,C39*%
X175410000Y-172900000D03*
X170410000Y-172900000D03*
%TD*%
%TO.C,C38*%
X92630000Y27020000D03*
X97630000Y27020000D03*
%TD*%
%TO.C,C34*%
X114200000Y-6100000D03*
X109200000Y-6100000D03*
%TD*%
%TO.C,C28*%
X259690000Y-96400000D03*
X264690000Y-96400000D03*
%TD*%
%TO.C,C27*%
X181600000Y-80400000D03*
X176600000Y-80400000D03*
%TD*%
%TO.C,C18*%
X239430000Y-5785000D03*
X234430000Y-5785000D03*
%TD*%
%TO.C,C17*%
X64984000Y-115675000D03*
X59984000Y-115675000D03*
%TD*%
%TO.C,C16*%
X64984000Y-82933600D03*
X59984000Y-82933600D03*
%TD*%
%TO.C,C15*%
X64984000Y-79659500D03*
X59984000Y-79659500D03*
%TD*%
%TO.C,C14*%
X64984000Y-76385300D03*
X59984000Y-76385300D03*
%TD*%
%TO.C,C13*%
X64984000Y-73111200D03*
X59984000Y-73111200D03*
%TD*%
%TO.C,C12*%
X211425000Y-5785000D03*
X206425000Y-5785000D03*
%TD*%
%TO.C,C11*%
X32965000Y-88277900D03*
X27965000Y-88277900D03*
%TD*%
%TO.C,C8*%
X35724000Y-9690000D03*
X30724000Y-9690000D03*
%TD*%
%TO.C,C7*%
X27965000Y-118800000D03*
X32965000Y-118800000D03*
%TD*%
%TO.C,C6*%
X32965000Y-66262200D03*
X27965000Y-66262200D03*
%TD*%
%TO.C,C5*%
X29335000Y-51800000D03*
X24335000Y-51800000D03*
%TD*%
%TO.C,C4*%
X29335000Y-47425000D03*
X24335000Y-47425000D03*
%TD*%
%TO.C,C3*%
X29335000Y-35300000D03*
X24335000Y-35300000D03*
%TD*%
%TO.C,C2*%
X13435000Y-1780000D03*
X8435000Y-1780000D03*
%TD*%
%TO.C,C1*%
X13435000Y6630000D03*
X8435000Y6630000D03*
%TD*%
D12*
%TO.C,D14*%
X66294000Y-53716400D03*
D13*
X58674000Y-53716400D03*
%TD*%
D12*
%TO.C,D13*%
X66294000Y-47668100D03*
D13*
X58674000Y-47668100D03*
%TD*%
D12*
%TO.C,D12*%
X66294000Y-28523300D03*
D13*
X58674000Y-28523300D03*
%TD*%
D12*
%TO.C,D11*%
X37034000Y-5485000D03*
D13*
X29414000Y-5485000D03*
%TD*%
D12*
%TO.C,D3*%
X30645000Y-43300000D03*
D13*
X23025000Y-43300000D03*
%TD*%
D12*
%TO.C,D2*%
X30645000Y-39425000D03*
D13*
X23025000Y-39425000D03*
%TD*%
D10*
%TO.C,U1*%
X50390200Y-50575000D03*
X42770200Y-68355000D03*
X50390200Y-53115000D03*
X42770200Y-65815000D03*
X50390200Y-55655000D03*
X42770200Y-63275000D03*
X50390200Y-58195000D03*
X42770200Y-60735000D03*
X50390200Y-60735000D03*
X42770200Y-58195000D03*
X50390200Y-63275000D03*
X42770200Y-55655000D03*
X50390200Y-65815000D03*
X42770200Y-53115000D03*
X50390200Y-68355000D03*
D11*
X42770200Y-50575000D03*
%TD*%
D12*
%TO.C,L4*%
X26655000Y-92531100D03*
D15*
X34275000Y-92531100D03*
%TD*%
D12*
%TO.C,L3*%
X58674000Y-22375000D03*
D15*
X66294000Y-22375000D03*
%TD*%
D12*
%TO.C,L2*%
X26655000Y-62009000D03*
D15*
X34275000Y-62009000D03*
%TD*%
D12*
%TO.C,L1*%
X7125000Y-5585000D03*
D15*
X14745000Y-5585000D03*
%TD*%
D26*
%TO.C,C25*%
X11375000Y-32178000D03*
D27*
X9375000Y-32178000D03*
%TD*%
D26*
%TO.C,C24*%
X11375000Y-25814000D03*
D27*
X9375000Y-25814000D03*
%TD*%
D26*
%TO.C,C10*%
X11375000Y-38542000D03*
D27*
X9375000Y-38542000D03*
%TD*%
D26*
%TO.C,C9*%
X11375000Y-19450000D03*
D27*
X9375000Y-19450000D03*
%TD*%
D29*
%TO.C,H8*%
X327000000Y6000000D03*
%TD*%
%TO.C,H7*%
X177890000Y-69340000D03*
%TD*%
%TO.C,H6*%
X327000000Y-169000000D03*
%TD*%
%TO.C,H5*%
X4000000Y27000000D03*
%TD*%
%TO.C,H4*%
X327000000Y-90000000D03*
%TD*%
%TO.C,H3*%
X215000000Y27000000D03*
%TD*%
%TO.C,H2*%
X4000000Y-169000000D03*
%TD*%
%TO.C,H1*%
X4000000Y-90000000D03*
%TD*%
D30*
%TO.C,PL9*%
X312932500Y25616000D03*
X247527500Y25616000D03*
D31*
X304360000Y16980000D03*
X301820000Y16980000D03*
X299280000Y16980000D03*
X296740000Y16980000D03*
X294200000Y16980000D03*
X291660000Y16980000D03*
X289120000Y16980000D03*
X286580000Y16980000D03*
X284040000Y16980000D03*
X281500000Y16980000D03*
X278960000Y16980000D03*
X276420000Y16980000D03*
X273880000Y16980000D03*
X271340000Y16980000D03*
X268800000Y16980000D03*
X266260000Y16980000D03*
X263720000Y16980000D03*
X261180000Y16980000D03*
X258640000Y16980000D03*
X256100000Y16980000D03*
X304360000Y11900000D03*
X301820000Y11900000D03*
X299280000Y11900000D03*
X296740000Y11900000D03*
X294200000Y11900000D03*
X291660000Y11900000D03*
X289120000Y11900000D03*
X286580000Y11900000D03*
X284040000Y11900000D03*
X281500000Y11900000D03*
X278960000Y11900000D03*
X276420000Y11900000D03*
X273880000Y11900000D03*
X271340000Y11900000D03*
X268800000Y11900000D03*
X266260000Y11900000D03*
X263720000Y11900000D03*
X261180000Y11900000D03*
X258640000Y11900000D03*
D25*
G36*
X256724504Y12748796D02*
G01*
X256748773Y12745196D01*
X256772571Y12739235D01*
X256795671Y12730970D01*
X256817849Y12720480D01*
X256838893Y12707867D01*
X256858598Y12693253D01*
X256876777Y12676777D01*
X256893253Y12658598D01*
X256907867Y12638893D01*
X256920480Y12617849D01*
X256930970Y12595671D01*
X256939235Y12572571D01*
X256945196Y12548773D01*
X256948796Y12524504D01*
X256950000Y12500000D01*
X256950000Y11300000D01*
X256948796Y11275496D01*
X256945196Y11251227D01*
X256939235Y11227429D01*
X256930970Y11204329D01*
X256920480Y11182151D01*
X256907867Y11161107D01*
X256893253Y11141402D01*
X256876777Y11123223D01*
X256858598Y11106747D01*
X256838893Y11092133D01*
X256817849Y11079520D01*
X256795671Y11069030D01*
X256772571Y11060765D01*
X256748773Y11054804D01*
X256724504Y11051204D01*
X256700000Y11050000D01*
X255500000Y11050000D01*
X255475496Y11051204D01*
X255451227Y11054804D01*
X255427429Y11060765D01*
X255404329Y11069030D01*
X255382151Y11079520D01*
X255361107Y11092133D01*
X255341402Y11106747D01*
X255323223Y11123223D01*
X255306747Y11141402D01*
X255292133Y11161107D01*
X255279520Y11182151D01*
X255269030Y11204329D01*
X255260765Y11227429D01*
X255254804Y11251227D01*
X255251204Y11275496D01*
X255250000Y11300000D01*
X255250000Y12500000D01*
X255251204Y12524504D01*
X255254804Y12548773D01*
X255260765Y12572571D01*
X255269030Y12595671D01*
X255279520Y12617849D01*
X255292133Y12638893D01*
X255306747Y12658598D01*
X255323223Y12676777D01*
X255341402Y12693253D01*
X255361107Y12707867D01*
X255382151Y12720480D01*
X255404329Y12730970D01*
X255427429Y12739235D01*
X255451227Y12745196D01*
X255475496Y12748796D01*
X255500000Y12750000D01*
X256700000Y12750000D01*
X256724504Y12748796D01*
G37*
%TD*%
D18*
%TO.C,PL6*%
X11455000Y24925000D03*
X13995000Y24925000D03*
X16535000Y24925000D03*
X19075000Y24925000D03*
X21615000Y24925000D03*
X24155000Y24925000D03*
X26695000Y24925000D03*
X29235000Y24925000D03*
D19*
X31775000Y24925000D03*
%TD*%
D32*
%TO.C,J1*%
X9400000Y-153500000D03*
X13600000Y-153500000D03*
X17800000Y-153500000D03*
X22000000Y-153500000D03*
X26200000Y-153500000D03*
X30400000Y-153500000D03*
X34600000Y-153500000D03*
X38800000Y-153500000D03*
X43000000Y-153500000D03*
X47200000Y-153500000D03*
X9400000Y-159000000D03*
X13600000Y-159000000D03*
X17800000Y-159000000D03*
X22000000Y-159000000D03*
X26200000Y-159000000D03*
X30400000Y-159000000D03*
X34600000Y-159000000D03*
X38800000Y-159000000D03*
X43000000Y-159000000D03*
D25*
G36*
X48324503Y-157351204D02*
G01*
X48348772Y-157354804D01*
X48372570Y-157360765D01*
X48395670Y-157369030D01*
X48417849Y-157379520D01*
X48438892Y-157392133D01*
X48458598Y-157406748D01*
X48476776Y-157423224D01*
X48493252Y-157441402D01*
X48507867Y-157461108D01*
X48520480Y-157482151D01*
X48530970Y-157504330D01*
X48539235Y-157527430D01*
X48545196Y-157551228D01*
X48548796Y-157575497D01*
X48550000Y-157600001D01*
X48550000Y-160399999D01*
X48548796Y-160424503D01*
X48545196Y-160448772D01*
X48539235Y-160472570D01*
X48530970Y-160495670D01*
X48520480Y-160517849D01*
X48507867Y-160538892D01*
X48493252Y-160558598D01*
X48476776Y-160576776D01*
X48458598Y-160593252D01*
X48438892Y-160607867D01*
X48417849Y-160620480D01*
X48395670Y-160630970D01*
X48372570Y-160639235D01*
X48348772Y-160645196D01*
X48324503Y-160648796D01*
X48299999Y-160650000D01*
X46100001Y-160650000D01*
X46075497Y-160648796D01*
X46051228Y-160645196D01*
X46027430Y-160639235D01*
X46004330Y-160630970D01*
X45982151Y-160620480D01*
X45961108Y-160607867D01*
X45941402Y-160593252D01*
X45923224Y-160576776D01*
X45906748Y-160558598D01*
X45892133Y-160538892D01*
X45879520Y-160517849D01*
X45869030Y-160495670D01*
X45860765Y-160472570D01*
X45854804Y-160448772D01*
X45851204Y-160424503D01*
X45850000Y-160399999D01*
X45850000Y-157600001D01*
X45851204Y-157575497D01*
X45854804Y-157551228D01*
X45860765Y-157527430D01*
X45869030Y-157504330D01*
X45879520Y-157482151D01*
X45892133Y-157461108D01*
X45906748Y-157441402D01*
X45923224Y-157423224D01*
X45941402Y-157406748D01*
X45961108Y-157392133D01*
X45982151Y-157379520D01*
X46004330Y-157369030D01*
X46027430Y-157360765D01*
X46051228Y-157354804D01*
X46075497Y-157351204D01*
X46100001Y-157350000D01*
X48299999Y-157350000D01*
X48324503Y-157351204D01*
G37*
%TD*%
D26*
%TO.C,C64*%
X251800000Y-108600000D03*
D27*
X251800000Y-106600000D03*
%TD*%
D26*
%TO.C,C63*%
X160200000Y-12600000D03*
D27*
X158200000Y-12600000D03*
%TD*%
D26*
%TO.C,C58*%
X68600000Y-169900000D03*
D27*
X68600000Y-167900000D03*
%TD*%
D26*
%TO.C,C26*%
X86970000Y14340000D03*
D27*
X84970000Y14340000D03*
%TD*%
D26*
%TO.C,C23*%
X11375000Y-44906000D03*
D27*
X9375000Y-44906000D03*
%TD*%
D26*
%TO.C,C19*%
X206410000Y20720000D03*
D27*
X208410000Y20720000D03*
%TD*%
D25*
%TO.C,PL2*%
G36*
X49549504Y22673796D02*
G01*
X49573773Y22670196D01*
X49597571Y22664235D01*
X49620671Y22655970D01*
X49642849Y22645480D01*
X49663893Y22632867D01*
X49683598Y22618253D01*
X49701777Y22601777D01*
X49718253Y22583598D01*
X49732867Y22563893D01*
X49745480Y22542849D01*
X49755970Y22520671D01*
X49764235Y22497571D01*
X49770196Y22473773D01*
X49773796Y22449504D01*
X49775000Y22425000D01*
X49775000Y21225000D01*
X49773796Y21200496D01*
X49770196Y21176227D01*
X49764235Y21152429D01*
X49755970Y21129329D01*
X49745480Y21107151D01*
X49732867Y21086107D01*
X49718253Y21066402D01*
X49701777Y21048223D01*
X49683598Y21031747D01*
X49663893Y21017133D01*
X49642849Y21004520D01*
X49620671Y20994030D01*
X49597571Y20985765D01*
X49573773Y20979804D01*
X49549504Y20976204D01*
X49525000Y20975000D01*
X48325000Y20975000D01*
X48300496Y20976204D01*
X48276227Y20979804D01*
X48252429Y20985765D01*
X48229329Y20994030D01*
X48207151Y21004520D01*
X48186107Y21017133D01*
X48166402Y21031747D01*
X48148223Y21048223D01*
X48131747Y21066402D01*
X48117133Y21086107D01*
X48104520Y21107151D01*
X48094030Y21129329D01*
X48085765Y21152429D01*
X48079804Y21176227D01*
X48076204Y21200496D01*
X48075000Y21225000D01*
X48075000Y22425000D01*
X48076204Y22449504D01*
X48079804Y22473773D01*
X48085765Y22497571D01*
X48094030Y22520671D01*
X48104520Y22542849D01*
X48117133Y22563893D01*
X48131747Y22583598D01*
X48148223Y22601777D01*
X48166402Y22618253D01*
X48186107Y22632867D01*
X48207151Y22645480D01*
X48229329Y22655970D01*
X48252429Y22664235D01*
X48276227Y22670196D01*
X48300496Y22673796D01*
X48325000Y22675000D01*
X49525000Y22675000D01*
X49549504Y22673796D01*
G37*
D31*
X51465000Y21825000D03*
X54005000Y21825000D03*
X56545000Y21825000D03*
X59085000Y21825000D03*
X61625000Y21825000D03*
X64165000Y21825000D03*
X66705000Y21825000D03*
X69245000Y21825000D03*
X71785000Y21825000D03*
X48925000Y24365000D03*
X51465000Y24365000D03*
X54005000Y24365000D03*
X56545000Y24365000D03*
X59085000Y24365000D03*
X61625000Y24365000D03*
X64165000Y24365000D03*
X66705000Y24365000D03*
X69245000Y24365000D03*
X71785000Y24365000D03*
D33*
X43020000Y23625000D03*
X77690000Y23625000D03*
%TD*%
D34*
%TO.C,RLA1*%
X45550000Y-28675000D03*
X45550000Y-21055000D03*
X43010000Y-28675000D03*
X32850000Y-28675000D03*
X43010000Y-21055000D03*
X32850000Y-21055000D03*
%TD*%
D35*
%TO.C,PL4*%
X114910000Y27390000D03*
X110010000Y27390000D03*
D36*
X107410000Y14990000D03*
X104910000Y17490000D03*
X119910000Y17490000D03*
D35*
X107410000Y27390000D03*
D36*
X112410000Y17490000D03*
D35*
X117410000Y27390000D03*
D36*
X117410000Y14990000D03*
%TD*%
D35*
%TO.C,PL3*%
X2490000Y-106770000D03*
X2490000Y-111770000D03*
D36*
X14890000Y-114270000D03*
X12390000Y-116770000D03*
X12390000Y-101770000D03*
X17390000Y-109270000D03*
D35*
X2490000Y-114270000D03*
D36*
X12390000Y-109270000D03*
D35*
X2490000Y-104270000D03*
D36*
X14890000Y-104270000D03*
%TD*%
D35*
%TO.C,PL5*%
X2450000Y-66850000D03*
X2450000Y-71850000D03*
D36*
X14850000Y-74350000D03*
X12350000Y-76850000D03*
X12350000Y-61850000D03*
X17350000Y-69350000D03*
D35*
X2450000Y-74350000D03*
D36*
X12350000Y-69350000D03*
D35*
X2450000Y-64350000D03*
D36*
X14850000Y-64350000D03*
%TD*%
D37*
%TO.C,TR1*%
X24550000Y-23125000D03*
X24550000Y-20585000D03*
X23280000Y-21855000D03*
%TD*%
D18*
%TO.C,LK1*%
X13280000Y-131780000D03*
X13280000Y-134320000D03*
D19*
X13280000Y-136860000D03*
%TD*%
%TO.C,PL1*%
X42710000Y14220000D03*
D18*
X45250000Y14220000D03*
X47790000Y14220000D03*
X50330000Y14220000D03*
X52870000Y14220000D03*
X55410000Y14220000D03*
X57950000Y14220000D03*
X60490000Y14220000D03*
X63030000Y14220000D03*
X65570000Y14220000D03*
X68110000Y14220000D03*
X70650000Y14220000D03*
X73190000Y14220000D03*
X75730000Y14220000D03*
X78270000Y14220000D03*
X80810000Y14220000D03*
%TD*%
M02*
