M48
; DRILL file {KiCad (5.1.5)-3} date 5/11/2022 7:43:55 AM
; FORMAT={-:-/ absolute / inch / decimal}
; #@! TF.CreationDate,2022-05-11T07:43:55-05:00
; #@! TF.GenerationSoftware,Kicad,Pcbnew,(5.1.5)-3
; #@! TF.FileFunction,Plated,1,2,PTH
FMAT,2
INCH
T1C0.0157
T2C0.0236
T3C0.0276
T4C0.0295
T5C0.0315
T6C0.0394
T7C0.0400
T8C0.0551
T9C0.0591
T10C0.1059
T11C0.1260
T12C0.1280
%
G90
G05
T1
X0.3319Y-0.6219
X0.6134Y0.6766
X0.8136Y0.822
X0.9781Y-1.6732
X1.0456Y-0.4451
X1.1539Y-1.5003
X1.3628Y0.4081
X1.4625Y-2.0122
X1.4756Y-0.8941
X1.4985Y-0.7672
X1.5547Y-1.8174
X1.6006Y0.1703
X1.7577Y0.4489
X1.8315Y0.6947
X1.8356Y-1.9739
X1.9025Y-3.689
X1.9918Y-2.9029
X2.0369Y-1.6729
X2.0432Y-4.23
X2.0509Y-1.897
X2.0559Y0.3067
X2.0588Y-1.827
X2.0692Y-2.6084
X2.1306Y-3.0915
X2.1589Y-1.5307
X2.2162Y-0.7495
X2.3135Y-3.3321
X2.5206Y-3.5666
X2.6004Y-0.9424
X2.6398Y0.3032
X2.6764Y-0.181
X2.7957Y-3.7996
X2.9104Y0.5075
X2.9483Y-2.3199
X3.0361Y-0.9116
X3.0606Y-0.4414
X3.2435Y-0.8242
X3.3053Y-1.0846
X3.3084Y0.7751
X3.3494Y-1.0794
X3.411Y-3.8928
X3.419Y-2.5448
X3.4669Y0.2242
X3.4693Y0.6472
X3.5049Y0.5895
X3.5308Y-1.8745
X3.5356Y-1.5354
X3.6239Y-3.1065
X3.6816Y-0.4378
X3.7129Y-2.8451
X3.7136Y-2.5765
X3.7168Y-2.5254
X3.7394Y-1.6435
X3.7624Y-1.7664
X3.7756Y-3.8928
X3.7916Y-2.6157
X3.8239Y-3.5112
X3.8251Y-0.6052
X3.8262Y-0.7987
X3.8411Y-2.0792
X3.8863Y-2.2108
X3.925Y-2.3098
X3.9689Y-0.5208
X4.0163Y-1.1407
X4.0916Y-0.9656
X4.1195Y-1.0431
X4.1542Y-1.0912
X4.1699Y-2.8253
X4.1823Y-1.9728
X4.1871Y-0.3574
X4.3322Y-4.4135
X4.345Y-4.4715
X4.3955Y-1.2523
X4.4003Y-3.2976
X4.406Y-0.0767
X4.4117Y-3.0802
X4.4143Y-2.2113
X4.4277Y-2.5916
X4.4446Y-3.6793
X4.451Y-0.0594
X4.4744Y-1.8506
X4.5018Y-1.8973
X4.6042Y-2.9724
X4.6457Y-3.5209
X4.6886Y-2.0869
X4.6886Y-2.5254
X4.7049Y-3.2169
X4.7929Y-1.8269
X4.8145Y-1.7241
X4.9381Y-0.063
X4.9808Y-2.5284
X5.0033Y-1.787
X5.0183Y-4.5185
X5.0489Y-4.5705
X5.0529Y-2.5604
X5.0737Y-2.9738
X5.103Y-3.591
X5.1142Y-4.302
X5.1337Y-3.4974
X5.1484Y-4.3636
X5.1691Y-3.2856
X5.1712Y-1.3512
X5.2589Y-3.0245
X5.2773Y-2.9367
X5.28Y-1.4849
X5.2817Y-1.185
X5.2881Y-4.6971
X5.2959Y-4.3854
X5.3124Y-2.6885
X5.3156Y-2.1428
X5.3211Y-4.4908
X5.3241Y-3.6754
X5.3253Y-3.0016
X5.3519Y0.8125
X5.372Y-5.1732
X5.5732Y-3.3686
X5.5959Y-5.5223
X5.5995Y-3.7093
X5.6022Y-2.2223
X5.634Y-4.2439
X5.6379Y-5.399
X5.648Y-4.0162
X5.6768Y-0.7636
X5.6962Y-0.3568
X5.6985Y-3.8933
X5.7121Y-4.0463
X5.7301Y-2.6405
X5.7582Y-2.8536
X5.7584Y-3.7982
X5.7868Y-2.2323
X5.8095Y0.4481
X5.8141Y-2.4362
X5.8213Y-2.2597
X5.8879Y-2.6565
X5.8949Y-0.5694
X5.9122Y-2.8472
X5.9251Y-0.6906
X5.9322Y-2.577
X5.9432Y-2.6333
X5.9667Y-1.6925
X5.9675Y-2.3843
X5.9721Y-2.6048
X5.9928Y-2.1855
X6.0219Y-2.3567
X6.0569Y-2.2053
X6.0579Y-1.7224
X6.0734Y-0.3067
X6.2036Y-0.1689
X6.4354Y-3.7565
X6.4645Y-3.4279
X6.5948Y-2.8601
X6.6076Y-1.5948
X6.6907Y0.2769
X6.6914Y-0.0767
X6.6923Y0.5826
X6.7518Y-4.8484
X6.7591Y-4.7766
X6.8224Y-0.0898
X6.8635Y0.2025
X6.8778Y-4.4794
X6.8812Y0.7716
X6.9045Y0.1747
X6.9523Y-4.574
X6.9632Y0.145
X6.9716Y0.5209
X7.038Y0.1114
X7.0966Y-2.6069
X7.1025Y0.0506
X7.1051Y-1.0358
X7.1426Y0.0348
X7.162Y-2.6085
X7.2219Y0.0178
X7.2222Y-0.0221
X7.2506Y-3.5164
X7.2866Y0.0831
X7.2899Y-0.0192
X7.3815Y-0.0345
X7.4359Y-4.2695
X7.4523Y-3.9947
X7.4588Y-4.3326
X7.4719Y-3.9161
X7.4955Y-3.3142
X7.5801Y-4.2131
X7.5893Y-1.5025
X7.6275Y-3.2327
X7.6494Y-4.3045
X7.6897Y-3.2084
X7.7412Y-4.1225
X7.8019Y-0.5008
X7.8038Y-4.2417
X7.8272Y-1.4411
X7.8509Y-1.764
X7.862Y-3.0281
X7.9834Y-1.5948
X8.0328Y-2.6351
X8.171Y-0.1314
X8.255Y-0.9018
X8.2995Y-1.16
X8.2997Y-0.9721
X8.3091Y-2.7824
X8.3465Y-0.7413
X8.3605Y0.7434
X8.3666Y-3.209
X8.3863Y-2.9278
X8.4687Y-2.5686
X8.7442Y-2.7581
X8.7569Y-4.2846
X8.7622Y-1.5919
X8.7811Y-2.7391
X8.7938Y-2.6511
X8.8045Y-4.189
X8.8198Y-4.6161
X8.8213Y-2.7258
X8.8284Y-2.2063
X8.8784Y-2.55
X8.8792Y-2.6203
X8.907Y-2.6723
X8.9193Y-2.1477
X8.9605Y-3.5567
X9.1316Y-3.5814
X9.1465Y-4.8881
X9.1539Y-2.3869
X9.4143Y-2.6214
X9.434Y0.2467
X9.4703Y-3.037
X9.5513Y-0.8691
X9.5664Y-2.6152
X9.705Y-2.9036
X9.7618Y-2.4645
X9.8845Y-2.6268
X9.8936Y-1.7668
X9.9654Y-2.7081
X10.2054Y0.13
X10.2512Y-1.9928
X10.2544Y-0.5091
X10.3155Y0.2913
X10.4118Y0.3029
X10.4327Y0.4018
X10.5838Y-1.122
X10.6198Y0.0559
X10.7239Y-3.2792
X10.7644Y-1.0452
X10.7811Y-1.0942
X10.8015Y-0.301
X10.8201Y0.0595
X10.9077Y0.1693
X10.9914Y-0.8416
X11.0797Y-0.8517
X11.1101Y-0.4663
X11.1335Y-4.3826
X11.1404Y-3.4454
X11.1671Y-3.7483
X11.4116Y-1.0806
X11.4201Y-2.165
X11.4272Y-1.9745
X11.4705Y-1.0253
X11.4991Y-0.9887
X11.6089Y-0.7273
X11.6279Y-0.5104
X11.6361Y-0.5969
X11.7442Y-1.0806
X11.7821Y-4.9758
X11.834Y-1.2034
X11.8484Y-0.4366
X12.0667Y-1.5876
X12.0722Y-4.4555
X12.1194Y-4.4778
X12.2118Y-4.9302
X12.2402Y-4.7927
X12.3189Y-1.7217
X12.3282Y-4.5575
T2
X0.3691Y-0.7657
X0.4478Y-0.7657
X0.3661Y-2.0185
X0.4449Y-2.0185
X9.9134Y-4.1969
X9.9134Y-4.2756
X3.3453Y0.5646
X3.424Y0.5646
X5.2256Y0.4567
X5.3043Y0.4567
X8.1264Y0.8157
X8.2051Y0.8157
X0.3691Y-1.5174
X0.4478Y-1.5174
X0.3691Y-1.2669
X0.4478Y-1.2669
X6.2283Y-0.4961
X6.3071Y-0.4961
X0.3691Y-1.768
X0.4478Y-1.768
X2.7008Y-6.6102
X2.7008Y-6.689
X0.3691Y-1.0163
X0.4478Y-1.0163
T3
X2.5313Y-0.4949
X2.5813Y-0.5449
X2.6313Y-0.4949
X2.5313Y-0.1469
X2.5813Y-0.1969
X2.6313Y-0.1469
T4
X0.9165Y-0.8604
X0.9665Y-0.8104
X0.9665Y-0.9104
X2.474Y0.2012
X2.524Y0.2512
X2.574Y0.2012
T5
X11.8732Y-6.1063
X12.1732Y-6.1063
X12.5787Y-1.0528
X12.6787Y-0.9528
X12.7787Y-1.0528
X2.31Y-1.0039
X2.61Y-1.0039
X2.31Y-3.6518
X2.61Y-3.6518
X3.2441Y-2.0079
X3.2441Y-2.1079
X3.2441Y-2.2079
X3.2441Y-2.3079
X3.2441Y-2.4079
X3.2441Y-2.5079
X3.2441Y-2.6079
X3.2441Y-2.7079
X3.5441Y-2.0079
X3.5441Y-2.1079
X3.5441Y-2.2079
X3.5441Y-2.3079
X3.5441Y-2.4079
X3.5441Y-2.5079
X3.5441Y-2.6079
X3.5441Y-2.7079
X2.31Y-1.242
X2.61Y-1.242
X2.31Y-1.9958
X2.61Y-1.9958
X5.2683Y-5.8925
X5.2683Y-5.9925
X5.2683Y-6.0925
X5.2683Y-6.1925
X5.2683Y-6.2925
X5.2683Y-6.3925
X5.2683Y-6.4925
X5.2683Y-6.5925
X5.5683Y-5.8925
X5.5683Y-5.9925
X5.5683Y-6.0925
X5.5683Y-6.1925
X5.5683Y-6.2925
X5.5683Y-6.3925
X5.5683Y-6.4925
X5.5683Y-6.5925
X1.0494Y-2.7821
X1.3494Y-2.7821
X9.1535Y-5.2559
X9.1535Y-5.3559
X9.1535Y-5.4559
X9.1535Y-5.5559
X9.1535Y-5.6559
X9.1535Y-5.7559
X9.1535Y-5.8559
X9.4535Y-5.2559
X9.4535Y-5.3559
X9.4535Y-5.4559
X9.4535Y-5.5559
X9.4535Y-5.6559
X9.4535Y-5.7559
X9.4535Y-5.8559
X1.8898Y-0.0283
X2.1898Y-0.0283
X1.69Y-1.42
X1.69Y-1.52
X1.69Y-1.62
X1.69Y-1.72
X1.99Y-1.42
X1.99Y-1.52
X1.99Y-1.62
X1.99Y-1.72
X1.158Y-0.2159
X1.458Y-0.2159
X5.8701Y0.2467
X6.1701Y0.2467
X1.1657Y-0.0878
X1.4657Y-0.0878
X5.8701Y0.0831
X6.1701Y0.0831
X6.6047Y0.6494
X6.9047Y0.6494
X2.31Y-0.8809
X2.61Y-0.8809
X10.9622Y-4.6067
X10.9622Y-4.7067
X10.9622Y-4.8067
X10.9622Y-4.9067
X10.9622Y-5.0067
X10.9622Y-5.1067
X10.9622Y-5.2067
X11.2622Y-4.6067
X11.2622Y-4.7067
X11.2622Y-4.8067
X11.2622Y-4.9067
X11.2622Y-5.0067
X11.2622Y-5.1067
X11.2622Y-5.2067
X10.9843Y-3.4803
X10.9843Y-3.5803
X10.9843Y-3.6803
X10.9843Y-3.7803
X10.9843Y-3.8803
X10.9843Y-3.9803
X10.9843Y-4.0803
X11.2843Y-3.4803
X11.2843Y-3.5803
X11.2843Y-3.6803
X11.2843Y-3.7803
X11.2843Y-3.8803
X11.2843Y-3.9803
X11.2843Y-4.0803
X1.158Y0.261
X1.458Y0.261
X2.31Y-4.1674
X2.61Y-4.1674
X4.0317Y-1.9098
X4.0317Y-2.0098
X4.0317Y-2.1098
X4.0317Y-2.2098
X4.0317Y-2.3098
X4.0317Y-2.4098
X4.0317Y-2.5098
X4.0317Y-2.6098
X4.0317Y-2.7098
X4.0317Y-2.8098
X4.3317Y-1.9098
X4.3317Y-2.0098
X4.3317Y-2.1098
X4.3317Y-2.2098
X4.3317Y-2.3098
X4.3317Y-2.4098
X4.3317Y-2.5098
X4.3317Y-2.6098
X4.3317Y-2.7098
X4.3317Y-2.8098
X1.0494Y-4.3305
X1.3494Y-4.3305
X2.31Y-3.394
X2.61Y-3.394
X4.5735Y-5.8925
X4.5735Y-5.9925
X4.5735Y-6.0925
X4.5735Y-6.1925
X4.5735Y-6.2925
X4.5735Y-6.3925
X4.5735Y-6.4925
X4.5735Y-6.5925
X4.8735Y-5.8925
X4.8735Y-5.9925
X4.8735Y-6.0925
X4.8735Y-6.1925
X4.8735Y-6.2925
X4.8735Y-6.3925
X4.8735Y-6.4925
X4.8735Y-6.5925
X7.9252Y-3.0846
X7.9252Y-3.1846
X7.9252Y-3.2846
X7.9252Y-3.3846
X7.9252Y-3.4846
X7.9252Y-3.5846
X7.9252Y-3.6846
X7.9252Y-3.7846
X7.9252Y-3.8846
X7.9252Y-3.9846
X7.9252Y-4.0846
X7.9252Y-4.1846
X7.9252Y-4.2846
X7.9252Y-4.3846
X8.5252Y-3.0846
X8.5252Y-3.1846
X8.5252Y-3.2846
X8.5252Y-3.3846
X8.5252Y-3.4846
X8.5252Y-3.5846
X8.5252Y-3.6846
X8.5252Y-3.7846
X8.5252Y-3.8846
X8.5252Y-3.9846
X8.5252Y-4.0846
X8.5252Y-4.1846
X8.5252Y-4.2846
X8.5252Y-4.3846
X1.8898Y0.1154
X2.1898Y0.1154
X2.31Y-1.123
X2.61Y-1.123
X2.3898Y-5.811
X2.6898Y-5.811
X7.0913Y-5.5984
X7.3913Y-5.5984
X6.1118Y-5.5984
X6.4118Y-5.5984
X1.0494Y-3.643
X1.3494Y-3.643
X4.2717Y-0.4449
X4.2717Y-0.5449
X4.2717Y-0.6449
X4.2717Y-0.7449
X4.2717Y-0.8449
X4.2717Y-0.9449
X4.2717Y-1.0449
X4.5717Y-0.4449
X4.5717Y-0.5449
X4.5717Y-0.6449
X4.5717Y-0.7449
X4.5717Y-0.8449
X4.5717Y-0.9449
X4.5717Y-1.0449
X10.1728Y-5.2638
X10.1728Y-5.3638
X10.1728Y-5.4638
X10.1728Y-5.5638
X10.1728Y-5.6638
X10.1728Y-5.7638
X10.1728Y-5.8638
X10.1728Y-5.9638
X10.4728Y-5.2638
X10.4728Y-5.3638
X10.4728Y-5.4638
X10.4728Y-5.5638
X10.4728Y-5.6638
X10.4728Y-5.7638
X10.4728Y-5.8638
X10.4728Y-5.9638
X3.2441Y-3.1764
X3.2441Y-3.2764
X3.2441Y-3.3764
X3.2441Y-3.4764
X3.2441Y-3.5764
X3.2441Y-3.6764
X3.2441Y-3.7764
X3.5441Y-3.1764
X3.5441Y-3.2764
X3.5441Y-3.3764
X3.5441Y-3.4764
X3.5441Y-3.5764
X3.5441Y-3.6764
X3.5441Y-3.7764
X12.4319Y-1.8382
X12.4319Y-1.9382
X12.4319Y-2.0382
X12.4319Y-2.1382
X12.4319Y-2.2382
X12.4319Y-2.3382
X12.4319Y-2.4382
X12.7319Y-1.8382
X12.7319Y-1.9382
X12.7319Y-2.0382
X12.7319Y-2.1382
X12.7319Y-2.2382
X12.7319Y-2.3382
X12.7319Y-2.4382
X2.31Y-1.7576
X2.61Y-1.7576
X7.9016Y-0.4134
X7.9016Y-0.5134
X7.9016Y-0.6134
X7.9016Y-0.7134
X7.9016Y-0.8134
X7.9016Y-0.9134
X7.9016Y-1.0134
X7.9016Y-1.1134
X7.9016Y-1.2134
X7.9016Y-1.3134
X7.9016Y-1.4134
X7.9016Y-1.5134
X7.9016Y-1.6134
X7.9016Y-1.7134
X7.9016Y-1.8134
X7.9016Y-1.9134
X7.9016Y-2.0134
X7.9016Y-2.1134
X7.9016Y-2.2134
X7.9016Y-2.3134
X8.5016Y-0.4134
X8.5016Y-0.5134
X8.5016Y-0.6134
X8.5016Y-0.7134
X8.5016Y-0.8134
X8.5016Y-0.9134
X8.5016Y-1.0134
X8.5016Y-1.1134
X8.5016Y-1.2134
X8.5016Y-1.3134
X8.5016Y-1.4134
X8.5016Y-1.5134
X8.5016Y-1.6134
X8.5016Y-1.7134
X8.5016Y-1.8134
X8.5016Y-1.9134
X8.5016Y-2.0134
X8.5016Y-2.1134
X8.5016Y-2.2134
X8.5016Y-2.3134
X4.0317Y-3.1575
X4.0317Y-3.2575
X4.0317Y-3.3575
X4.0317Y-3.4575
X4.0317Y-3.5575
X4.0317Y-3.6575
X4.0317Y-3.7575
X4.0317Y-3.8575
X4.3317Y-3.1575
X4.3317Y-3.2575
X4.3317Y-3.3575
X4.3317Y-3.4575
X4.3317Y-3.5575
X4.3317Y-3.6575
X4.3317Y-3.7575
X4.3317Y-3.8575
X2.31Y-3.7807
X2.61Y-3.7807
X5.9631Y-5.8925
X5.9631Y-5.9925
X5.9631Y-6.0925
X5.9631Y-6.1925
X5.9631Y-6.2925
X5.9631Y-6.3925
X5.9631Y-6.4925
X5.9631Y-6.5925
X6.2631Y-5.8925
X6.2631Y-5.9925
X6.2631Y-6.0925
X6.2631Y-6.1925
X6.2631Y-6.2925
X6.2631Y-6.3925
X6.2631Y-6.4925
X6.2631Y-6.5925
X2.852Y0.2402
X3.152Y0.2402
X3.8788Y-5.8925
X3.8788Y-5.9925
X3.8788Y-6.0925
X3.8788Y-6.1925
X3.8788Y-6.2925
X3.8788Y-6.3925
X3.8788Y-6.4925
X3.8788Y-6.5925
X4.1788Y-5.8925
X4.1788Y-5.9925
X4.1788Y-6.0925
X4.1788Y-6.1925
X4.1788Y-6.2925
X4.1788Y-6.3925
X4.1788Y-6.4925
X4.1788Y-6.5925
X0.8929Y0.2555
X0.8929Y-0.0445
X2.31Y-1.8767
X2.61Y-1.8767
X11.4795Y-0.2047
X11.7795Y-0.2047
X3.6Y0.9217
X3.6Y0.8217
X3.6Y0.7217
X3.6Y0.6217
X3.6Y0.5217
X3.6Y0.4217
X3.6Y0.3217
X3.6Y0.2217
X3.6Y0.1217
X3.6Y0.0217
X3.9Y0.9217
X3.9Y0.8217
X3.9Y0.7217
X3.9Y0.6217
X3.9Y0.5217
X3.9Y0.4217
X3.9Y0.3217
X3.9Y0.2217
X3.9Y0.1217
X3.9Y0.0217
X10.0197Y0.0039
X10.1181Y0.0039
X5.9606Y-2.9724
X6.2606Y-2.9724
X5.8701Y0.5086
X6.1701Y0.5086
X1.6839Y-1.9911
X1.6839Y-2.0911
X1.6839Y-2.1911
X1.6839Y-2.2911
X1.6839Y-2.3911
X1.6839Y-2.4911
X1.6839Y-2.5911
X1.6839Y-2.6911
X1.9839Y-1.9911
X1.9839Y-2.0911
X1.9839Y-2.1911
X1.9839Y-2.2911
X1.9839Y-2.3911
X1.9839Y-2.4911
X1.9839Y-2.5911
X1.9839Y-2.6911
X11.8752Y-3.5957
X12.1752Y-3.5957
X10.9913Y-5.5591
X11.2913Y-5.5591
X10.3469Y-0.8972
X10.3469Y-0.9972
X10.3469Y-1.0972
X10.3469Y-1.1972
X10.3469Y-1.2972
X10.3469Y-1.3972
X10.3469Y-1.4972
X10.3469Y-1.5972
X10.3469Y-1.6972
X10.3469Y-1.7972
X10.3469Y-1.8972
X10.3469Y-1.9972
X10.3469Y-2.0972
X10.3469Y-2.1972
X10.9469Y-0.8972
X10.9469Y-0.9972
X10.9469Y-1.0972
X10.9469Y-1.1972
X10.9469Y-1.2972
X10.9469Y-1.3972
X10.9469Y-1.4972
X10.9469Y-1.5972
X10.9469Y-1.6972
X10.9469Y-1.7972
X10.9469Y-1.8972
X10.9469Y-1.9972
X10.9469Y-2.0972
X10.9469Y-2.1972
X6.4803Y-3.563
X6.4803Y-3.863
X4.9354Y-0.2409
X4.9354Y-0.3409
X4.9354Y-0.4409
X4.9354Y-0.5409
X4.9354Y-0.6409
X4.9354Y-0.7409
X4.9354Y-0.8409
X4.9354Y-0.9409
X4.9354Y-1.0409
X4.9354Y-1.1409
X4.9354Y-1.2409
X4.9354Y-1.3409
X4.9354Y-1.4409
X4.9354Y-1.5409
X4.9354Y-1.6409
X4.9354Y-1.7409
X4.9354Y-1.8409
X4.9354Y-1.9409
X4.9354Y-2.0409
X4.9354Y-2.1409
X5.5354Y-0.2409
X5.5354Y-0.3409
X5.5354Y-0.4409
X5.5354Y-0.5409
X5.5354Y-0.6409
X5.5354Y-0.7409
X5.5354Y-0.8409
X5.5354Y-0.9409
X5.5354Y-1.0409
X5.5354Y-1.1409
X5.5354Y-1.2409
X5.5354Y-1.3409
X5.5354Y-1.4409
X5.5354Y-1.5409
X5.5354Y-1.6409
X5.5354Y-1.7409
X5.5354Y-1.8409
X5.5354Y-1.9409
X5.5354Y-2.0409
X5.5354Y-2.1409
X2.31Y-3.5229
X2.61Y-3.5229
X6.6579Y-5.8925
X6.6579Y-5.9925
X6.6579Y-6.0925
X6.6579Y-6.1925
X6.6579Y-6.2925
X6.6579Y-6.3925
X6.6579Y-6.4925
X6.6579Y-6.5925
X6.9579Y-5.8925
X6.9579Y-5.9925
X6.9579Y-6.0925
X6.9579Y-6.1925
X6.9579Y-6.2925
X6.9579Y-6.3925
X6.9579Y-6.4925
X6.9579Y-6.5925
X2.31Y-1.3709
X2.61Y-1.3709
X2.31Y-4.0385
X2.61Y-4.0385
X3.598Y-0.3927
X3.598Y-0.4927
X3.598Y-0.5927
X3.598Y-0.6927
X3.598Y-0.7927
X3.598Y-0.8927
X3.598Y-0.9927
X3.598Y-1.0927
X3.598Y-1.1927
X3.598Y-1.2927
X3.898Y-0.3927
X3.898Y-0.4927
X3.898Y-0.5927
X3.898Y-0.6927
X3.898Y-0.7927
X3.898Y-0.8927
X3.898Y-0.9927
X3.898Y-1.0927
X3.898Y-1.1927
X3.898Y-1.2927
X2.85Y0.3669
X3.15Y0.3669
X1.8898Y-0.3004
X2.1898Y-0.3004
X2.31Y-2.1148
X2.61Y-2.1148
X3.1732Y-5.5984
X3.4732Y-5.5984
X2.3898Y-5.937
X2.6898Y-5.937
X11.8752Y-3.4417
X12.1752Y-3.4417
X1.0494Y-2.4413
X1.3494Y-2.4413
X11.1614Y-1.3898
X11.1614Y-1.6898
X10.9913Y-5.8317
X11.2913Y-5.8317
X11.3602Y-0.6118
X11.3602Y-0.7118
X11.3602Y-0.8118
X11.3602Y-0.9118
X11.3602Y-1.0118
X11.3602Y-1.1118
X11.3602Y-1.2118
X11.3602Y-1.3118
X11.3602Y-1.4118
X11.3602Y-1.5118
X11.3602Y-1.6118
X11.3602Y-1.7118
X11.3602Y-1.8118
X11.3602Y-1.9118
X11.3602Y-2.0118
X11.3602Y-2.1118
X11.3602Y-2.2118
X11.3602Y-2.3118
X11.3602Y-2.4118
X11.3602Y-2.5118
X11.9602Y-0.6118
X11.9602Y-0.7118
X11.9602Y-0.8118
X11.9602Y-0.9118
X11.9602Y-1.0118
X11.9602Y-1.1118
X11.9602Y-1.2118
X11.9602Y-1.3118
X11.9602Y-1.4118
X11.9602Y-1.5118
X11.9602Y-1.6118
X11.9602Y-1.7118
X11.9602Y-1.8118
X11.9602Y-1.9118
X11.9602Y-2.0118
X11.9602Y-2.1118
X11.9602Y-2.2118
X11.9602Y-2.3118
X11.9602Y-2.4118
X11.9602Y-2.5118
X9.0278Y-3.0846
X9.0278Y-3.1846
X9.0278Y-3.2846
X9.0278Y-3.3846
X9.0278Y-3.4846
X9.0278Y-3.5846
X9.0278Y-3.6846
X9.0278Y-3.7846
X9.0278Y-3.8846
X9.0278Y-3.9846
X9.0278Y-4.0846
X9.0278Y-4.1846
X9.0278Y-4.2846
X9.0278Y-4.3846
X9.6278Y-3.0846
X9.6278Y-3.1846
X9.6278Y-3.2846
X9.6278Y-3.3846
X9.6278Y-3.4846
X9.6278Y-3.5846
X9.6278Y-3.6846
X9.6278Y-3.7846
X9.6278Y-3.8846
X9.6278Y-3.9846
X9.6278Y-4.0846
X9.6278Y-4.1846
X9.6278Y-4.2846
X9.6278Y-4.3846
X10.1728Y-4.0358
X10.1728Y-4.1358
X10.1728Y-4.2358
X10.1728Y-4.3358
X10.1728Y-4.4358
X10.1728Y-4.5358
X10.1728Y-4.6358
X10.4728Y-4.0358
X10.4728Y-4.1358
X10.4728Y-4.2358
X10.4728Y-4.3358
X10.4728Y-4.4358
X10.4728Y-4.5358
X10.4728Y-4.6358
X2.31Y-2.4917
X2.61Y-2.4917
X4.7898Y-3.1417
X4.7898Y-3.2417
X4.7898Y-3.3417
X4.7898Y-3.4417
X4.7898Y-3.5417
X4.7898Y-3.6417
X4.7898Y-3.7417
X4.7898Y-3.8417
X4.7898Y-3.9417
X4.7898Y-4.0417
X4.7898Y-4.1417
X4.7898Y-4.2417
X4.7898Y-4.3417
X4.7898Y-4.4417
X4.7898Y-4.5417
X4.7898Y-4.6417
X4.7898Y-4.7417
X4.7898Y-4.8417
X4.7898Y-4.9417
X4.7898Y-5.0417
X5.3898Y-3.1417
X5.3898Y-3.2417
X5.3898Y-3.3417
X5.3898Y-3.4417
X5.3898Y-3.5417
X5.3898Y-3.6417
X5.3898Y-3.7417
X5.3898Y-3.8417
X5.3898Y-3.9417
X5.3898Y-4.0417
X5.3898Y-4.1417
X5.3898Y-4.2417
X5.3898Y-4.3417
X5.3898Y-4.4417
X5.3898Y-4.5417
X5.3898Y-4.6417
X5.3898Y-4.7417
X5.3898Y-4.8417
X5.3898Y-4.9417
X5.3898Y-5.0417
X2.31Y-2.2339
X2.61Y-2.2339
X7.3527Y-5.8925
X7.3527Y-5.9925
X7.3527Y-6.0925
X7.3527Y-6.1925
X7.3527Y-6.2925
X7.3527Y-6.3925
X7.3527Y-6.4925
X7.3527Y-6.5925
X7.6527Y-5.8925
X7.6527Y-5.9925
X7.6527Y-6.0925
X7.6527Y-6.1925
X7.6527Y-6.2925
X7.6527Y-6.3925
X7.6527Y-6.4925
X7.6527Y-6.5925
X3.0748Y-1.748
X3.0748Y-2.048
X1.0494Y-4.5038
X1.3494Y-4.5038
X2.31Y-3.9096
X2.61Y-3.9096
X6.7244Y-0.4016
X6.7244Y-0.5016
X6.7244Y-0.6016
X6.7244Y-0.7016
X6.7244Y-0.8016
X6.7244Y-0.9016
X6.7244Y-1.0016
X6.7244Y-1.1016
X6.7244Y-1.2016
X6.7244Y-1.3016
X6.7244Y-1.4016
X6.7244Y-1.5016
X6.7244Y-1.6016
X6.7244Y-1.7016
X6.7244Y-1.8016
X6.7244Y-1.9016
X6.7244Y-2.0016
X6.7244Y-2.1016
X6.7244Y-2.2016
X6.7244Y-2.3016
X7.3244Y-0.4016
X7.3244Y-0.5016
X7.3244Y-0.6016
X7.3244Y-0.7016
X7.3244Y-0.8016
X7.3244Y-0.9016
X7.3244Y-1.0016
X7.3244Y-1.1016
X7.3244Y-1.2016
X7.3244Y-1.3016
X7.3244Y-1.4016
X7.3244Y-1.5016
X7.3244Y-1.6016
X7.3244Y-1.7016
X7.3244Y-1.8016
X7.3244Y-1.9016
X7.3244Y-2.0016
X7.3244Y-2.1016
X7.3244Y-2.2016
X7.3244Y-2.3016
X3.0913Y-0.9244
X3.0913Y-1.2244
X1.1657Y0.0335
X1.4657Y0.0335
X2.3898Y-5.685
X2.6898Y-5.685
X3.3075Y-0.9276
X3.3075Y-1.2276
X4.1528Y-5.5984
X4.4528Y-5.5984
X11.8858Y-4.1063
X11.8858Y-4.2063
X11.8858Y-4.3063
X11.8858Y-4.4063
X11.8858Y-4.5063
X11.8858Y-4.6063
X11.8858Y-4.7063
X12.1858Y-4.1063
X12.1858Y-4.2063
X12.1858Y-4.3063
X12.1858Y-4.4063
X12.1858Y-4.5063
X12.1858Y-4.6063
X12.1858Y-4.7063
X10.9913Y-6.1043
X11.2913Y-6.1043
X1.0494Y-2.9555
X1.3494Y-2.9555
X10.1728Y-2.7264
X10.1728Y-2.8264
X10.1728Y-2.9264
X10.1728Y-3.0264
X10.1728Y-3.1264
X10.1728Y-3.2264
X10.1728Y-3.3264
X10.1728Y-3.4264
X10.4728Y-2.7264
X10.4728Y-2.8264
X10.4728Y-2.9264
X10.4728Y-3.0264
X10.4728Y-3.1264
X10.4728Y-3.2264
X10.4728Y-3.3264
X10.4728Y-3.4264
X2.31Y-2.3628
X2.61Y-2.3628
X0.2264Y0.7667
X0.2264Y0.4667
X2.31Y-1.4998
X2.61Y-1.4998
X2.31Y-4.4252
X2.61Y-4.4252
X12.2992Y0.0197
X12.2992Y-0.0803
X12.2992Y-0.1803
X12.2992Y-0.2803
X12.2992Y-0.3803
X12.2992Y-0.4803
X12.2992Y-0.5803
X12.5992Y0.0197
X12.5992Y-0.0803
X12.5992Y-0.1803
X12.5992Y-0.2803
X12.5992Y-0.3803
X12.5992Y-0.4803
X12.5992Y-0.5803
X0.2805Y0.0856
X0.5805Y0.0856
X2.31Y-4.2963
X2.61Y-4.2963
X6.7244Y-3.3661
X6.7244Y-3.4661
X6.7244Y-3.5661
X6.7244Y-3.6661
X6.7244Y-3.7661
X6.7244Y-3.8661
X6.7244Y-3.9661
X6.7244Y-4.0661
X6.7244Y-4.1661
X6.7244Y-4.2661
X6.7244Y-4.3661
X6.7244Y-4.4661
X6.7244Y-4.5661
X6.7244Y-4.6661
X7.3244Y-3.3661
X7.3244Y-3.4661
X7.3244Y-3.5661
X7.3244Y-3.6661
X7.3244Y-3.7661
X7.3244Y-3.8661
X7.3244Y-3.9661
X7.3244Y-4.0661
X7.3244Y-4.1661
X7.3244Y-4.2661
X7.3244Y-4.3661
X7.3244Y-4.4661
X7.3244Y-4.5661
X7.3244Y-4.6661
X1.8898Y-0.5724
X2.1898Y-0.5724
X0.9065Y-1.5522
X1.2065Y-1.5522
X1.1457Y0.5776
X1.4457Y0.5776
X2.3898Y-6.063
X2.6898Y-6.063
X1.69Y-3.58
X1.69Y-3.68
X1.69Y-3.78
X1.69Y-3.88
X1.69Y-3.98
X1.69Y-4.08
X1.69Y-4.18
X1.69Y-4.28
X1.99Y-3.58
X1.99Y-3.68
X1.99Y-3.78
X1.99Y-3.88
X1.99Y-3.98
X1.99Y-4.08
X1.99Y-4.18
X1.99Y-4.28
X2.3898Y-5.5591
X2.6898Y-5.5591
X11.8732Y-5.8337
X12.1732Y-5.8337
X12.5787Y-1.4331
X12.6787Y-1.3331
X12.7787Y-1.4331
X1.0494Y-4.1571
X1.3494Y-4.1571
X2.848Y0.0488
X2.848Y-0.0512
X2.848Y-0.1512
X2.848Y-0.2512
X2.848Y-0.3512
X2.848Y-0.4512
X2.848Y-0.5512
X3.148Y0.0488
X3.148Y-0.0512
X3.148Y-0.1512
X3.148Y-0.2512
X3.148Y-0.3512
X3.148Y-0.4512
X3.148Y-0.5512
X2.31Y-2.6206
X2.61Y-2.6206
X3.184Y-5.8925
X3.184Y-5.9925
X3.184Y-6.0925
X3.184Y-6.1925
X3.184Y-6.2925
X3.184Y-6.3925
X3.184Y-6.4925
X3.184Y-6.5925
X3.484Y-5.8925
X3.484Y-5.9925
X3.484Y-6.0925
X3.484Y-6.1925
X3.484Y-6.2925
X3.484Y-6.3925
X3.484Y-6.4925
X3.484Y-6.5925
X1.0494Y-3.1288
X1.3494Y-3.1288
X2.31Y-1.6287
X2.61Y-1.6287
X9.0041Y-0.4134
X9.0041Y-0.5134
X9.0041Y-0.6134
X9.0041Y-0.7134
X9.0041Y-0.8134
X9.0041Y-0.9134
X9.0041Y-1.0134
X9.0041Y-1.1134
X9.0041Y-1.2134
X9.0041Y-1.3134
X9.0041Y-1.4134
X9.0041Y-1.5134
X9.0041Y-1.6134
X9.0041Y-1.7134
X9.0041Y-1.8134
X9.0041Y-1.9134
X9.0041Y-2.0134
X9.0041Y-2.1134
X9.0041Y-2.2134
X9.0041Y-2.3134
X9.6041Y-0.4134
X9.6041Y-0.5134
X9.6041Y-0.6134
X9.6041Y-0.7134
X9.6041Y-0.8134
X9.6041Y-0.9134
X9.6041Y-1.0134
X9.6041Y-1.1134
X9.6041Y-1.2134
X9.6041Y-1.3134
X9.6041Y-1.4134
X9.6041Y-1.5134
X9.6041Y-1.6134
X9.6041Y-1.7134
X9.6041Y-1.8134
X9.6041Y-1.9134
X9.6041Y-2.0134
X9.6041Y-2.1134
X9.6041Y-2.2134
X9.6041Y-2.3134
X6.9488Y-4.9764
X7.1409Y-4.9764
X0.2805Y-0.3815
X0.5805Y-0.3815
X2.31Y-2.7495
X2.61Y-2.7495
X8.0474Y-5.8925
X8.0474Y-5.9925
X8.0474Y-6.0925
X8.0474Y-6.1925
X8.0474Y-6.2925
X8.0474Y-6.3925
X8.0474Y-6.4925
X8.0474Y-6.5925
X8.3474Y-5.8925
X8.3474Y-5.9925
X8.3474Y-6.0925
X8.3474Y-6.1925
X8.3474Y-6.2925
X8.3474Y-6.3925
X8.3474Y-6.4925
X8.3474Y-6.5925
X1.152Y0.428
X1.452Y0.428
X1.8898Y-0.1681
X2.1898Y-0.1681
X0.9065Y-1.7047
X1.2065Y-1.7047
X5.8701Y0.3875
X6.1701Y0.3875
X0.2805Y-0.547
X0.5805Y-0.547
X5.1323Y-5.5984
X5.4323Y-5.5984
X8.0709Y-5.5984
X8.3709Y-5.5984
X0.2805Y-0.2199
X0.5805Y-0.2199
T6
X1.7504Y-4.5713
X1.9472Y-4.5713
X6.9528Y-3.1654
X7.1496Y-3.1654
X11.0134Y-4.3917
X11.2102Y-4.3917
X6.7091Y-6.8071
X6.9059Y-6.8071
X9.2295Y-2.8724
X9.4264Y-2.8724
X0.9581Y-1.8671
X1.1549Y-1.8671
X10.224Y-2.5287
X10.4209Y-2.5287
X2.3616Y-2.8784
X2.5584Y-2.8784
X12.4831Y-2.7232
X12.6799Y-2.7232
X3.6469Y1.0638
X3.8437Y1.0638
X1.9413Y-0.4327
X2.1382Y-0.4327
X1.9413Y0.2551
X2.1382Y0.2551
X0.8862Y-0.213
X0.8862Y-0.4098
X11.9268Y-3.878
X12.1236Y-3.878
X8.127Y-0.2278
X8.3238Y-0.2278
X7.0661Y0.8665
X7.1207Y0.9783
X7.1752Y0.8665
X7.2297Y0.9783
X7.2843Y0.8665
X7.3388Y0.9783
X7.3933Y0.8665
X7.4478Y0.9783
X7.5024Y0.8665
X8.0986Y-6.8071
X8.2955Y-6.8071
X11.0421Y-3.2933
X11.239Y-3.2933
X2.3616Y-3.0073
X2.5584Y-3.0073
X5.1372Y-0.0137
X5.3341Y-0.0137
X3.2953Y-1.7835
X3.4921Y-1.7835
X1.737Y-2.9925
X1.9339Y-2.9925
X4.1087Y0.2701
X4.1087Y0.0732
X0.3321Y0.261
X0.5289Y0.261
X4.0829Y-1.6929
X4.2797Y-1.6929
X11.0669Y-2.7992
X11.2638Y-2.7992
X9.2295Y-0.2278
X9.4264Y-0.2278
X10.5283Y-0.7008
X10.7252Y-0.7008
X5.3195Y-6.8067
X5.5163Y-6.8067
X10.224Y-3.7953
X10.4209Y-3.7953
X2.3622Y-4.7075
X2.5591Y-4.7075
X3.3618Y-0.3319
X3.3618Y-0.5287
X12.3504Y0.2717
X12.5472Y0.2717
X3.1063Y-0.778
X3.3031Y-0.778
X3.2953Y-4.0689
X3.4921Y-4.0689
X4.2992Y-0.2402
X4.4961Y-0.2402
X7.4039Y-6.8071
X7.6007Y-6.8071
X12.5787Y-0.7913
X12.7756Y-0.7913
X0.9581Y-2.0394
X1.1549Y-2.0394
X1.2933Y-0.8289
X1.2933Y-1.1289
X1.6933Y-0.8289
X1.6933Y-1.1289
X1.7933Y-0.8289
X1.7933Y-1.1289
X11.5563Y-0.4197
X11.7531Y-0.4197
X2.3616Y-3.1362
X2.5584Y-3.1362
X1.6815Y0.5598
X1.7815Y0.5598
X1.8815Y0.5598
X1.9815Y0.5598
X2.0815Y0.5598
X2.1815Y0.5598
X2.2815Y0.5598
X2.3815Y0.5598
X2.4815Y0.5598
X2.5815Y0.5598
X2.6815Y0.5598
X2.7815Y0.5598
X2.8815Y0.5598
X2.9815Y0.5598
X3.0815Y0.5598
X3.1815Y0.5598
X3.3988Y0.1256
X3.3988Y-0.0713
X5.4776Y1.0177
X5.5776Y1.0177
X5.6776Y1.0177
X5.7776Y1.0177
X5.8776Y1.0177
X5.9776Y1.0177
X0.5654Y0.6346
X0.7622Y0.6346
X3.9299Y-6.8071
X4.1268Y-6.8071
X5.7992Y-0.2992
X5.7992Y-0.4961
X11.9268Y-3.7453
X12.1236Y-3.7453
X0.3321Y-0.0701
X0.5289Y-0.0701
X4.9915Y-2.8838
X5.1884Y-2.8838
X10.224Y-6.189
X10.4209Y-6.189
X3.2352Y-6.8028
X3.432Y-6.8028
X1.9262Y0.9593
X1.9262Y0.8593
X2.0262Y0.9593
X2.0262Y0.8593
X2.1262Y0.9593
X2.1262Y0.8593
X2.2262Y0.9593
X2.2262Y0.8593
X2.3262Y0.9593
X2.3262Y0.8593
X2.4262Y0.9593
X2.4262Y0.8593
X2.5262Y0.9593
X2.5262Y0.8593
X2.6262Y0.9593
X2.6262Y0.8593
X2.7262Y0.9593
X2.7262Y0.8593
X2.8262Y0.9593
X2.8262Y0.8593
X10.6055Y-0.4339
X10.7055Y-0.4339
X8.127Y-2.8724
X8.3238Y-2.8724
X10.0827Y0.6685
X10.0827Y0.4685
X10.1827Y0.6685
X10.1827Y0.4685
X10.2827Y0.6685
X10.2827Y0.4685
X10.3827Y0.6685
X10.3827Y0.4685
X10.4827Y0.6685
X10.4827Y0.4685
X10.5827Y0.6685
X10.5827Y0.4685
X10.6827Y0.6685
X10.6827Y0.4685
X10.7827Y0.6685
X10.7827Y0.4685
X10.8827Y0.6685
X10.8827Y0.4685
X10.9827Y0.6685
X10.9827Y0.4685
X11.0827Y0.6685
X11.0827Y0.4685
X11.1827Y0.6685
X11.1827Y0.4685
X11.2827Y0.6685
X11.2827Y0.4685
X11.3827Y0.6685
X11.3827Y0.4685
X11.4827Y0.6685
X11.4827Y0.4685
X11.5827Y0.6685
X11.5827Y0.4685
X11.6827Y0.6685
X11.6827Y0.4685
X11.7827Y0.6685
X11.7827Y0.4685
X11.8827Y0.6685
X11.8827Y0.4685
X11.9827Y0.6685
X11.9827Y0.4685
X0.5291Y0.4756
X0.6291Y0.4756
X1.2096Y-0.5569
X1.4065Y-0.5569
X1.2096Y-0.3815
X1.4065Y-0.3815
X1.101Y-3.3022
X1.2978Y-3.3022
X4.0829Y-4.0571
X4.2797Y-4.0571
X1.101Y-4.6772
X1.2978Y-4.6772
X3.6492Y-0.1898
X3.8461Y-0.1898
X2.3616Y-4.5541
X2.5584Y-4.5541
X0.5228Y-5.1882
X0.5228Y-5.2882
X0.5228Y-5.3882
X1.7366Y-3.278
X1.9335Y-3.278
X0.9581Y-1.3898
X1.1549Y-1.3898
X4.6247Y-6.7992
X4.8216Y-6.7992
X9.2008Y-5.0354
X9.3976Y-5.0354
X2.3616Y-3.2651
X2.5584Y-3.2651
X0.451Y0.9813
X0.551Y0.9813
X0.651Y0.9813
X0.751Y0.9813
X0.851Y0.9813
X0.951Y0.9813
X1.051Y0.9813
X1.151Y0.9813
X1.251Y0.9813
X1.101Y-2.6087
X1.2978Y-2.6087
X6.0143Y-6.8071
X6.2111Y-6.8071
X1.101Y-3.4755
X1.2978Y-3.4755
T7
X12.7106Y-4.135
X12.7106Y-4.235
X12.7106Y-4.335
X12.7106Y-4.435
X12.7106Y-4.535
X12.7106Y-4.635
X12.7106Y-4.735
X12.7106Y-4.835
X12.7106Y-4.935
X12.7106Y-5.035
X12.7106Y-5.135
X12.7106Y-5.235
X12.7106Y-5.335
X12.7106Y-5.435
X12.7106Y-5.535
X12.7106Y-5.635
X12.7106Y-5.735
X12.8106Y-4.135
X12.8106Y-4.235
X12.8106Y-4.335
X12.8106Y-4.435
X12.8106Y-4.535
X12.8106Y-4.635
X12.8106Y-4.735
X12.8106Y-4.835
X12.8106Y-4.935
X12.8106Y-5.035
X12.8106Y-5.135
X12.8106Y-5.235
X12.8106Y-5.335
X12.8106Y-5.435
X12.8106Y-5.535
X12.8106Y-5.635
X12.8106Y-5.735
T8
X0.3701Y-6.0433
X0.3701Y-6.2598
X0.5354Y-6.0433
X0.5354Y-6.2598
X0.7008Y-6.0433
X0.7008Y-6.2598
X0.8661Y-6.0433
X0.8661Y-6.2598
X1.0315Y-6.0433
X1.0315Y-6.2598
X1.1969Y-6.0433
X1.1969Y-6.2598
X1.3622Y-6.0433
X1.3622Y-6.2598
X1.5276Y-6.0433
X1.5276Y-6.2598
X1.6929Y-6.0433
X1.6929Y-6.2598
X1.8583Y-6.0433
X1.8583Y-6.2598
T9
X0.098Y-4.1051
X0.098Y-4.2035
X0.098Y-4.4004
X0.098Y-4.4988
X0.4878Y-4.0067
X0.4878Y-4.302
X0.4878Y-4.5972
X0.5862Y-4.1051
X0.5862Y-4.4988
X0.6846Y-4.302
X4.1303Y0.6886
X4.2287Y1.0783
X4.2287Y0.5902
X4.3311Y1.0783
X4.4256Y0.6886
X4.524Y1.0783
X4.6224Y1.0783
X4.6224Y0.5902
X4.7209Y0.6886
X0.0965Y-2.5335
X0.0965Y-2.6319
X0.0965Y-2.8287
X0.0965Y-2.9272
X0.4862Y-2.435
X0.4862Y-2.7303
X0.4862Y-3.0256
X0.5846Y-2.5335
X0.5846Y-2.9272
X0.6831Y-2.7303
T10
X1.6937Y0.9301
X3.0587Y0.9301
T11
X6.7921Y0.8783
X7.7764Y0.8783
T12
X9.7452Y1.0085
X12.3202Y1.0085
T0
M30
