M48
; DRILL file {KiCad (5.1.5)-3} date 6/22/2022 8:07:22 PM
; FORMAT={-:-/ absolute / inch / decimal}
; #@! TF.CreationDate,2022-06-22T20:07:22-05:00
; #@! TF.GenerationSoftware,Kicad,Pcbnew,(5.1.5)-3
; #@! TF.FileFunction,Plated,1,2,PTH
FMAT,2
INCH
T1C0.0157
T2C0.0236
T3C0.0276
T4C0.0295
T5C0.0315
T6C0.0394
T7C0.0400
T8C0.0551
T9C0.0591
T10C0.1059
T11C0.1260
T12C0.1280
%
G90
G05
T1
X0.4838Y-1.105
X1.4901Y-2.4976
X1.5133Y-1.0608
X1.637Y-0.5287
X1.7336Y0.406
X2.1466Y-0.3546
X2.2114Y-1.5489
X2.2455Y0.0856
X2.4933Y-0.8499
X2.5029Y-0.2163
X2.5065Y-1.4998
X2.5235Y-2.823
X2.5713Y-2.9428
X2.9899Y0.6498
X3.1323Y-2.0331
X3.1395Y-1.7437
X3.3225Y-1.365
X3.3923Y-1.81
X3.4207Y-1.7367
X3.5166Y-1.7159
X3.6009Y-3.0239
X3.6184Y-2.6145
X3.6436Y-2.0644
X3.75Y-4.1989
X3.8017Y0.7235
X3.8504Y-1.5331
X3.9077Y-4.1671
X3.9206Y-4.3923
X3.926Y-2.696
X3.9383Y-4.2481
X4.0982Y-1.1428
X4.1067Y-0.3373
X4.1144Y-0.7306
X4.1211Y-0.5486
X4.143Y-1.0384
X4.1606Y-0.5621
X4.1677Y-2.4229
X4.2175Y-0.3095
X4.231Y-1.4692
X4.2468Y-1.3545
X4.3005Y-4.2203
X4.3041Y0.5024
X4.3158Y-2.9294
X4.3346Y-4.4131
X4.3401Y-4.5966
X4.3747Y0.801
X4.4078Y0.7667
X4.4212Y-1.0825
X4.4228Y-5.1657
X4.436Y-0.5927
X4.4728Y-1.1886
X4.4906Y-5.1622
X4.4998Y-1.3496
X4.5184Y-4.2917
X4.5345Y-3.8556
X4.5379Y-5.2181
X4.5555Y-1.1108
X4.5608Y-4.9146
X4.5677Y-3.6052
X4.5708Y0.5176
X4.5721Y-2.7744
X4.619Y-3.7101
X4.6535Y-3.4118
X4.6575Y-2.9502
X4.6673Y-5.3199
X4.6826Y0.847
X4.7018Y-3.3392
X4.7101Y-5.1251
X4.7373Y-1.2645
X4.7571Y-2.6378
X4.7571Y-2.7451
X4.7639Y-0.0837
X4.7891Y-2.7953
X4.7959Y-0.7381
X4.8269Y-1.6116
X4.9138Y-3.4403
X4.9519Y-3.2919
X4.9622Y-3.0323
X5.0454Y-1.5313
X5.1012Y-1.6922
X5.1184Y-2.3044
X5.195Y-3.9323
X5.2342Y-2.3251
X5.3019Y-0.4689
X5.304Y-1.5438
X5.4079Y-1.33
X5.4425Y-0.5691
X5.4563Y-1.0909
X5.4574Y-1.9196
X5.462Y-2.0725
X5.4747Y-3.2089
X5.5404Y-2.9125
X5.5494Y-3.2836
X5.5558Y0.9044
X5.5955Y-0.7056
X5.6122Y-1.2966
X5.6228Y-2.0357
X5.7056Y-1.649
X5.7057Y-1.4464
X5.7226Y-2.0372
X5.7294Y0.7439
X5.7318Y-2.9586
X5.7958Y-1.564
X5.8055Y-4.6397
X5.9051Y-3.4481
X5.9447Y-0.9708
X5.9586Y-1.0909
X5.9948Y-3.125
X6.0145Y-0.8716
X6.0357Y-3.3241
X6.0619Y-3.2226
X6.0944Y-3.524
X6.1882Y-3.6166
X6.2107Y-0.8248
X6.2301Y-1.5056
X6.2336Y-3.3333
X6.243Y-3.9675
X6.2583Y-4.9686
X6.2822Y-3.9845
X6.294Y0.4079
X6.344Y-3.1935
X6.3737Y-0.9611
X6.3817Y-3.3175
X6.4458Y-4.0926
X6.4639Y-0.9162
X6.4779Y-4.1459
X6.4947Y-1.357
X6.5081Y-3.9372
X6.5082Y-0.9504
X6.5172Y-1.0928
X6.5377Y-0.9014
X6.5381Y-3.9903
X6.5772Y-0.9014
X6.5888Y-0.9414
X6.6411Y-4.3494
X6.9741Y-4.0762
X7.0217Y-2.8704
X7.1132Y-1.8451
X7.2111Y-2.7478
X7.2601Y-0.6664
X7.3148Y-2.3678
X7.4101Y-0.5832
X7.4175Y-2.6414
X7.5127Y-3.6161
X7.5282Y-3.7303
X7.5573Y-1.4112
X7.5726Y-1.8081
X7.6052Y-3.8463
X7.6284Y-1.0415
X7.7061Y-3.8464
X7.7362Y-1.2453
X7.7667Y-1.8577
X7.8364Y-2.6175
X7.8671Y0.1594
X7.9808Y-2.1952
X8.0047Y-1.7582
X8.0731Y0.0643
X8.095Y-1.4427
X8.2386Y-1.4969
X8.2751Y-2.729
X8.3201Y-2.7448
X8.4118Y-2.7485
X8.6619Y-3.8988
X8.8302Y-4.7709
X8.8635Y-1.0875
X8.9152Y-1.0276
X9.2485Y-2.7514
X9.3671Y-2.6161
X9.4172Y-0.8134
X9.4195Y-1.2427
X9.4201Y-1.7634
X9.4236Y-1.66
X9.4721Y-2.5918
X9.4724Y-2.7792
X9.4724Y-2.7179
X9.5087Y-3.3167
X9.5534Y-4.3125
X9.7502Y-0.082
X9.8018Y0.4531
X9.9309Y-1.5028
X9.9533Y0.2115
X10.0111Y-1.9266
X10.0245Y0.5273
X10.0297Y-2.1927
X10.0397Y-2.7866
X10.0666Y-1.9179
X10.0666Y-1.9574
X10.0826Y-1.8248
X10.0826Y-2.0855
X10.3236Y-3.4078
X10.3507Y-2.4479
X10.4182Y-1.5409
X10.461Y-0.2488
X10.4728Y-0.3126
X10.5076Y-0.2855
X10.6537Y0.0692
X10.6546Y-0.1522
X10.7304Y0.1911
X10.7606Y-1.3972
X10.7746Y-0.8118
X10.7807Y-1.0764
X10.7884Y-1.4622
X10.8542Y-0.1462
X10.9038Y0.5295
X10.9131Y0.2262
X10.9469Y0.0195
X10.9748Y-0.0085
X11.0013Y-2.1403
X11.0112Y-2.8486
X11.0278Y-0.0632
X11.0367Y-2.2163
X11.0823Y-3.7238
X11.3212Y-4.33
X11.3574Y-2.6786
X11.376Y-4.1728
X11.4573Y-3.9395
X11.4798Y-3.1117
X11.4992Y-0.8354
X11.5676Y-3.8219
X11.6252Y-1.2266
X11.7596Y-4.4975
X12.0185Y-1.9402
X12.358Y-4.8958
X12.3908Y-4.8674
X12.4393Y-4.8502
X12.665Y-4.0696
T2
X0.3691Y-1.0163
X0.4478Y-1.0163
X0.3691Y-1.768
X0.4478Y-1.768
X8.1264Y0.8157
X8.2051Y0.8157
X9.9134Y-4.1969
X9.9134Y-4.2756
X0.3691Y-0.7657
X0.4478Y-0.7657
X0.3691Y-1.2669
X0.4478Y-1.2669
X5.2256Y0.4567
X5.3043Y0.4567
X0.3691Y-1.5174
X0.4478Y-1.5174
X3.3453Y0.5646
X3.424Y0.5646
X0.3661Y-2.0185
X0.4449Y-2.0185
X6.2283Y-0.4961
X6.3071Y-0.4961
X2.7008Y-6.6102
X2.7008Y-6.689
T3
X2.5313Y-0.4949
X2.5813Y-0.5449
X2.6313Y-0.4949
X2.5313Y-0.1469
X2.5813Y-0.1969
X2.6313Y-0.1469
T4
X0.9165Y-0.8604
X0.9665Y-0.8104
X0.9665Y-0.9104
X2.474Y0.2012
X2.524Y0.2512
X2.574Y0.2012
T5
X12.2992Y0.0197
X12.2992Y-0.0803
X12.2992Y-0.1803
X12.2992Y-0.2803
X12.2992Y-0.3803
X12.2992Y-0.4803
X12.2992Y-0.5803
X12.5992Y0.0197
X12.5992Y-0.0803
X12.5992Y-0.1803
X12.5992Y-0.2803
X12.5992Y-0.3803
X12.5992Y-0.4803
X12.5992Y-0.5803
X2.31Y-2.4917
X2.61Y-2.4917
X11.3602Y-0.6118
X11.3602Y-0.7118
X11.3602Y-0.8118
X11.3602Y-0.9118
X11.3602Y-1.0118
X11.3602Y-1.1118
X11.3602Y-1.2118
X11.3602Y-1.3118
X11.3602Y-1.4118
X11.3602Y-1.5118
X11.3602Y-1.6118
X11.3602Y-1.7118
X11.3602Y-1.8118
X11.3602Y-1.9118
X11.3602Y-2.0118
X11.3602Y-2.1118
X11.3602Y-2.2118
X11.3602Y-2.3118
X11.3602Y-2.4118
X11.3602Y-2.5118
X11.9602Y-0.6118
X11.9602Y-0.7118
X11.9602Y-0.8118
X11.9602Y-0.9118
X11.9602Y-1.0118
X11.9602Y-1.1118
X11.9602Y-1.2118
X11.9602Y-1.3118
X11.9602Y-1.4118
X11.9602Y-1.5118
X11.9602Y-1.6118
X11.9602Y-1.7118
X11.9602Y-1.8118
X11.9602Y-1.9118
X11.9602Y-2.0118
X11.9602Y-2.1118
X11.9602Y-2.2118
X11.9602Y-2.3118
X11.9602Y-2.4118
X11.9602Y-2.5118
X0.2264Y0.7667
X0.2264Y0.4667
X2.31Y-3.9096
X2.61Y-3.9096
X2.31Y-2.1148
X2.61Y-2.1148
X2.3898Y-6.063
X2.6898Y-6.063
X2.31Y-4.4252
X2.61Y-4.4252
X1.6839Y-1.9911
X1.6839Y-2.0911
X1.6839Y-2.1911
X1.6839Y-2.2911
X1.6839Y-2.3911
X1.6839Y-2.4911
X1.6839Y-2.5911
X1.6839Y-2.6911
X1.9839Y-1.9911
X1.9839Y-2.0911
X1.9839Y-2.1911
X1.9839Y-2.2911
X1.9839Y-2.3911
X1.9839Y-2.4911
X1.9839Y-2.5911
X1.9839Y-2.6911
X2.85Y0.3669
X3.15Y0.3669
X8.0709Y-5.5984
X8.3709Y-5.5984
X1.158Y0.261
X1.458Y0.261
X1.158Y-0.2159
X1.458Y-0.2159
X1.0494Y-2.7821
X1.3494Y-2.7821
X1.0494Y-2.9555
X1.3494Y-2.9555
X10.9843Y-3.4803
X10.9843Y-3.5803
X10.9843Y-3.6803
X10.9843Y-3.7803
X10.9843Y-3.8803
X10.9843Y-3.9803
X10.9843Y-4.0803
X11.2843Y-3.4803
X11.2843Y-3.5803
X11.2843Y-3.6803
X11.2843Y-3.7803
X11.2843Y-3.8803
X11.2843Y-3.9803
X11.2843Y-4.0803
X10.1728Y-5.2638
X10.1728Y-5.3638
X10.1728Y-5.4638
X10.1728Y-5.5638
X10.1728Y-5.6638
X10.1728Y-5.7638
X10.1728Y-5.8638
X10.1728Y-5.9638
X10.4728Y-5.2638
X10.4728Y-5.3638
X10.4728Y-5.4638
X10.4728Y-5.5638
X10.4728Y-5.6638
X10.4728Y-5.7638
X10.4728Y-5.8638
X10.4728Y-5.9638
X3.3075Y-0.9276
X3.3075Y-1.2276
X3.2441Y-2.0079
X3.2441Y-2.1079
X3.2441Y-2.2079
X3.2441Y-2.3079
X3.2441Y-2.4079
X3.2441Y-2.5079
X3.2441Y-2.6079
X3.2441Y-2.7079
X3.5441Y-2.0079
X3.5441Y-2.1079
X3.5441Y-2.2079
X3.5441Y-2.3079
X3.5441Y-2.4079
X3.5441Y-2.5079
X3.5441Y-2.6079
X3.5441Y-2.7079
X3.598Y-0.3927
X3.598Y-0.4927
X3.598Y-0.5927
X3.598Y-0.6927
X3.598Y-0.7927
X3.598Y-0.8927
X3.598Y-0.9927
X3.598Y-1.0927
X3.598Y-1.1927
X3.598Y-1.2927
X3.898Y-0.3927
X3.898Y-0.4927
X3.898Y-0.5927
X3.898Y-0.6927
X3.898Y-0.7927
X3.898Y-0.8927
X3.898Y-0.9927
X3.898Y-1.0927
X3.898Y-1.1927
X3.898Y-1.2927
X2.31Y-3.6518
X2.61Y-3.6518
X2.31Y-3.5229
X2.61Y-3.5229
X4.2717Y-0.4449
X4.2717Y-0.5449
X4.2717Y-0.6449
X4.2717Y-0.7449
X4.2717Y-0.8449
X4.2717Y-0.9449
X4.2717Y-1.0449
X4.5717Y-0.4449
X4.5717Y-0.5449
X4.5717Y-0.6449
X4.5717Y-0.7449
X4.5717Y-0.8449
X4.5717Y-0.9449
X4.5717Y-1.0449
X2.31Y-1.0039
X2.61Y-1.0039
X12.0472Y-3.1732
X12.2394Y-3.1732
X2.3898Y-5.811
X2.6898Y-5.811
X6.9488Y-4.9764
X7.1409Y-4.9764
X5.8701Y0.3875
X6.1701Y0.3875
X2.31Y-1.123
X2.61Y-1.123
X1.8898Y-0.0283
X2.1898Y-0.0283
X2.31Y-4.1674
X2.61Y-4.1674
X9.1535Y-5.2559
X9.1535Y-5.3559
X9.1535Y-5.4559
X9.1535Y-5.5559
X9.1535Y-5.6559
X9.1535Y-5.7559
X9.1535Y-5.8559
X9.4535Y-5.2559
X9.4535Y-5.3559
X9.4535Y-5.4559
X9.4535Y-5.5559
X9.4535Y-5.6559
X9.4535Y-5.7559
X9.4535Y-5.8559
X1.8898Y-0.5724
X2.1898Y-0.5724
X7.9252Y-3.0846
X7.9252Y-3.1846
X7.9252Y-3.2846
X7.9252Y-3.3846
X7.9252Y-3.4846
X7.9252Y-3.5846
X7.9252Y-3.6846
X7.9252Y-3.7846
X7.9252Y-3.8846
X7.9252Y-3.9846
X7.9252Y-4.0846
X7.9252Y-4.1846
X7.9252Y-4.2846
X7.9252Y-4.3846
X8.5252Y-3.0846
X8.5252Y-3.1846
X8.5252Y-3.2846
X8.5252Y-3.3846
X8.5252Y-3.4846
X8.5252Y-3.5846
X8.5252Y-3.6846
X8.5252Y-3.7846
X8.5252Y-3.8846
X8.5252Y-3.9846
X8.5252Y-4.0846
X8.5252Y-4.1846
X8.5252Y-4.2846
X8.5252Y-4.3846
X10.1728Y-4.0358
X10.1728Y-4.1358
X10.1728Y-4.2358
X10.1728Y-4.3358
X10.1728Y-4.4358
X10.1728Y-4.5358
X10.1728Y-4.6358
X10.4728Y-4.0358
X10.4728Y-4.1358
X10.4728Y-4.2358
X10.4728Y-4.3358
X10.4728Y-4.4358
X10.4728Y-4.5358
X10.4728Y-4.6358
X12.5787Y-1.0528
X12.6787Y-0.9528
X12.7787Y-1.0528
X10.9622Y-4.6067
X10.9622Y-4.7067
X10.9622Y-4.8067
X10.9622Y-4.9067
X10.9622Y-5.0067
X10.9622Y-5.1067
X10.9622Y-5.2067
X11.2622Y-4.6067
X11.2622Y-4.7067
X11.2622Y-4.8067
X11.2622Y-4.9067
X11.2622Y-5.0067
X11.2622Y-5.1067
X11.2622Y-5.2067
X3.184Y-5.8925
X3.184Y-5.9925
X3.184Y-6.0925
X3.184Y-6.1925
X3.184Y-6.2925
X3.184Y-6.3925
X3.184Y-6.4925
X3.184Y-6.5925
X3.484Y-5.8925
X3.484Y-5.9925
X3.484Y-6.0925
X3.484Y-6.1925
X3.484Y-6.2925
X3.484Y-6.3925
X3.484Y-6.4925
X3.484Y-6.5925
X5.2683Y-5.8925
X5.2683Y-5.9925
X5.2683Y-6.0925
X5.2683Y-6.1925
X5.2683Y-6.2925
X5.2683Y-6.3925
X5.2683Y-6.4925
X5.2683Y-6.5925
X5.5683Y-5.8925
X5.5683Y-5.9925
X5.5683Y-6.0925
X5.5683Y-6.1925
X5.5683Y-6.2925
X5.5683Y-6.3925
X5.5683Y-6.4925
X5.5683Y-6.5925
X4.0317Y-1.9098
X4.0317Y-2.0098
X4.0317Y-2.1098
X4.0317Y-2.2098
X4.0317Y-2.3098
X4.0317Y-2.4098
X4.0317Y-2.5098
X4.0317Y-2.6098
X4.0317Y-2.7098
X4.0317Y-2.8098
X4.3317Y-1.9098
X4.3317Y-2.0098
X4.3317Y-2.1098
X4.3317Y-2.2098
X4.3317Y-2.3098
X4.3317Y-2.4098
X4.3317Y-2.5098
X4.3317Y-2.6098
X4.3317Y-2.7098
X4.3317Y-2.8098
X2.31Y-3.7807
X2.61Y-3.7807
X2.31Y-1.242
X2.61Y-1.242
X2.3898Y-5.685
X2.6898Y-5.685
X2.31Y-1.7576
X2.61Y-1.7576
X6.1118Y-5.5984
X6.4118Y-5.5984
X2.3898Y-5.937
X2.6898Y-5.937
X1.0494Y-2.4413
X1.3494Y-2.4413
X3.0913Y-0.9244
X3.0913Y-1.2244
X4.1528Y-5.5984
X4.4528Y-5.5984
X0.2805Y-0.3815
X0.5805Y-0.3815
X1.8898Y0.1154
X2.1898Y0.1154
X3.2441Y-3.1764
X3.2441Y-3.2764
X3.2441Y-3.3764
X3.2441Y-3.4764
X3.2441Y-3.5764
X3.2441Y-3.6764
X3.2441Y-3.7764
X3.5441Y-3.1764
X3.5441Y-3.2764
X3.5441Y-3.3764
X3.5441Y-3.4764
X3.5441Y-3.5764
X3.5441Y-3.6764
X3.5441Y-3.7764
X11.1614Y-1.3898
X11.1614Y-1.6898
X10.3469Y-0.8972
X10.3469Y-0.9972
X10.3469Y-1.0972
X10.3469Y-1.1972
X10.3469Y-1.2972
X10.3469Y-1.3972
X10.3469Y-1.4972
X10.3469Y-1.5972
X10.3469Y-1.6972
X10.3469Y-1.7972
X10.3469Y-1.8972
X10.3469Y-1.9972
X10.3469Y-2.0972
X10.3469Y-2.1972
X10.9469Y-0.8972
X10.9469Y-0.9972
X10.9469Y-1.0972
X10.9469Y-1.1972
X10.9469Y-1.2972
X10.9469Y-1.3972
X10.9469Y-1.4972
X10.9469Y-1.5972
X10.9469Y-1.6972
X10.9469Y-1.7972
X10.9469Y-1.8972
X10.9469Y-1.9972
X10.9469Y-2.0972
X10.9469Y-2.1972
X10.9913Y-6.1043
X11.2913Y-6.1043
X6.7244Y-3.3661
X6.7244Y-3.4661
X6.7244Y-3.5661
X6.7244Y-3.6661
X6.7244Y-3.7661
X6.7244Y-3.8661
X6.7244Y-3.9661
X6.7244Y-4.0661
X6.7244Y-4.1661
X6.7244Y-4.2661
X6.7244Y-4.3661
X6.7244Y-4.4661
X6.7244Y-4.5661
X6.7244Y-4.6661
X7.3244Y-3.3661
X7.3244Y-3.4661
X7.3244Y-3.5661
X7.3244Y-3.6661
X7.3244Y-3.7661
X7.3244Y-3.8661
X7.3244Y-3.9661
X7.3244Y-4.0661
X7.3244Y-4.1661
X7.3244Y-4.2661
X7.3244Y-4.3661
X7.3244Y-4.4661
X7.3244Y-4.5661
X7.3244Y-4.6661
X7.9016Y-0.4134
X7.9016Y-0.5134
X7.9016Y-0.6134
X7.9016Y-0.7134
X7.9016Y-0.8134
X7.9016Y-0.9134
X7.9016Y-1.0134
X7.9016Y-1.1134
X7.9016Y-1.2134
X7.9016Y-1.3134
X7.9016Y-1.4134
X7.9016Y-1.5134
X7.9016Y-1.6134
X7.9016Y-1.7134
X7.9016Y-1.8134
X7.9016Y-1.9134
X7.9016Y-2.0134
X7.9016Y-2.1134
X7.9016Y-2.2134
X7.9016Y-2.3134
X8.5016Y-0.4134
X8.5016Y-0.5134
X8.5016Y-0.6134
X8.5016Y-0.7134
X8.5016Y-0.8134
X8.5016Y-0.9134
X8.5016Y-1.0134
X8.5016Y-1.1134
X8.5016Y-1.2134
X8.5016Y-1.3134
X8.5016Y-1.4134
X8.5016Y-1.5134
X8.5016Y-1.6134
X8.5016Y-1.7134
X8.5016Y-1.8134
X8.5016Y-1.9134
X8.5016Y-2.0134
X8.5016Y-2.1134
X8.5016Y-2.2134
X8.5016Y-2.3134
X2.31Y-2.6206
X2.61Y-2.6206
X2.31Y-4.0385
X2.61Y-4.0385
X2.31Y-2.3628
X2.61Y-2.3628
X5.8701Y0.5086
X6.1701Y0.5086
X1.8898Y-0.1681
X2.1898Y-0.1681
X5.8701Y0.0831
X6.1701Y0.0831
X2.31Y-0.8809
X2.61Y-0.8809
X1.1657Y-0.0878
X1.4657Y-0.0878
X2.31Y-4.2963
X2.61Y-4.2963
X4.9354Y-0.2409
X4.9354Y-0.3409
X4.9354Y-0.4409
X4.9354Y-0.5409
X4.9354Y-0.6409
X4.9354Y-0.7409
X4.9354Y-0.8409
X4.9354Y-0.9409
X4.9354Y-1.0409
X4.9354Y-1.1409
X4.9354Y-1.2409
X4.9354Y-1.3409
X4.9354Y-1.4409
X4.9354Y-1.5409
X4.9354Y-1.6409
X4.9354Y-1.7409
X4.9354Y-1.8409
X4.9354Y-1.9409
X4.9354Y-2.0409
X4.9354Y-2.1409
X5.5354Y-0.2409
X5.5354Y-0.3409
X5.5354Y-0.4409
X5.5354Y-0.5409
X5.5354Y-0.6409
X5.5354Y-0.7409
X5.5354Y-0.8409
X5.5354Y-0.9409
X5.5354Y-1.0409
X5.5354Y-1.1409
X5.5354Y-1.2409
X5.5354Y-1.3409
X5.5354Y-1.4409
X5.5354Y-1.5409
X5.5354Y-1.6409
X5.5354Y-1.7409
X5.5354Y-1.8409
X5.5354Y-1.9409
X5.5354Y-2.0409
X5.5354Y-2.1409
X1.1657Y0.0335
X1.4657Y0.0335
X1.0494Y-4.5038
X1.3494Y-4.5038
X11.8732Y-5.8337
X12.1732Y-5.8337
X10.9913Y-5.5591
X11.2913Y-5.5591
X11.8858Y-4.1063
X11.8858Y-4.2063
X11.8858Y-4.3063
X11.8858Y-4.4063
X11.8858Y-4.5063
X11.8858Y-4.6063
X11.8858Y-4.7063
X12.1858Y-4.1063
X12.1858Y-4.2063
X12.1858Y-4.3063
X12.1858Y-4.4063
X12.1858Y-4.5063
X12.1858Y-4.6063
X12.1858Y-4.7063
X5.9631Y-5.8925
X5.9631Y-5.9925
X5.9631Y-6.0925
X5.9631Y-6.1925
X5.9631Y-6.2925
X5.9631Y-6.3925
X5.9631Y-6.4925
X5.9631Y-6.5925
X6.2631Y-5.8925
X6.2631Y-5.9925
X6.2631Y-6.0925
X6.2631Y-6.1925
X6.2631Y-6.2925
X6.2631Y-6.3925
X6.2631Y-6.4925
X6.2631Y-6.5925
X2.31Y-2.7495
X2.61Y-2.7495
X2.31Y-1.3709
X2.61Y-1.3709
X10.1728Y-2.7264
X10.1728Y-2.8264
X10.1728Y-2.9264
X10.1728Y-3.0264
X10.1728Y-3.1264
X10.1728Y-3.2264
X10.1728Y-3.3264
X10.1728Y-3.4264
X10.4728Y-2.7264
X10.4728Y-2.8264
X10.4728Y-2.9264
X10.4728Y-3.0264
X10.4728Y-3.1264
X10.4728Y-3.2264
X10.4728Y-3.3264
X10.4728Y-3.4264
X2.31Y-3.394
X2.61Y-3.394
X5.9606Y-2.9724
X6.2606Y-2.9724
X1.152Y0.428
X1.452Y0.428
X7.0913Y-5.5984
X7.3913Y-5.5984
X1.0494Y-3.1288
X1.3494Y-3.1288
X1.0494Y-3.643
X1.3494Y-3.643
X6.4803Y-3.563
X6.4803Y-3.863
X3.8788Y-5.8925
X3.8788Y-5.9925
X3.8788Y-6.0925
X3.8788Y-6.1925
X3.8788Y-6.2925
X3.8788Y-6.3925
X3.8788Y-6.4925
X3.8788Y-6.5925
X4.1788Y-5.8925
X4.1788Y-5.9925
X4.1788Y-6.0925
X4.1788Y-6.1925
X4.1788Y-6.2925
X4.1788Y-6.3925
X4.1788Y-6.4925
X4.1788Y-6.5925
X9.0278Y-3.0846
X9.0278Y-3.1846
X9.0278Y-3.2846
X9.0278Y-3.3846
X9.0278Y-3.4846
X9.0278Y-3.5846
X9.0278Y-3.6846
X9.0278Y-3.7846
X9.0278Y-3.8846
X9.0278Y-3.9846
X9.0278Y-4.0846
X9.0278Y-4.1846
X9.0278Y-4.2846
X9.0278Y-4.3846
X9.6278Y-3.0846
X9.6278Y-3.1846
X9.6278Y-3.2846
X9.6278Y-3.3846
X9.6278Y-3.4846
X9.6278Y-3.5846
X9.6278Y-3.6846
X9.6278Y-3.7846
X9.6278Y-3.8846
X9.6278Y-3.9846
X9.6278Y-4.0846
X9.6278Y-4.1846
X9.6278Y-4.2846
X9.6278Y-4.3846
X12.5787Y-1.4331
X12.6787Y-1.3331
X12.7787Y-1.4331
X8.0474Y-5.8925
X8.0474Y-5.9925
X8.0474Y-6.0925
X8.0474Y-6.1925
X8.0474Y-6.2925
X8.0474Y-6.3925
X8.0474Y-6.4925
X8.0474Y-6.5925
X8.3474Y-5.8925
X8.3474Y-5.9925
X8.3474Y-6.0925
X8.3474Y-6.1925
X8.3474Y-6.2925
X8.3474Y-6.3925
X8.3474Y-6.4925
X8.3474Y-6.5925
X11.8752Y-3.4417
X12.1752Y-3.4417
X0.2805Y-0.547
X0.5805Y-0.547
X7.3527Y-5.8925
X7.3527Y-5.9925
X7.3527Y-6.0925
X7.3527Y-6.1925
X7.3527Y-6.2925
X7.3527Y-6.3925
X7.3527Y-6.4925
X7.3527Y-6.5925
X7.6527Y-5.8925
X7.6527Y-5.9925
X7.6527Y-6.0925
X7.6527Y-6.1925
X7.6527Y-6.2925
X7.6527Y-6.3925
X7.6527Y-6.4925
X7.6527Y-6.5925
X1.69Y-3.58
X1.69Y-3.68
X1.69Y-3.78
X1.69Y-3.88
X1.69Y-3.98
X1.69Y-4.08
X1.69Y-4.18
X1.69Y-4.28
X1.99Y-3.58
X1.99Y-3.68
X1.99Y-3.78
X1.99Y-3.88
X1.99Y-3.98
X1.99Y-4.08
X1.99Y-4.18
X1.99Y-4.28
X2.31Y-1.9958
X2.61Y-1.9958
X2.31Y-1.4998
X2.61Y-1.4998
X12.4961Y-1.7874
X12.4961Y-1.8874
X12.4961Y-1.9874
X12.4961Y-2.0874
X12.4961Y-2.1874
X12.4961Y-2.2874
X12.4961Y-2.3874
X12.7961Y-1.7874
X12.7961Y-1.8874
X12.7961Y-1.9874
X12.7961Y-2.0874
X12.7961Y-2.1874
X12.7961Y-2.2874
X12.7961Y-2.3874
X12.2748Y-2.9291
X12.5748Y-2.9291
X5.8701Y0.2467
X6.1701Y0.2467
X1.1457Y0.5776
X1.4457Y0.5776
X5.1323Y-5.5984
X5.4323Y-5.5984
X0.2805Y0.0856
X0.5805Y0.0856
X0.9065Y-1.5522
X1.2065Y-1.5522
X11.4795Y-0.2047
X11.7795Y-0.2047
X4.5735Y-5.8925
X4.5735Y-5.9925
X4.5735Y-6.0925
X4.5735Y-6.1925
X4.5735Y-6.2925
X4.5735Y-6.3925
X4.5735Y-6.4925
X4.5735Y-6.5925
X4.8735Y-5.8925
X4.8735Y-5.9925
X4.8735Y-6.0925
X4.8735Y-6.1925
X4.8735Y-6.2925
X4.8735Y-6.3925
X4.8735Y-6.4925
X4.8735Y-6.5925
X2.31Y-1.8767
X2.61Y-1.8767
X4.7898Y-3.1417
X4.7898Y-3.2417
X4.7898Y-3.3417
X4.7898Y-3.4417
X4.7898Y-3.5417
X4.7898Y-3.6417
X4.7898Y-3.7417
X4.7898Y-3.8417
X4.7898Y-3.9417
X4.7898Y-4.0417
X4.7898Y-4.1417
X4.7898Y-4.2417
X4.7898Y-4.3417
X4.7898Y-4.4417
X4.7898Y-4.5417
X4.7898Y-4.6417
X4.7898Y-4.7417
X4.7898Y-4.8417
X4.7898Y-4.9417
X4.7898Y-5.0417
X5.3898Y-3.1417
X5.3898Y-3.2417
X5.3898Y-3.3417
X5.3898Y-3.4417
X5.3898Y-3.5417
X5.3898Y-3.6417
X5.3898Y-3.7417
X5.3898Y-3.8417
X5.3898Y-3.9417
X5.3898Y-4.0417
X5.3898Y-4.1417
X5.3898Y-4.2417
X5.3898Y-4.3417
X5.3898Y-4.4417
X5.3898Y-4.5417
X5.3898Y-4.6417
X5.3898Y-4.7417
X5.3898Y-4.8417
X5.3898Y-4.9417
X5.3898Y-5.0417
X11.8732Y-6.1063
X12.1732Y-6.1063
X10.9913Y-5.8317
X11.2913Y-5.8317
X3.6Y0.9217
X3.6Y0.8217
X3.6Y0.7217
X3.6Y0.6217
X3.6Y0.5217
X3.6Y0.4217
X3.6Y0.3217
X3.6Y0.2217
X3.6Y0.1217
X3.6Y0.0217
X3.9Y0.9217
X3.9Y0.8217
X3.9Y0.7217
X3.9Y0.6217
X3.9Y0.5217
X3.9Y0.4217
X3.9Y0.3217
X3.9Y0.2217
X3.9Y0.1217
X3.9Y0.0217
X6.7244Y-0.4016
X6.7244Y-0.5016
X6.7244Y-0.6016
X6.7244Y-0.7016
X6.7244Y-0.8016
X6.7244Y-0.9016
X6.7244Y-1.0016
X6.7244Y-1.1016
X6.7244Y-1.2016
X6.7244Y-1.3016
X6.7244Y-1.4016
X6.7244Y-1.5016
X6.7244Y-1.6016
X6.7244Y-1.7016
X6.7244Y-1.8016
X6.7244Y-1.9016
X6.7244Y-2.0016
X6.7244Y-2.1016
X6.7244Y-2.2016
X6.7244Y-2.3016
X7.3244Y-0.4016
X7.3244Y-0.5016
X7.3244Y-0.6016
X7.3244Y-0.7016
X7.3244Y-0.8016
X7.3244Y-0.9016
X7.3244Y-1.0016
X7.3244Y-1.1016
X7.3244Y-1.2016
X7.3244Y-1.3016
X7.3244Y-1.4016
X7.3244Y-1.5016
X7.3244Y-1.6016
X7.3244Y-1.7016
X7.3244Y-1.8016
X7.3244Y-1.9016
X7.3244Y-2.0016
X7.3244Y-2.1016
X7.3244Y-2.2016
X7.3244Y-2.3016
X1.69Y-1.42
X1.69Y-1.52
X1.69Y-1.62
X1.69Y-1.72
X1.99Y-1.42
X1.99Y-1.52
X1.99Y-1.62
X1.99Y-1.72
X2.31Y-2.2339
X2.61Y-2.2339
X2.31Y-1.6287
X2.61Y-1.6287
X11.7157Y-2.9213
X12.0157Y-2.9213
X2.3898Y-5.5591
X2.6898Y-5.5591
X6.6047Y0.6494
X6.9047Y0.6494
X0.2805Y-0.2199
X0.5805Y-0.2199
X3.0748Y-1.748
X3.0748Y-2.048
X3.1732Y-5.5984
X3.4732Y-5.5984
X1.0494Y-4.3305
X1.3494Y-4.3305
X0.9065Y-1.7047
X1.2065Y-1.7047
X1.8898Y-0.3004
X2.1898Y-0.3004
X1.0494Y-4.1571
X1.3494Y-4.1571
X2.852Y0.2402
X3.152Y0.2402
X4.0317Y-3.1575
X4.0317Y-3.2575
X4.0317Y-3.3575
X4.0317Y-3.4575
X4.0317Y-3.5575
X4.0317Y-3.6575
X4.0317Y-3.7575
X4.0317Y-3.8575
X4.3317Y-3.1575
X4.3317Y-3.2575
X4.3317Y-3.3575
X4.3317Y-3.4575
X4.3317Y-3.5575
X4.3317Y-3.6575
X4.3317Y-3.7575
X4.3317Y-3.8575
X2.848Y0.0488
X2.848Y-0.0512
X2.848Y-0.1512
X2.848Y-0.2512
X2.848Y-0.3512
X2.848Y-0.4512
X2.848Y-0.5512
X3.148Y0.0488
X3.148Y-0.0512
X3.148Y-0.1512
X3.148Y-0.2512
X3.148Y-0.3512
X3.148Y-0.4512
X3.148Y-0.5512
X11.8752Y-3.5957
X12.1752Y-3.5957
X0.8929Y0.2555
X0.8929Y-0.0445
X9.0041Y-0.4134
X9.0041Y-0.5134
X9.0041Y-0.6134
X9.0041Y-0.7134
X9.0041Y-0.8134
X9.0041Y-0.9134
X9.0041Y-1.0134
X9.0041Y-1.1134
X9.0041Y-1.2134
X9.0041Y-1.3134
X9.0041Y-1.4134
X9.0041Y-1.5134
X9.0041Y-1.6134
X9.0041Y-1.7134
X9.0041Y-1.8134
X9.0041Y-1.9134
X9.0041Y-2.0134
X9.0041Y-2.1134
X9.0041Y-2.2134
X9.0041Y-2.3134
X9.6041Y-0.4134
X9.6041Y-0.5134
X9.6041Y-0.6134
X9.6041Y-0.7134
X9.6041Y-0.8134
X9.6041Y-0.9134
X9.6041Y-1.0134
X9.6041Y-1.1134
X9.6041Y-1.2134
X9.6041Y-1.3134
X9.6041Y-1.4134
X9.6041Y-1.5134
X9.6041Y-1.6134
X9.6041Y-1.7134
X9.6041Y-1.8134
X9.6041Y-1.9134
X9.6041Y-2.0134
X9.6041Y-2.1134
X9.6041Y-2.2134
X9.6041Y-2.3134
X6.6579Y-5.8925
X6.6579Y-5.9925
X6.6579Y-6.0925
X6.6579Y-6.1925
X6.6579Y-6.2925
X6.6579Y-6.3925
X6.6579Y-6.4925
X6.6579Y-6.5925
X6.9579Y-5.8925
X6.9579Y-5.9925
X6.9579Y-6.0925
X6.9579Y-6.1925
X6.9579Y-6.2925
X6.9579Y-6.3925
X6.9579Y-6.4925
X6.9579Y-6.5925
T6
X1.101Y-4.6772
X1.2978Y-4.6772
X0.9581Y-1.3898
X1.1549Y-1.3898
X4.2992Y-0.2402
X4.4961Y-0.2402
X11.5563Y-0.4197
X11.7531Y-0.4197
X10.224Y-2.5287
X10.4209Y-2.5287
X4.0829Y-1.6929
X4.2797Y-1.6929
X12.5472Y-2.5669
X12.7441Y-2.5669
X5.3195Y-6.8067
X5.5163Y-6.8067
X6.9528Y-3.1654
X7.1496Y-3.1654
X1.737Y-2.9925
X1.9339Y-2.9925
X9.2295Y-0.2278
X9.4264Y-0.2278
X0.3321Y0.261
X0.5289Y0.261
X0.9581Y-1.8671
X1.1549Y-1.8671
X1.2933Y-0.8289
X1.2933Y-1.1289
X1.6933Y-0.8289
X1.6933Y-1.1289
X1.7933Y-0.8289
X1.7933Y-1.1289
X4.0829Y-4.0571
X4.2797Y-4.0571
X9.2295Y-2.8724
X9.4264Y-2.8724
X1.6815Y0.5598
X1.7815Y0.5598
X1.8815Y0.5598
X1.9815Y0.5598
X2.0815Y0.5598
X2.1815Y0.5598
X2.2815Y0.5598
X2.3815Y0.5598
X2.4815Y0.5598
X2.5815Y0.5598
X2.6815Y0.5598
X2.7815Y0.5598
X2.8815Y0.5598
X2.9815Y0.5598
X3.0815Y0.5598
X3.1815Y0.5598
X11.0669Y-2.7992
X11.2638Y-2.7992
X3.2352Y-6.8028
X3.432Y-6.8028
X0.5228Y-5.1882
X0.5228Y-5.2882
X0.5228Y-5.3882
X3.2953Y-4.0689
X3.4921Y-4.0689
X12.0315Y-2.7441
X12.2283Y-2.7441
X3.3988Y0.1256
X3.3988Y-0.0713
X11.5945Y-3.1693
X11.7913Y-3.1693
X1.9413Y0.2551
X2.1382Y0.2551
X3.6469Y1.0638
X3.8437Y1.0638
X2.3616Y-3.2651
X2.5584Y-3.2651
X1.9262Y0.9593
X1.9262Y0.8593
X2.0262Y0.9593
X2.0262Y0.8593
X2.1262Y0.9593
X2.1262Y0.8593
X2.2262Y0.9593
X2.2262Y0.8593
X2.3262Y0.9593
X2.3262Y0.8593
X2.4262Y0.9593
X2.4262Y0.8593
X2.5262Y0.9593
X2.5262Y0.8593
X2.6262Y0.9593
X2.6262Y0.8593
X2.7262Y0.9593
X2.7262Y0.8593
X2.8262Y0.9593
X2.8262Y0.8593
X4.6247Y-6.7992
X4.8216Y-6.7992
X3.6492Y-0.1898
X3.8461Y-0.1898
X9.2008Y-5.0354
X9.3976Y-5.0354
X4.9915Y-2.8838
X5.1884Y-2.8838
X10.0827Y0.6685
X10.0827Y0.4685
X10.1827Y0.6685
X10.1827Y0.4685
X10.2827Y0.6685
X10.2827Y0.4685
X10.3827Y0.6685
X10.3827Y0.4685
X10.4827Y0.6685
X10.4827Y0.4685
X10.5827Y0.6685
X10.5827Y0.4685
X10.6827Y0.6685
X10.6827Y0.4685
X10.7827Y0.6685
X10.7827Y0.4685
X10.8827Y0.6685
X10.8827Y0.4685
X10.9827Y0.6685
X10.9827Y0.4685
X11.0827Y0.6685
X11.0827Y0.4685
X11.1827Y0.6685
X11.1827Y0.4685
X11.2827Y0.6685
X11.2827Y0.4685
X11.3827Y0.6685
X11.3827Y0.4685
X11.4827Y0.6685
X11.4827Y0.4685
X11.5827Y0.6685
X11.5827Y0.4685
X11.6827Y0.6685
X11.6827Y0.4685
X11.7827Y0.6685
X11.7827Y0.4685
X11.8827Y0.6685
X11.8827Y0.4685
X11.9827Y0.6685
X11.9827Y0.4685
X8.127Y-2.8724
X8.3238Y-2.8724
X4.1087Y0.2701
X4.1087Y0.0732
X12.2126Y-2.0984
X12.2126Y-2.2953
X5.4776Y1.0177
X5.5776Y1.0177
X5.6776Y1.0177
X5.7776Y1.0177
X5.8776Y1.0177
X5.9776Y1.0177
X1.9413Y-0.4327
X2.1382Y-0.4327
X6.7091Y-6.8071
X6.9059Y-6.8071
X0.5654Y0.6346
X0.7622Y0.6346
X1.101Y-3.4755
X1.2978Y-3.4755
X0.8862Y-0.213
X0.8862Y-0.4098
X2.3616Y-3.1362
X2.5584Y-3.1362
X10.6055Y-0.4339
X10.7055Y-0.4339
X7.0661Y0.8665
X7.1207Y0.9783
X7.1752Y0.8665
X7.2297Y0.9783
X7.2843Y0.8665
X7.3388Y0.9783
X7.3933Y0.8665
X7.4478Y0.9783
X7.5024Y0.8665
X7.4039Y-6.8071
X7.6007Y-6.8071
X1.7366Y-3.278
X1.9335Y-3.278
X3.2953Y-1.7835
X3.4921Y-1.7835
X1.7504Y-4.5713
X1.9472Y-4.5713
X0.5291Y0.4756
X0.6291Y0.4756
X3.1063Y-0.778
X3.3031Y-0.778
X2.3616Y-2.8784
X2.5584Y-2.8784
X0.451Y0.9813
X0.551Y0.9813
X0.651Y0.9813
X0.751Y0.9813
X0.851Y0.9813
X0.951Y0.9813
X1.051Y0.9813
X1.151Y0.9813
X1.251Y0.9813
X12.5787Y-0.7913
X12.7756Y-0.7913
X11.0134Y-4.3917
X11.2102Y-4.3917
X11.0421Y-3.2933
X11.239Y-3.2933
X11.9268Y-3.878
X12.1236Y-3.878
X2.3622Y-4.7075
X2.5591Y-4.7075
X1.101Y-2.6087
X1.2978Y-2.6087
X2.3616Y-3.0073
X2.5584Y-3.0073
X10.224Y-6.189
X10.4209Y-6.189
X6.0143Y-6.8071
X6.2111Y-6.8071
X8.0986Y-6.8071
X8.2955Y-6.8071
X8.127Y-0.2278
X8.3238Y-0.2278
X3.3618Y-0.3319
X3.3618Y-0.5287
X2.3616Y-4.5541
X2.5584Y-4.5541
X1.2096Y-0.3815
X1.4065Y-0.3815
X11.9268Y-3.7453
X12.1236Y-3.7453
X5.7992Y-0.2992
X5.7992Y-0.4961
X10.5283Y-0.7008
X10.7252Y-0.7008
X5.1372Y-0.0137
X5.3341Y-0.0137
X3.9299Y-6.8071
X4.1268Y-6.8071
X12.3504Y0.2717
X12.5472Y0.2717
X10.224Y-3.7953
X10.4209Y-3.7953
T7
X12.7106Y-4.135
X12.7106Y-4.235
X12.7106Y-4.335
X12.7106Y-4.435
X12.7106Y-4.535
X12.7106Y-4.635
X12.7106Y-4.735
X12.7106Y-4.835
X12.7106Y-4.935
X12.7106Y-5.035
X12.7106Y-5.135
X12.7106Y-5.235
X12.7106Y-5.335
X12.7106Y-5.435
X12.7106Y-5.535
X12.7106Y-5.635
X12.7106Y-5.735
X12.8106Y-4.135
X12.8106Y-4.235
X12.8106Y-4.335
X12.8106Y-4.435
X12.8106Y-4.535
X12.8106Y-4.635
X12.8106Y-4.735
X12.8106Y-4.835
X12.8106Y-4.935
X12.8106Y-5.035
X12.8106Y-5.135
X12.8106Y-5.235
X12.8106Y-5.335
X12.8106Y-5.435
X12.8106Y-5.535
X12.8106Y-5.635
X12.8106Y-5.735
T8
X0.3701Y-6.0433
X0.3701Y-6.2598
X0.5354Y-6.0433
X0.5354Y-6.2598
X0.7008Y-6.0433
X0.7008Y-6.2598
X0.8661Y-6.0433
X0.8661Y-6.2598
X1.0315Y-6.0433
X1.0315Y-6.2598
X1.1969Y-6.0433
X1.1969Y-6.2598
X1.3622Y-6.0433
X1.3622Y-6.2598
X1.5276Y-6.0433
X1.5276Y-6.2598
X1.6929Y-6.0433
X1.6929Y-6.2598
X1.8583Y-6.0433
X1.8583Y-6.2598
T9
X4.1303Y0.6886
X4.2287Y1.0783
X4.2287Y0.5902
X4.3311Y1.0783
X4.4256Y0.6886
X4.524Y1.0783
X4.6224Y1.0783
X4.6224Y0.5902
X4.7209Y0.6886
X0.0965Y-2.5335
X0.0965Y-2.6319
X0.0965Y-2.8287
X0.0965Y-2.9272
X0.4862Y-2.435
X0.4862Y-2.7303
X0.4862Y-3.0256
X0.5846Y-2.5335
X0.5846Y-2.9272
X0.6831Y-2.7303
X0.098Y-4.1051
X0.098Y-4.2035
X0.098Y-4.4004
X0.098Y-4.4988
X0.4878Y-4.0067
X0.4878Y-4.302
X0.4878Y-4.5972
X0.5862Y-4.1051
X0.5862Y-4.4988
X0.6846Y-4.302
X9.8819Y-0.1457
X10.0787Y0.0512
X10.2756Y-0.1457
T10
X1.6937Y0.9301
X3.0587Y0.9301
T11
X6.7921Y0.8783
X7.7764Y0.8783
T12
X9.7452Y1.0085
X12.3202Y1.0085
T0
M30
