M48
; DRILL file {KiCad (5.1.5)-3} date 3/11/2022 11:47:42 AM
; FORMAT={-:-/ absolute / inch / decimal}
; #@! TF.CreationDate,2022-03-11T11:47:42-06:00
; #@! TF.GenerationSoftware,Kicad,Pcbnew,(5.1.5)-3
; #@! TF.FileFunction,Plated,1,2,PTH
FMAT,2
INCH
T1C0.0157
T2C0.0236
T3C0.0276
T4C0.0295
T5C0.0315
T6C0.0394
T7C0.0551
T8C0.0591
T9C0.1059
T10C0.1280
%
G90
G05
T1
X0.3899Y-2.677
X0.8275Y-2.3496
X1.2236Y-3.7495
X1.3126Y-2.5063
X1.4306Y-2.8889
X1.4399Y-2.2922
X1.4891Y-3.1792
X1.4986Y-4.0131
X1.5479Y-2.6476
X1.8054Y-0.6601
X1.8062Y-5.0669
X1.8204Y-1.4089
X1.843Y-1.643
X1.8958Y0.6436
X1.9034Y-0.6478
X1.9477Y-0.6036
X1.9587Y-4.9145
X1.9807Y-0.3485
X1.9874Y-0.5642
X2.0527Y-0.7748
X2.0701Y-1.9198
X2.0933Y-0.4943
X2.2229Y-4.0646
X2.2606Y-0.3659
X2.3297Y-0.5808
X2.3633Y-4.0831
X2.3865Y-3.3624
X2.3903Y-2.7057
X2.4811Y-0.6459
X2.5509Y-4.104
X2.5814Y-0.728
X2.5902Y-0.0951
X2.6318Y0.0686
X2.7105Y-0.6638
X2.7622Y-2.146
X2.775Y-2.5321
X2.7763Y0.4841
X2.778Y-0.7569
X2.7847Y0.5404
X2.7855Y-0.208
X2.8791Y0.1096
X2.9892Y-0.6072
X2.9892Y-1.7319
X3.0178Y-1.3925
X3.1236Y-0.7274
X3.1596Y-2.8543
X3.2337Y-4.3537
X3.2382Y-3.7605
X3.2409Y-3.7178
X3.2469Y-3.9079
X3.3179Y-0.9237
X3.3333Y0.4256
X3.3569Y0.8514
X3.4119Y1.0884
X3.4267Y0.6752
X3.4836Y-1.8119
X3.4952Y0.5128
X3.5234Y-1.8178
X3.528Y-4.6537
X3.5314Y0.7852
X3.5607Y-1.8552
X3.6509Y0.8134
X3.7384Y-2.037
X3.7394Y-2.0991
X3.8657Y0.3542
X4.0462Y-2.2453
X4.1071Y-4.1059
X4.122Y-3.976
X4.2204Y-2.3789
X4.2394Y-1.0994
X4.2558Y-1.0459
X4.26Y-3.4466
X4.2674Y-2.3319
X4.279Y-1.1046
X4.3135Y-0.9421
X4.4404Y-2.6423
X4.4686Y-0.6308
X4.4934Y-2.7358
X4.5613Y-2.9121
X4.5988Y-1.4557
X4.6001Y-1.9897
X4.6013Y-0.4508
X4.6169Y-2.1453
X4.6271Y-0.5493
X4.7609Y-0.4389
X4.838Y-2.2453
X4.8414Y-3.0649
X4.9172Y-2.611
X5.0081Y-2.6284
X5.0194Y-2.4912
X5.0668Y-2.6857
X5.0696Y-2.0703
X5.0981Y-2.1511
X5.0996Y-3.0738
X5.1393Y-2.8503
X5.2334Y-1.4223
X5.2741Y-2.8069
X5.3213Y-2.2809
X5.3789Y-0.2717
X5.5067Y-1.2349
X5.5797Y-1.2767
X5.6039Y-2.3511
X5.6207Y-1.4334
X5.739Y-2.5115
X5.867Y-2.2141
X5.9075Y-1.1349
X5.9162Y-1.4266
X5.9657Y-1.9109
X5.9846Y-1.2095
X6.0413Y-3.0262
X6.0417Y-4.1446
X6.0493Y-3.0952
X6.1368Y-1.9538
X6.1825Y-0.4881
X6.1953Y-0.3846
X6.3405Y-3.2207
X6.4277Y-0.6012
X6.4381Y0.1368
X6.5313Y-3.0868
X6.5775Y-3.471
X6.6037Y-1.3869
X6.6233Y-1.1073
X6.6405Y-5.0718
X6.6484Y-1.1492
X6.6519Y-4.9531
X6.6687Y-2.4461
X6.6757Y-4.7475
X6.6861Y-5.0773
X6.7023Y-2.8835
X6.714Y-2.4794
X6.7156Y-2.0482
X6.7226Y-1.7159
X6.747Y-1.7992
X6.749Y-0.8936
X6.7975Y-4.8749
X6.8115Y-1.687
X6.8133Y-1.5873
X6.8223Y-3.0261
X6.8408Y-2.6916
X6.9342Y-0.9434
X6.9402Y-1.4969
X6.9596Y-1.7492
X6.9601Y-4.8471
X6.9926Y-1.8917
X7.0284Y-2.0992
X7.0347Y-2.9002
X7.0655Y-2.6633
X7.0706Y-3.1624
X7.0742Y-2.8842
X7.084Y-3.8958
X7.1516Y0.0959
X7.1554Y-3.5161
X7.1967Y-2.3644
X7.2014Y-4.3073
X7.2151Y-1.3462
X7.2161Y-2.7745
X7.2551Y-2.6211
X7.2586Y-3.9669
X7.2633Y-2.6618
X7.2754Y-2.7041
X7.2959Y-2.4629
X7.3149Y-1.5463
X7.3168Y-3.9616
X7.3764Y-4.3039
X7.3853Y-4.1436
X7.4014Y-1.2428
X7.4037Y-1.4303
X7.4663Y-2.5389
X7.5017Y-0.3689
X7.6441Y-4.2423
X7.663Y-1.9024
X7.685Y-1.8656
X7.7023Y-1.7619
X7.714Y-2.5864
X7.7282Y0.1768
X7.7312Y-1.9095
X7.7602Y0.2481
X7.8196Y-2.5249
X7.8409Y-3.2542
X7.8419Y-2.3775
X7.8499Y-3.1116
X7.8792Y-1.0919
X7.8944Y-2.8927
X7.9547Y-2.2502
X8.0209Y-0.1096
X8.0293Y0.0959
X8.0306Y-0.2645
X8.0331Y-2.2017
X8.0635Y-0.0993
X8.0759Y-1.9748
X8.1027Y-0.0739
X8.108Y-2.0284
X8.245Y-3.3468
X8.2565Y-1.232
X8.3173Y-2.2531
X8.3207Y-1.971
X8.3482Y-2.2017
X8.3872Y-2.9903
X8.4058Y-2.2198
X8.5183Y-2.3219
X8.5409Y-2.4326
X8.5532Y-2.3497
X8.6347Y-0.1984
X8.7587Y-0.2953
X8.7999Y0.0067
X8.8739Y-1.547
X8.8921Y-2.4775
X8.9222Y0.0343
X8.9828Y-3.4775
X9.0432Y0.1109
X9.0704Y-0.0138
X9.1088Y-0.2884
X9.1666Y-0.1106
X9.1942Y-0.1414
X9.2268Y-0.1056
X9.248Y-2.0671
X9.2683Y-0.1056
X9.2736Y-1.9217
X9.2912Y-1.7429
X9.3398Y-2.3275
X9.3557Y-2.14
X9.3647Y-1.8328
X9.3773Y-0.2487
X9.4605Y-0.2731
X9.5477Y-2.3839
X9.6542Y-2.236
X9.6717Y-0.3828
X9.7869Y-0.8951
X9.9623Y-2.4625
X9.9767Y-0.5495
X10.0227Y0.0239
X10.1135Y-2.6869
X10.2045Y-2.7413
X10.2259Y-0.5217
X10.2649Y-3.5029
X10.2671Y-1.6563
X10.2846Y-1.5148
X10.2863Y-1.9314
X10.3669Y-2.0917
X10.3884Y-3.11
X10.4027Y-2.2898
X10.4181Y-2.4381
X10.4305Y-2.1551
X10.4745Y-1.2186
X10.4919Y-1.371
X10.5081Y0.3784
X10.5602Y-0.8079
X10.6186Y-0.8612
X10.8304Y-2.2447
X10.869Y-2.2269
X11.0512Y-2.2143
X11.0528Y-1.0831
X11.0997Y-2.1731
T2
X2.4161Y-5.0882
X2.4949Y-5.0882
X0.3691Y-1.2815
X0.4478Y-1.2815
X4.1433Y0.0059
X4.222Y0.0059
X5.2106Y0.0421
X5.2894Y0.0421
X6.9441Y-4.5976
X7.0228Y-4.5976
X0.3691Y-0.7657
X0.4478Y-0.7657
X9.5776Y-3.7717
X9.6563Y-3.7717
X0.3691Y-1.7972
X0.4478Y-1.7972
X9.1122Y0.1506
X9.1909Y0.1506
X0.3691Y-1.5394
X0.4478Y-1.5394
X7.5642Y0.502
X7.6429Y0.502
X11.8382Y-3.7878
X11.9169Y-3.7878
X3.1469Y-5.0882
X3.2256Y-5.0882
X0.3691Y-1.0236
X0.4478Y-1.0236
T3
X2.5313Y-0.4949
X2.5813Y-0.5449
X2.6313Y-0.4949
X2.5313Y-0.1469
X2.5813Y-0.1969
X2.6313Y-0.1469
T4
X0.9165Y-0.8604
X0.9665Y-0.8104
X0.9665Y-0.9104
X2.7429Y-5.0787
X2.7929Y-5.1287
X2.8429Y-5.0787
T5
X1.0494Y-3.643
X1.3494Y-3.643
X2.31Y-4.1674
X2.61Y-4.1674
X5.8701Y0.0831
X6.1701Y0.0831
X3.489Y-3.335
X3.6811Y-3.335
X6.6047Y0.5185
X6.9047Y0.5185
X1.8898Y-0.0809
X2.1898Y-0.0809
X1.158Y0.0955
X1.458Y0.0955
X1.1457Y0.5776
X1.4457Y0.5776
X3.1244Y-4.0537
X3.1244Y-4.1537
X3.1244Y-4.2537
X3.1244Y-4.3537
X3.1244Y-4.4537
X3.1244Y-4.5537
X3.1244Y-4.6537
X3.1244Y-4.7537
X3.4244Y-4.0537
X3.4244Y-4.1537
X3.4244Y-4.2537
X3.4244Y-4.3537
X3.4244Y-4.4537
X3.4244Y-4.5537
X3.4244Y-4.6537
X3.4244Y-4.7537
X2.848Y0.0488
X2.848Y-0.0512
X2.848Y-0.1512
X2.848Y-0.2512
X2.848Y-0.3512
X2.848Y-0.4512
X2.848Y-0.5512
X3.148Y0.0488
X3.148Y-0.0512
X3.148Y-0.1512
X3.148Y-0.2512
X3.148Y-0.3512
X3.148Y-0.4512
X3.148Y-0.5512
X4.3711Y-4.0537
X4.3711Y-4.1537
X4.3711Y-4.2537
X4.3711Y-4.3537
X4.3711Y-4.4537
X4.3711Y-4.5537
X4.3711Y-4.6537
X4.3711Y-4.7537
X4.6711Y-4.0537
X4.6711Y-4.1537
X4.6711Y-4.2537
X4.6711Y-4.3537
X4.6711Y-4.4537
X4.6711Y-4.5537
X4.6711Y-4.6537
X4.6711Y-4.7537
X2.31Y-1.4998
X2.61Y-1.4998
X2.31Y-1.9958
X2.61Y-1.9958
X2.31Y-2.4917
X2.61Y-2.4917
X1.0494Y-3.1288
X1.3494Y-3.1288
X2.31Y-1.7576
X2.61Y-1.7576
X2.31Y-1.242
X2.61Y-1.242
X2.31Y-4.4252
X2.61Y-4.4252
X6.8526Y-4.2764
X7.1526Y-4.2764
X6.8531Y-3.1016
X7.1531Y-3.1016
X1.0494Y-2.4413
X1.3494Y-2.4413
X6.8531Y-3.8065
X7.1531Y-3.8065
X3.0913Y-0.9244
X3.0913Y-1.2244
X2.31Y-2.1148
X2.61Y-2.1148
X1.152Y0.428
X1.452Y0.428
X7.5691Y-2.2775
X7.5691Y-2.3775
X7.5691Y-2.4775
X7.5691Y-2.5775
X7.5691Y-2.6775
X7.5691Y-2.7775
X7.5691Y-2.8775
X7.5691Y-2.9775
X7.5691Y-3.0775
X7.5691Y-3.1775
X7.5691Y-3.2775
X7.5691Y-3.3775
X7.5691Y-3.4775
X7.5691Y-3.5775
X7.5691Y-3.6775
X7.5691Y-3.7775
X7.5691Y-3.8775
X7.5691Y-3.9775
X7.5691Y-4.0775
X7.5691Y-4.1775
X8.1691Y-2.2775
X8.1691Y-2.3775
X8.1691Y-2.4775
X8.1691Y-2.5775
X8.1691Y-2.6775
X8.1691Y-2.7775
X8.1691Y-2.8775
X8.1691Y-2.9775
X8.1691Y-3.0775
X8.1691Y-3.1775
X8.1691Y-3.2775
X8.1691Y-3.3775
X8.1691Y-3.4775
X8.1691Y-3.5775
X8.1691Y-3.6775
X8.1691Y-3.7775
X8.1691Y-3.8775
X8.1691Y-3.9775
X8.1691Y-4.0775
X8.1691Y-4.1775
X9.8628Y-1.171
X9.8628Y-1.271
X9.8628Y-1.371
X9.8628Y-1.471
X9.8628Y-1.571
X9.8628Y-1.671
X9.8628Y-1.771
X9.8628Y-1.871
X9.8628Y-1.971
X9.8628Y-2.071
X10.1628Y-1.171
X10.1628Y-1.271
X10.1628Y-1.371
X10.1628Y-1.471
X10.1628Y-1.571
X10.1628Y-1.671
X10.1628Y-1.771
X10.1628Y-1.871
X10.1628Y-1.971
X10.1628Y-2.071
X2.31Y-3.5229
X2.61Y-3.5229
X1.0494Y-3.8104
X1.3494Y-3.8104
X4.9711Y-4.0537
X4.9711Y-4.1537
X4.9711Y-4.2537
X4.9711Y-4.3537
X4.9711Y-4.4537
X4.9711Y-4.5537
X4.9711Y-4.6537
X4.9711Y-4.7537
X5.2711Y-4.0537
X5.2711Y-4.1537
X5.2711Y-4.2537
X5.2711Y-4.3537
X5.2711Y-4.4537
X5.2711Y-4.5537
X5.2711Y-4.6537
X5.2711Y-4.7537
X2.31Y-1.0039
X2.61Y-1.0039
X2.31Y-2.6206
X2.61Y-2.6206
X2.31Y-2.3628
X2.61Y-2.3628
X6.8531Y-3.3365
X7.1531Y-3.3365
X6.8531Y-3.689
X7.1531Y-3.689
X1.6839Y-1.9911
X1.6839Y-2.0911
X1.6839Y-2.1911
X1.6839Y-2.2911
X1.6839Y-2.3911
X1.6839Y-2.4911
X1.6839Y-2.5911
X1.6839Y-2.6911
X1.9839Y-1.9911
X1.9839Y-2.0911
X1.9839Y-2.1911
X1.9839Y-2.2911
X1.9839Y-2.3911
X1.9839Y-2.4911
X1.9839Y-2.5911
X1.9839Y-2.6911
X5.8701Y0.6494
X6.1701Y0.6494
X2.31Y-0.8809
X2.61Y-0.8809
X6.8531Y-3.2191
X7.1531Y-3.2191
X3.7311Y-4.0537
X3.7311Y-4.1537
X3.7311Y-4.2537
X3.7311Y-4.3537
X3.7311Y-4.4537
X3.7311Y-4.5537
X3.7311Y-4.6537
X4.0311Y-4.0537
X4.0311Y-4.1537
X4.0311Y-4.2537
X4.0311Y-4.3537
X4.0311Y-4.4537
X4.0311Y-4.5537
X4.0311Y-4.6537
X4.9711Y-2.9437
X4.9711Y-3.0437
X4.9711Y-3.1437
X4.9711Y-3.2437
X4.9711Y-3.3437
X4.9711Y-3.4437
X4.9711Y-3.5437
X4.9711Y-3.6437
X5.2711Y-2.9437
X5.2711Y-3.0437
X5.2711Y-3.1437
X5.2711Y-3.2437
X5.2711Y-3.3437
X5.2711Y-3.4437
X5.2711Y-3.5437
X5.2711Y-3.6437
X2.31Y-2.2339
X2.61Y-2.2339
X2.31Y-2.7495
X2.61Y-2.7495
X2.31Y-1.6287
X2.61Y-1.6287
X2.31Y-3.9096
X2.61Y-3.9096
X5.4543Y-0.3785
X5.4543Y-0.4785
X5.4543Y-0.5785
X5.4543Y-0.6785
X5.4543Y-0.7785
X5.4543Y-0.8785
X5.4543Y-0.9785
X5.4543Y-1.0785
X5.4543Y-1.1785
X5.4543Y-1.2785
X5.4543Y-1.3785
X5.4543Y-1.4785
X5.4543Y-1.5785
X5.4543Y-1.6785
X5.4543Y-1.7785
X5.4543Y-1.8785
X5.4543Y-1.9785
X5.4543Y-2.0785
X5.4543Y-2.1785
X5.4543Y-2.2785
X6.0543Y-0.3785
X6.0543Y-0.4785
X6.0543Y-0.5785
X6.0543Y-0.6785
X6.0543Y-0.7785
X6.0543Y-0.8785
X6.0543Y-0.9785
X6.0543Y-1.0785
X6.0543Y-1.1785
X6.0543Y-1.2785
X6.0543Y-1.3785
X6.0543Y-1.4785
X6.0543Y-1.5785
X6.0543Y-1.6785
X6.0543Y-1.7785
X6.0543Y-1.8785
X6.0543Y-1.9785
X6.0543Y-2.0785
X6.0543Y-2.1785
X6.0543Y-2.2785
X6.8531Y-3.9239
X7.1531Y-3.9239
X0.2805Y-0.2199
X0.5805Y-0.2199
X6.8531Y-3.454
X7.1531Y-3.454
X1.158Y-0.0602
X1.458Y-0.0602
X2.852Y0.2402
X3.152Y0.2402
X3.5831Y-0.3953
X3.5831Y-0.4953
X3.5831Y-0.5953
X3.5831Y-0.6953
X3.5831Y-0.7953
X3.5831Y-0.8953
X3.5831Y-0.9953
X3.5831Y-1.0953
X3.5831Y-1.1953
X3.5831Y-1.2953
X3.8831Y-0.3953
X3.8831Y-0.4953
X3.8831Y-0.5953
X3.8831Y-0.6953
X3.8831Y-0.7953
X3.8831Y-0.8953
X3.8831Y-0.9953
X3.8831Y-1.0953
X3.8831Y-1.1953
X3.8831Y-1.2953
X8.6344Y-2.2775
X8.6344Y-2.3775
X8.6344Y-2.4775
X8.6344Y-2.5775
X8.6344Y-2.6775
X8.6344Y-2.7775
X8.6344Y-2.8775
X8.6344Y-2.9775
X8.6344Y-3.0775
X8.6344Y-3.1775
X8.6344Y-3.2775
X8.6344Y-3.3775
X8.6344Y-3.4775
X8.6344Y-3.5775
X8.6344Y-3.6775
X8.6344Y-3.7775
X8.6344Y-3.8775
X8.6344Y-3.9775
X8.6344Y-4.0775
X8.6344Y-4.1775
X9.2344Y-2.2775
X9.2344Y-2.3775
X9.2344Y-2.4775
X9.2344Y-2.5775
X9.2344Y-2.6775
X9.2344Y-2.7775
X9.2344Y-2.8775
X9.2344Y-2.9775
X9.2344Y-3.0775
X9.2344Y-3.1775
X9.2344Y-3.2775
X9.2344Y-3.3775
X9.2344Y-3.4775
X9.2344Y-3.5775
X9.2344Y-3.6775
X9.2344Y-3.7775
X9.2344Y-3.8775
X9.2344Y-3.9775
X9.2344Y-4.0775
X9.2344Y-4.1775
X10.5771Y-1.171
X10.5771Y-1.271
X10.5771Y-1.371
X10.5771Y-1.471
X10.5771Y-1.571
X10.5771Y-1.671
X10.5771Y-1.771
X10.5771Y-1.871
X10.5771Y-1.971
X10.5771Y-2.071
X10.8771Y-1.171
X10.8771Y-1.271
X10.8771Y-1.371
X10.8771Y-1.471
X10.8771Y-1.571
X10.8771Y-1.671
X10.8771Y-1.771
X10.8771Y-1.871
X10.8771Y-1.971
X10.8771Y-2.071
X2.474Y0.2012
X2.574Y0.3012
X2.674Y0.2012
X1.0494Y-2.9555
X1.3494Y-2.9555
X11.2913Y-1.171
X11.2913Y-1.271
X11.2913Y-1.371
X11.2913Y-1.471
X11.2913Y-1.571
X11.2913Y-1.671
X11.2913Y-1.771
X11.5913Y-1.171
X11.5913Y-1.271
X11.5913Y-1.371
X11.5913Y-1.471
X11.5913Y-1.571
X11.5913Y-1.671
X11.5913Y-1.771
X2.31Y-3.7807
X2.61Y-3.7807
X2.31Y-3.6518
X2.61Y-3.6518
X2.31Y-3.394
X2.61Y-3.394
X5.8701Y0.5086
X6.1701Y0.5086
X5.8701Y0.3875
X6.1701Y0.3875
X2.31Y-1.8767
X2.61Y-1.8767
X11.2671Y-2.9278
X11.5671Y-2.9278
X2.31Y-4.0385
X2.61Y-4.0385
X2.31Y-1.123
X2.61Y-1.123
X3.0803Y-2.0528
X3.0803Y-2.3528
X1.8898Y0.083
X2.1898Y0.083
X0.2805Y-0.547
X0.5805Y-0.547
X1.8898Y-0.2447
X2.1898Y-0.2447
X4.3929Y-0.3953
X4.3929Y-0.4953
X4.3929Y-0.5953
X4.3929Y-0.6953
X4.3929Y-0.7953
X4.3929Y-0.8953
X4.3929Y-0.9953
X4.3929Y-1.0953
X4.3929Y-1.1953
X4.3929Y-1.2953
X4.3929Y-1.3953
X4.3929Y-1.4953
X4.3929Y-1.5953
X4.3929Y-1.6953
X4.3929Y-1.7953
X4.3929Y-1.8953
X4.3929Y-1.9953
X4.3929Y-2.0953
X4.3929Y-2.1953
X4.3929Y-2.2953
X4.9929Y-0.3953
X4.9929Y-0.4953
X4.9929Y-0.5953
X4.9929Y-0.6953
X4.9929Y-0.7953
X4.9929Y-0.8953
X4.9929Y-0.9953
X4.9929Y-1.0953
X4.9929Y-1.1953
X4.9929Y-1.2953
X4.9929Y-1.3953
X4.9929Y-1.4953
X4.9929Y-1.5953
X4.9929Y-1.6953
X4.9929Y-1.7953
X4.9929Y-1.8953
X4.9929Y-1.9953
X4.9929Y-2.0953
X4.9929Y-2.1953
X4.9929Y-2.2953
X7.5769Y-0.397
X7.5769Y-0.497
X7.5769Y-0.597
X7.5769Y-0.697
X7.5769Y-0.797
X7.5769Y-0.897
X7.5769Y-0.997
X7.5769Y-1.097
X7.5769Y-1.197
X7.5769Y-1.297
X7.5769Y-1.397
X7.5769Y-1.497
X7.5769Y-1.597
X7.5769Y-1.697
X8.1769Y-0.397
X8.1769Y-0.497
X8.1769Y-0.597
X8.1769Y-0.697
X8.1769Y-0.797
X8.1769Y-0.897
X8.1769Y-0.997
X8.1769Y-1.097
X8.1769Y-1.197
X8.1769Y-1.297
X8.1769Y-1.397
X8.1769Y-1.497
X8.1769Y-1.597
X8.1769Y-1.697
X1.0494Y-4.3305
X1.3494Y-4.3305
X1.0494Y-4.5038
X1.3494Y-4.5038
X5.5711Y-4.0537
X5.5711Y-4.1537
X5.5711Y-4.2537
X5.5711Y-4.3537
X5.5711Y-4.4537
X5.5711Y-4.5537
X5.5711Y-4.6537
X5.5711Y-4.7537
X5.8711Y-4.0537
X5.8711Y-4.1537
X5.8711Y-4.2537
X5.8711Y-4.3537
X5.8711Y-4.4537
X5.8711Y-4.5537
X5.8711Y-4.6537
X5.8711Y-4.7537
X0.2805Y0.0856
X0.5805Y0.0856
X6.1711Y-2.9437
X6.1711Y-3.0437
X6.1711Y-3.1437
X6.1711Y-3.2437
X6.1711Y-3.3437
X6.1711Y-3.4437
X6.1711Y-3.5437
X6.1711Y-3.6437
X6.4711Y-2.9437
X6.4711Y-3.0437
X6.4711Y-3.1437
X6.4711Y-3.2437
X6.4711Y-3.3437
X6.4711Y-3.4437
X6.4711Y-3.5437
X6.4711Y-3.6437
X6.8531Y-4.1589
X7.1531Y-4.1589
X5.8701Y0.2467
X6.1701Y0.2467
X6.6047Y0.6494
X6.9047Y0.6494
X0.9065Y-1.5522
X1.2065Y-1.5522
X11.9768Y-3.037
X11.9768Y-3.2291
X2.31Y-4.2963
X2.61Y-4.2963
X0.9065Y-1.7047
X1.2065Y-1.7047
X1.69Y-1.42
X1.69Y-1.52
X1.69Y-1.62
X1.69Y-1.72
X1.99Y-1.42
X1.99Y-1.52
X1.99Y-1.62
X1.99Y-1.72
X5.5711Y-2.9437
X5.5711Y-3.0437
X5.5711Y-3.1437
X5.5711Y-3.2437
X5.5711Y-3.3437
X5.5711Y-3.4437
X5.5711Y-3.5437
X5.5711Y-3.6437
X5.8711Y-2.9437
X5.8711Y-3.0437
X5.8711Y-3.1437
X5.8711Y-3.2437
X5.8711Y-3.3437
X5.8711Y-3.4437
X5.8711Y-3.5437
X5.8711Y-3.6437
X9.8628Y-2.8376
X9.8628Y-2.9376
X9.8628Y-3.0376
X9.8628Y-3.1376
X9.8628Y-3.2376
X9.8628Y-3.3376
X9.8628Y-3.4376
X10.1628Y-2.8376
X10.1628Y-2.9376
X10.1628Y-3.0376
X10.1628Y-3.1376
X10.1628Y-3.2376
X10.1628Y-3.3376
X10.1628Y-3.4376
X2.31Y-1.3709
X2.61Y-1.3709
X1.0494Y-4.1571
X1.3494Y-4.1571
X1.0494Y-3.9837
X1.3494Y-3.9837
X4.3711Y-2.9437
X4.3711Y-3.0437
X4.3711Y-3.1437
X4.3711Y-3.2437
X4.3711Y-3.3437
X4.3711Y-3.4437
X4.3711Y-3.5437
X4.3711Y-3.6437
X4.6711Y-2.9437
X4.6711Y-3.0437
X4.6711Y-3.1437
X4.6711Y-3.2437
X4.6711Y-3.3437
X4.6711Y-3.4437
X4.6711Y-3.5437
X4.6711Y-3.6437
X1.158Y0.261
X1.458Y0.261
X6.6047Y0.2467
X6.9047Y0.2467
X0.2264Y0.7667
X0.2264Y0.4667
X6.6047Y0.3875
X6.9047Y0.3875
X1.158Y-0.2159
X1.458Y-0.2159
X1.8898Y-0.5724
X2.1898Y-0.5724
X6.8531Y-4.0414
X7.1531Y-4.0414
X2.8492Y0.4917
X3.1492Y0.4917
X1.69Y-3.58
X1.69Y-3.68
X1.69Y-3.78
X1.69Y-3.88
X1.69Y-3.98
X1.69Y-4.08
X1.69Y-4.18
X1.69Y-4.28
X1.99Y-3.58
X1.99Y-3.68
X1.99Y-3.78
X1.99Y-3.88
X1.99Y-3.98
X1.99Y-4.08
X1.99Y-4.18
X1.99Y-4.28
X1.8898Y0.2469
X2.1898Y0.2469
X3.2819Y-1.6717
X3.2819Y-1.7717
X3.2819Y-1.8717
X3.2819Y-1.9717
X3.2819Y-2.0717
X3.2819Y-2.1717
X3.2819Y-2.2717
X3.2819Y-2.3717
X3.2819Y-2.4717
X3.2819Y-2.5717
X3.2819Y-2.6717
X3.2819Y-2.7717
X3.2819Y-2.8717
X3.2819Y-2.9717
X3.8819Y-1.6717
X3.8819Y-1.7717
X3.8819Y-1.8717
X3.8819Y-1.9717
X3.8819Y-2.0717
X3.8819Y-2.1717
X3.8819Y-2.2717
X3.8819Y-2.3717
X3.8819Y-2.4717
X3.8819Y-2.5717
X3.8819Y-2.6717
X3.8819Y-2.7717
X3.8819Y-2.8717
X3.8819Y-2.9717
X0.2805Y-0.3815
X0.5805Y-0.3815
X6.5156Y-0.3992
X6.5156Y-0.4992
X6.5156Y-0.5992
X6.5156Y-0.6992
X6.5156Y-0.7992
X6.5156Y-0.8992
X6.5156Y-0.9992
X6.5156Y-1.0992
X6.5156Y-1.1992
X6.5156Y-1.2992
X6.5156Y-1.3992
X6.5156Y-1.4992
X6.5156Y-1.5992
X6.5156Y-1.6992
X6.5156Y-1.7992
X6.5156Y-1.8992
X6.5156Y-1.9992
X6.5156Y-2.0992
X6.5156Y-2.1992
X6.5156Y-2.2992
X7.1156Y-0.3992
X7.1156Y-0.4992
X7.1156Y-0.5992
X7.1156Y-0.6992
X7.1156Y-0.7992
X7.1156Y-0.8992
X7.1156Y-0.9992
X7.1156Y-1.0992
X7.1156Y-1.1992
X7.1156Y-1.2992
X7.1156Y-1.3992
X7.1156Y-1.4992
X7.1156Y-1.5992
X7.1156Y-1.6992
X7.1156Y-1.7992
X7.1156Y-1.8992
X7.1156Y-1.9992
X7.1156Y-2.0992
X7.1156Y-2.1992
X7.1156Y-2.2992
X10.5771Y-2.8376
X10.5771Y-2.9376
X10.5771Y-3.0376
X10.5771Y-3.1376
X10.5771Y-3.2376
X10.5771Y-3.3376
X10.5771Y-3.4376
X10.5771Y-3.5376
X10.8771Y-2.8376
X10.8771Y-2.9376
X10.8771Y-3.0376
X10.8771Y-3.1376
X10.8771Y-3.2376
X10.8771Y-3.3376
X10.8771Y-3.4376
X10.8771Y-3.5376
X1.0494Y-2.7821
X1.3494Y-2.7821
X6.1711Y-4.0537
X6.1711Y-4.1537
X6.1711Y-4.2537
X6.1711Y-4.3537
X6.1711Y-4.4537
X6.1711Y-4.5537
X6.1711Y-4.6537
X6.1711Y-4.7537
X6.4711Y-4.0537
X6.4711Y-4.1537
X6.4711Y-4.2537
X6.4711Y-4.3537
X6.4711Y-4.4537
X6.4711Y-4.5537
X6.4711Y-4.6537
X6.4711Y-4.7537
X8.6382Y-0.397
X8.6382Y-0.497
X8.6382Y-0.597
X8.6382Y-0.697
X8.6382Y-0.797
X8.6382Y-0.897
X8.6382Y-0.997
X8.6382Y-1.097
X8.6382Y-1.197
X8.6382Y-1.297
X8.6382Y-1.397
X8.6382Y-1.497
X8.6382Y-1.597
X8.6382Y-1.697
X9.2382Y-0.397
X9.2382Y-0.497
X9.2382Y-0.597
X9.2382Y-0.697
X9.2382Y-0.797
X9.2382Y-0.897
X9.2382Y-0.997
X9.2382Y-1.097
X9.2382Y-1.197
X9.2382Y-1.297
X9.2382Y-1.397
X9.2382Y-1.497
X9.2382Y-1.597
X9.2382Y-1.697
X6.8531Y-3.5715
X7.1531Y-3.5715
T6
X0.451Y0.9813
X0.551Y0.9813
X0.651Y0.9813
X0.751Y0.9813
X0.851Y0.9813
X0.951Y0.9813
X1.051Y0.9813
X1.151Y0.9813
X1.251Y0.9813
X5.2717Y0.9665
X5.3717Y0.9665
X5.4717Y0.9665
X5.5717Y0.9665
X5.6717Y0.9665
X5.7717Y0.9665
X4.4205Y-2.7415
X4.6173Y-2.7415
X3.2193Y-1.4701
X3.4161Y-1.4701
X2.3616Y-3.1362
X2.5584Y-3.1362
X1.737Y-2.9925
X1.9339Y-2.9925
X5.6211Y-2.7437
X5.818Y-2.7437
X7.7561Y-2.0774
X7.953Y-2.0774
X9.914Y-2.5669
X10.1109Y-2.5669
X1.101Y-3.3022
X1.2978Y-3.3022
X10.0827Y0.6685
X10.0827Y0.4685
X10.1827Y0.6685
X10.1827Y0.4685
X10.2827Y0.6685
X10.2827Y0.4685
X10.3827Y0.6685
X10.3827Y0.4685
X10.4827Y0.6685
X10.4827Y0.4685
X10.5827Y0.6685
X10.5827Y0.4685
X10.6827Y0.6685
X10.6827Y0.4685
X10.7827Y0.6685
X10.7827Y0.4685
X10.8827Y0.6685
X10.8827Y0.4685
X10.9827Y0.6685
X10.9827Y0.4685
X11.0827Y0.6685
X11.0827Y0.4685
X11.1827Y0.6685
X11.1827Y0.4685
X11.2827Y0.6685
X11.2827Y0.4685
X11.3827Y0.6685
X11.3827Y0.4685
X11.4827Y0.6685
X11.4827Y0.4685
X11.5827Y0.6685
X11.5827Y0.4685
X11.6827Y0.6685
X11.6827Y0.4685
X11.7827Y0.6685
X11.7827Y0.4685
X11.8827Y0.6685
X11.8827Y0.4685
X11.9827Y0.6685
X11.9827Y0.4685
X1.7366Y-3.278
X1.9335Y-3.278
X2.3616Y-4.5541
X2.5584Y-4.5541
X5.6211Y-3.8537
X5.818Y-3.8537
X5.6577Y-0.187
X5.8545Y-0.187
X10.6283Y-0.9539
X10.8251Y-0.9539
X5.0211Y-2.7437
X5.218Y-2.7437
X1.2933Y-0.8289
X1.2933Y-1.1289
X1.6933Y-0.8289
X1.6933Y-1.1289
X1.7933Y-0.8289
X1.7933Y-1.1289
X1.101Y-4.6772
X1.2978Y-4.6772
X0.9581Y-1.8671
X1.1549Y-1.8671
X1.9406Y0.4654
X2.1374Y0.4654
X0.9581Y-1.3898
X1.1549Y-1.3898
X6.7118Y-0.187
X6.9087Y-0.187
X0.5291Y0.4756
X0.6291Y0.4756
X0.9581Y-2.0394
X1.1549Y-2.0394
X3.6378Y-0.187
X3.8346Y-0.187
X1.9262Y0.9593
X1.9262Y0.8593
X2.0262Y0.9593
X2.0262Y0.8593
X2.1262Y0.9593
X2.1262Y0.8593
X2.2262Y0.9593
X2.2262Y0.8593
X2.3262Y0.9593
X2.3262Y0.8593
X2.4262Y0.9593
X2.4262Y0.8593
X2.5262Y0.9593
X2.5262Y0.8593
X2.6262Y0.9593
X2.6262Y0.8593
X2.7262Y0.9593
X2.7262Y0.8593
X2.8262Y0.9593
X2.8262Y0.8593
X2.3616Y-3.2651
X2.5584Y-3.2651
X1.2096Y-0.3815
X1.4065Y-0.3815
X3.7835Y-3.8508
X3.9803Y-3.8508
X6.2211Y-3.8537
X6.418Y-3.8537
X3.1736Y-3.8508
X3.3705Y-3.8508
X3.4843Y-3.5898
X3.6811Y-3.5898
X11.3862Y-2.5846
X11.5831Y-2.5846
X2.3616Y-2.8784
X2.5584Y-2.8784
X0.4Y-5.2126
X0.5Y-5.2126
X0.6Y-5.2126
X0.7Y-5.2126
X0.8Y-5.2126
X0.9Y-5.2126
X1.0Y-5.2126
X1.1Y-5.2126
X1.2Y-5.2126
X1.3Y-5.2126
X1.4Y-5.2126
X1.5Y-5.2126
X1.6Y-5.2126
X1.7Y-5.2126
X1.8Y-5.2126
X1.9Y-5.2126
X10.0787Y-0.4811
X10.0787Y-0.6811
X10.1787Y-0.4811
X10.1787Y-0.6811
X10.2787Y-0.4811
X10.2787Y-0.6811
X10.3787Y-0.4811
X10.3787Y-0.6811
X10.4787Y-0.4811
X10.4787Y-0.6811
X10.5787Y-0.4811
X10.5787Y-0.6811
X10.6787Y-0.4811
X10.6787Y-0.6811
X10.7787Y-0.4811
X10.7787Y-0.6811
X10.8787Y-0.4811
X10.8787Y-0.6811
X10.9787Y-0.4811
X10.9787Y-0.6811
X11.0787Y-0.4811
X11.0787Y-0.6811
X11.1787Y-0.4811
X11.1787Y-0.6811
X11.2787Y-0.4811
X11.2787Y-0.6811
X11.3787Y-0.4811
X11.3787Y-0.6811
X11.4787Y-0.4811
X11.4787Y-0.6811
X11.5787Y-0.4811
X11.5787Y-0.6811
X11.6787Y-0.4811
X11.6787Y-0.6811
X11.7787Y-0.4811
X11.7787Y-0.6811
X11.8787Y-0.4811
X11.8787Y-0.6811
X11.9787Y-0.4811
X11.9787Y-0.6811
X4.4224Y-3.8508
X4.6193Y-3.8508
X4.6045Y-0.187
X4.8014Y-0.187
X5.0211Y-3.8537
X5.218Y-3.8537
X1.9413Y-0.4086
X2.1382Y-0.4086
X6.2211Y-2.7437
X6.418Y-2.7437
X0.3321Y-0.0701
X0.5289Y-0.0701
X11.3187Y-3.1325
X11.5156Y-3.1325
X1.101Y-3.4755
X1.2978Y-3.4755
X3.3618Y-0.3319
X3.3618Y-0.5287
X1.101Y-2.6087
X1.2978Y-2.6087
X11.3425Y-0.9539
X11.5394Y-0.9539
X1.7504Y-4.5713
X1.9472Y-4.5713
X8.8382Y-0.187
X9.0351Y-0.187
X9.914Y-0.9539
X10.1109Y-0.9539
X11.3187Y-3.3372
X11.5156Y-3.3372
X9.6209Y-2.9382
X9.6209Y-3.0382
X9.6209Y-3.1382
X2.3622Y-4.7075
X2.5591Y-4.7075
X2.3616Y-3.0073
X2.5584Y-3.0073
X7.8014Y-0.187
X7.9982Y-0.187
X0.5654Y0.6346
X0.7622Y0.6346
X0.3321Y0.261
X0.5289Y0.261
X10.6283Y-2.5669
X10.8251Y-2.5669
X8.8457Y-2.0774
X9.0425Y-2.0774
X1.2096Y-0.5569
X1.4065Y-0.5569
X3.3772Y0.1339
X3.3772Y-0.063
T7
X10.7406Y-4.8303
X10.7406Y-5.0469
X10.9059Y-4.8303
X10.9059Y-5.0469
X11.0713Y-4.8303
X11.0713Y-5.0469
X11.2366Y-4.8303
X11.2366Y-5.0469
X11.402Y-4.8303
X11.402Y-5.0469
X11.5673Y-4.8303
X11.5673Y-5.0469
X11.7327Y-4.8303
X11.7327Y-5.0469
X11.898Y-4.8303
X11.898Y-5.0469
X12.0634Y-4.8303
X12.0634Y-5.0469
X12.2287Y-4.8303
X12.2287Y-5.0469
T8
X0.1357Y-2.5561
X0.1357Y-2.6546
X0.1357Y-2.8514
X0.1357Y-2.9498
X0.5254Y-2.4577
X0.5254Y-2.753
X0.5254Y-3.0483
X0.6239Y-2.5561
X0.6239Y-2.9498
X0.7223Y-2.753
X4.3146Y0.6224
X4.413Y1.0122
X4.413Y0.524
X4.5154Y1.0122
X4.6098Y0.6224
X4.7083Y1.0122
X4.8067Y1.0122
X4.8067Y0.524
X4.9051Y0.6224
X0.1357Y-4.1361
X0.1357Y-4.2346
X0.1357Y-4.4314
X0.1357Y-4.5298
X0.5254Y-4.0377
X0.5254Y-4.333
X0.5254Y-4.6283
X0.6239Y-4.1361
X0.6239Y-4.5298
X0.7223Y-4.333
X3.4799Y0.6224
X3.4799Y0.4256
X3.5783Y1.0122
X3.5783Y0.524
X3.6768Y1.0122
X3.7752Y0.6224
X3.8736Y1.0122
X3.972Y1.0122
X3.972Y0.524
X4.0705Y0.6224
X4.0705Y0.4256
T9
X1.6937Y0.9301
X3.0587Y0.9301
T10
X9.7452Y1.0085
X12.3202Y1.0085
X9.7412Y-0.1411
X12.3162Y-0.1411
T0
M30
